M48
; DRILL file {KiCad 8.0.3-rc1-1000.20240525gitbe71f77.fc40} date 2024-05-30T08:30:57+1000
; FORMAT={-:-/ absolute / inch / decimal}
; #@! TF.CreationDate,2024-05-30T08:30:57+10:00
; #@! TF.GenerationSoftware,Kicad,Pcbnew,8.0.3-rc1-1000.20240525gitbe71f77.fc40
; #@! TF.FileFunction,Plated,1,4,PTH
FMAT,2
INCH
; #@! TA.AperFunction,Plated,PTH,ComponentDrill
T1C0.0079
; #@! TA.AperFunction,Plated,PTH,ComponentDrill
T2C0.0276
; #@! TA.AperFunction,Plated,PTH,ComponentDrill
T3C0.0315
; #@! TA.AperFunction,Plated,PTH,ComponentDrill
T4C0.0394
; #@! TA.AperFunction,Plated,PTH,ComponentDrill
T5C0.0430
; #@! TA.AperFunction,Plated,PTH,ComponentDrill
T6C0.0472
%
G90
G05
T1
X6.4966Y-2.9365
X6.4966Y-2.9798
T2
X4.9921Y-4.5472
X5.0236Y-4.6161
X5.0551Y-4.5472
X5.0866Y-4.6161
X5.1181Y-4.5472
T3
X4.9512Y-3.2472
X4.9512Y-3.3472
X4.9512Y-3.4472
X4.9512Y-3.5472
X4.9512Y-3.6472
X4.9512Y-3.7472
X4.9512Y-3.8472
X4.9512Y-3.9472
X4.9512Y-4.0472
X4.9512Y-4.1472
X4.9512Y-4.2472
X4.9512Y-4.3472
X5.5512Y-3.2472
X5.5512Y-3.3472
X5.5512Y-3.4472
X5.5512Y-3.5472
X5.5512Y-3.6472
X5.5512Y-3.7472
X5.5512Y-3.8472
X5.5512Y-3.9472
X5.5512Y-4.0472
X5.5512Y-4.1472
X5.5512Y-4.2472
X5.5512Y-4.3472
T4
X5.2854Y-2.5177
X5.3854Y-2.5177
X5.4854Y-2.5177
X5.5854Y-2.5177
X5.6854Y-2.5177
X5.7854Y-2.5177
X5.8854Y-2.5177
X5.9854Y-2.5177
X6.0854Y-2.5177
X6.1854Y-2.5177
X6.2854Y-2.5177
X6.3854Y-2.5177
X6.4854Y-2.5177
X6.5854Y-2.5177
X6.5886Y-3.4232
X6.5886Y-3.5232
X6.5886Y-3.6232
X6.5886Y-3.7232
T5
X6.6689Y-2.9656
X6.7689Y-2.9656
X6.8689Y-2.9656
X6.9689Y-2.9656
T6
X6.8819Y-3.5492
X6.8819Y-3.687
X6.8819Y-3.8248
X6.8819Y-3.9626
X6.8819Y-4.1004
X6.8819Y-4.2382
T2
G00X4.9114Y-4.6073
M15
G01X4.9114Y-4.5561
M16
G05
G00X5.1988Y-4.6073
M15
G01X5.1988Y-4.5561
M16
G05
M30
