%TF.GenerationSoftware,KiCad,Pcbnew,8.0.3-rc1-1000.20240525gitbe71f77.fc40*%
%TF.CreationDate,2024-05-30T08:30:57+10:00*%
%TF.ProjectId,l8-kicad,6c382d6b-6963-4616-942e-6b696361645f,R0.6.0*%
%TF.SameCoordinates,Original*%
%TF.FileFunction,Paste,Top*%
%TF.FilePolarity,Positive*%
%FSLAX46Y46*%
G04 Gerber Fmt 4.6, Leading zero omitted, Abs format (unit mm)*
G04 Created by KiCad (PCBNEW 8.0.3-rc1-1000.20240525gitbe71f77.fc40) date 2024-05-30 08:30:57*
%MOMM*%
%LPD*%
G01*
G04 APERTURE LIST*
G04 Aperture macros list*
%AMRoundRect*
0 Rectangle with rounded corners*
0 $1 Rounding radius*
0 $2 $3 $4 $5 $6 $7 $8 $9 X,Y pos of 4 corners*
0 Add a 4 corners polygon primitive as box body*
4,1,4,$2,$3,$4,$5,$6,$7,$8,$9,$2,$3,0*
0 Add four circle primitives for the rounded corners*
1,1,$1+$1,$2,$3*
1,1,$1+$1,$4,$5*
1,1,$1+$1,$6,$7*
1,1,$1+$1,$8,$9*
0 Add four rect primitives between the rounded corners*
20,1,$1+$1,$2,$3,$4,$5,0*
20,1,$1+$1,$4,$5,$6,$7,0*
20,1,$1+$1,$6,$7,$8,$9,0*
20,1,$1+$1,$8,$9,$2,$3,0*%
G04 Aperture macros list end*
%ADD10C,0.000000*%
%ADD11RoundRect,0.225000X0.250000X-0.225000X0.250000X0.225000X-0.250000X0.225000X-0.250000X-0.225000X0*%
%ADD12RoundRect,0.225000X-0.225000X-0.375000X0.225000X-0.375000X0.225000X0.375000X-0.225000X0.375000X0*%
%ADD13RoundRect,0.100000X-0.225000X-0.100000X0.225000X-0.100000X0.225000X0.100000X-0.225000X0.100000X0*%
%ADD14RoundRect,0.200000X-0.200000X-0.275000X0.200000X-0.275000X0.200000X0.275000X-0.200000X0.275000X0*%
%ADD15RoundRect,0.200000X-0.275000X0.200000X-0.275000X-0.200000X0.275000X-0.200000X0.275000X0.200000X0*%
%ADD16RoundRect,0.225000X-0.225000X-0.250000X0.225000X-0.250000X0.225000X0.250000X-0.225000X0.250000X0*%
%ADD17RoundRect,0.225000X0.225000X0.250000X-0.225000X0.250000X-0.225000X-0.250000X0.225000X-0.250000X0*%
%ADD18RoundRect,0.225000X-0.250000X0.225000X-0.250000X-0.225000X0.250000X-0.225000X0.250000X0.225000X0*%
%ADD19R,2.400000X2.000000*%
%ADD20RoundRect,0.200000X0.275000X-0.200000X0.275000X0.200000X-0.275000X0.200000X-0.275000X-0.200000X0*%
%ADD21R,1.000000X0.750000*%
%ADD22RoundRect,0.079500X-0.100500X0.079500X-0.100500X-0.079500X0.100500X-0.079500X0.100500X0.079500X0*%
%ADD23RoundRect,0.150000X-0.825000X-0.150000X0.825000X-0.150000X0.825000X0.150000X-0.825000X0.150000X0*%
%ADD24RoundRect,0.075000X-0.725000X-0.075000X0.725000X-0.075000X0.725000X0.075000X-0.725000X0.075000X0*%
%ADD25RoundRect,0.075000X-0.075000X-0.725000X0.075000X-0.725000X0.075000X0.725000X-0.075000X0.725000X0*%
%ADD26RoundRect,0.218750X-0.218750X-0.256250X0.218750X-0.256250X0.218750X0.256250X-0.218750X0.256250X0*%
%ADD27RoundRect,0.200000X0.200000X0.275000X-0.200000X0.275000X-0.200000X-0.275000X0.200000X-0.275000X0*%
%ADD28R,0.762000X2.794000*%
%ADD29R,0.800000X0.500000*%
%ADD30R,0.800000X0.400000*%
%ADD31RoundRect,0.079500X-0.079500X-0.100500X0.079500X-0.100500X0.079500X0.100500X-0.079500X0.100500X0*%
%ADD32R,3.150000X1.000000*%
%ADD33RoundRect,0.150000X-0.587500X-0.150000X0.587500X-0.150000X0.587500X0.150000X-0.587500X0.150000X0*%
%ADD34RoundRect,0.250000X1.000000X-1.400000X1.000000X1.400000X-1.000000X1.400000X-1.000000X-1.400000X0*%
%ADD35RoundRect,0.150000X-0.150000X0.587500X-0.150000X-0.587500X0.150000X-0.587500X0.150000X0.587500X0*%
%ADD36RoundRect,0.250000X0.450000X-0.262500X0.450000X0.262500X-0.450000X0.262500X-0.450000X-0.262500X0*%
%ADD37R,0.508000X1.397000*%
%ADD38R,0.050800X0.050800*%
%ADD39R,0.711200X0.508000*%
%ADD40R,0.508000X0.711200*%
%ADD41RoundRect,0.172500X-0.262500X-0.172500X0.262500X-0.172500X0.262500X0.172500X-0.262500X0.172500X0*%
%ADD42RoundRect,0.093750X-0.093750X-0.106250X0.093750X-0.106250X0.093750X0.106250X-0.093750X0.106250X0*%
G04 APERTURE END LIST*
D10*
%TO.C,U5*%
G36*
X131310520Y-72067360D02*
G01*
X131310520Y-72397560D01*
X130599320Y-72397560D01*
X130599320Y-71889560D01*
X131132720Y-71889560D01*
X131310520Y-72067360D01*
G37*
G36*
X131310520Y-75222040D02*
G01*
X131132720Y-75399840D01*
X130599320Y-75399840D01*
X130599320Y-74891840D01*
X131310520Y-74891840D01*
X131310520Y-75222040D01*
G37*
G36*
X131752480Y-71955600D02*
G01*
X131422280Y-71955600D01*
X131244480Y-71777800D01*
X131244480Y-71244400D01*
X131752480Y-71244400D01*
X131752480Y-71955600D01*
G37*
G36*
X131752480Y-76045000D02*
G01*
X131244480Y-76045000D01*
X131244480Y-75511600D01*
X131422280Y-75333800D01*
X131752480Y-75333800D01*
X131752480Y-76045000D01*
G37*
G36*
X134754760Y-71777800D02*
G01*
X134576960Y-71955600D01*
X134246760Y-71955600D01*
X134246760Y-71244400D01*
X134754760Y-71244400D01*
X134754760Y-71777800D01*
G37*
G36*
X134754760Y-75511600D02*
G01*
X134754760Y-76045000D01*
X134246760Y-76045000D01*
X134246760Y-75333800D01*
X134576960Y-75333800D01*
X134754760Y-75511600D01*
G37*
G36*
X135399920Y-72397560D02*
G01*
X134688720Y-72397560D01*
X134688720Y-72067360D01*
X134866520Y-71889560D01*
X135399920Y-71889560D01*
X135399920Y-72397560D01*
G37*
G36*
X135399920Y-75399840D02*
G01*
X134866520Y-75399840D01*
X134688720Y-75222040D01*
X134688720Y-74891840D01*
X135399920Y-74891840D01*
X135399920Y-75399840D01*
G37*
%TD*%
D11*
%TO.C,C37*%
X107250000Y-140425000D03*
X107250000Y-138875000D03*
%TD*%
D12*
%TO.C,D17*%
X156600000Y-160350000D03*
X159900000Y-160350000D03*
%TD*%
D13*
%TO.C,D16*%
X168300000Y-161600000D03*
X168300000Y-162250000D03*
X168300000Y-162900000D03*
X170200000Y-162900000D03*
X170200000Y-162250000D03*
X170200000Y-161600000D03*
%TD*%
D14*
%TO.C,R47*%
X95600000Y-145300000D03*
X97250000Y-145300000D03*
%TD*%
D15*
%TO.C,R48*%
X97500000Y-130575000D03*
X97500000Y-132225000D03*
%TD*%
D16*
%TO.C,C27*%
X144975000Y-125650000D03*
X146525000Y-125650000D03*
%TD*%
D17*
%TO.C,C32*%
X169750000Y-110500000D03*
X168200000Y-110500000D03*
%TD*%
D16*
%TO.C,C33*%
X145025000Y-120850000D03*
X146575000Y-120850000D03*
%TD*%
D18*
%TO.C,C34*%
X143750000Y-109625000D03*
X143750000Y-111175000D03*
%TD*%
D14*
%TO.C,R45*%
X208175000Y-118200000D03*
X209825000Y-118200000D03*
%TD*%
D18*
%TO.C,C31*%
X151850000Y-100425000D03*
X151850000Y-101975000D03*
%TD*%
D19*
%TO.C,X1*%
X145700000Y-118300000D03*
X145700000Y-114600000D03*
%TD*%
D20*
%TO.C,R43*%
X182150000Y-122825000D03*
X182150000Y-121175000D03*
%TD*%
D16*
%TO.C,C24*%
X141075000Y-120850000D03*
X142625000Y-120850000D03*
%TD*%
D18*
%TO.C,C20*%
X195550000Y-146775000D03*
X195550000Y-148325000D03*
%TD*%
D21*
%TO.C,SW1*%
X131100000Y-133775000D03*
X125100000Y-133775000D03*
X131100000Y-130025000D03*
X125100000Y-130025000D03*
%TD*%
D11*
%TO.C,C30*%
X152800000Y-128275000D03*
X152800000Y-126725000D03*
%TD*%
D16*
%TO.C,C29*%
X141125000Y-125600000D03*
X142675000Y-125600000D03*
%TD*%
%TO.C,C23*%
X144925000Y-123300000D03*
X146475000Y-123300000D03*
%TD*%
D22*
%TO.C,FB1*%
X105850000Y-149255000D03*
X105850000Y-149945000D03*
%TD*%
D20*
%TO.C,R13*%
X202450000Y-136650000D03*
X202450000Y-135000000D03*
%TD*%
D17*
%TO.C,C5*%
X165675000Y-68000000D03*
X164125000Y-68000000D03*
%TD*%
D16*
%TO.C,C6*%
X164125000Y-72250000D03*
X165675000Y-72250000D03*
%TD*%
D14*
%TO.C,R23*%
X136925000Y-92650000D03*
X138575000Y-92650000D03*
%TD*%
D16*
%TO.C,C1*%
X168200000Y-112750000D03*
X169750000Y-112750000D03*
%TD*%
D15*
%TO.C,R16*%
X113600000Y-90525000D03*
X113600000Y-92175000D03*
%TD*%
D23*
%TO.C,U2*%
X169800000Y-78400000D03*
X169800000Y-79670000D03*
X169800000Y-80940000D03*
X169800000Y-82210000D03*
X174750000Y-82210000D03*
X174750000Y-80940000D03*
X174750000Y-79670000D03*
X174750000Y-78400000D03*
%TD*%
D24*
%TO.C,U3*%
X150135786Y-110671385D03*
X150135786Y-111171385D03*
X150135786Y-111671385D03*
X150135786Y-112171385D03*
X150135786Y-112671385D03*
X150135786Y-113171385D03*
X150135786Y-113671385D03*
X150135786Y-114171385D03*
X150135786Y-114671385D03*
X150135786Y-115171385D03*
X150135786Y-115671385D03*
X150135786Y-116171385D03*
X150135786Y-116671385D03*
X150135786Y-117171385D03*
X150135786Y-117671385D03*
X150135786Y-118171385D03*
X150135786Y-118671385D03*
X150135786Y-119171385D03*
X150135786Y-119671385D03*
X150135786Y-120171385D03*
X150135786Y-120671385D03*
X150135786Y-121171385D03*
X150135786Y-121671385D03*
X150135786Y-122171385D03*
X150135786Y-122671385D03*
D25*
X151810786Y-124346385D03*
X152310786Y-124346385D03*
X152810786Y-124346385D03*
X153310786Y-124346385D03*
X153810786Y-124346385D03*
X154310786Y-124346385D03*
X154810786Y-124346385D03*
X155310786Y-124346385D03*
X155810786Y-124346385D03*
X156310786Y-124346385D03*
X156810786Y-124346385D03*
X157310786Y-124346385D03*
X157810786Y-124346385D03*
X158310786Y-124346385D03*
X158810786Y-124346385D03*
X159310786Y-124346385D03*
X159810786Y-124346385D03*
X160310786Y-124346385D03*
X160810786Y-124346385D03*
X161310786Y-124346385D03*
X161810786Y-124346385D03*
X162310786Y-124346385D03*
X162810786Y-124346385D03*
X163310786Y-124346385D03*
X163810786Y-124346385D03*
D24*
X165485786Y-122671385D03*
X165485786Y-122171385D03*
X165485786Y-121671385D03*
X165485786Y-121171385D03*
X165485786Y-120671385D03*
X165485786Y-120171385D03*
X165485786Y-119671385D03*
X165485786Y-119171385D03*
X165485786Y-118671385D03*
X165485786Y-118171385D03*
X165485786Y-117671385D03*
X165485786Y-117171385D03*
X165485786Y-116671385D03*
X165485786Y-116171385D03*
X165485786Y-115671385D03*
X165485786Y-115171385D03*
X165485786Y-114671385D03*
X165485786Y-114171385D03*
X165485786Y-113671385D03*
X165485786Y-113171385D03*
X165485786Y-112671385D03*
X165485786Y-112171385D03*
X165485786Y-111671385D03*
X165485786Y-111171385D03*
X165485786Y-110671385D03*
D25*
X163810786Y-108996385D03*
X163310786Y-108996385D03*
X162810786Y-108996385D03*
X162310786Y-108996385D03*
X161810786Y-108996385D03*
X161310786Y-108996385D03*
X160810786Y-108996385D03*
X160310786Y-108996385D03*
X159810786Y-108996385D03*
X159310786Y-108996385D03*
X158810786Y-108996385D03*
X158310786Y-108996385D03*
X157810786Y-108996385D03*
X157310786Y-108996385D03*
X156810786Y-108996385D03*
X156310786Y-108996385D03*
X155810786Y-108996385D03*
X155310786Y-108996385D03*
X154810786Y-108996385D03*
X154310786Y-108996385D03*
X153810786Y-108996385D03*
X153310786Y-108996385D03*
X152810786Y-108996385D03*
X152310786Y-108996385D03*
X151810786Y-108996385D03*
%TD*%
D15*
%TO.C,R10*%
X100000000Y-45500000D03*
X100000000Y-47150000D03*
%TD*%
D26*
%TO.C,D4*%
X175450000Y-111900000D03*
X177025000Y-111900000D03*
%TD*%
D27*
%TO.C,R31*%
X97950000Y-81600000D03*
X96300000Y-81600000D03*
%TD*%
%TO.C,R24*%
X214850000Y-96800000D03*
X213200000Y-96800000D03*
%TD*%
D15*
%TO.C,R19*%
X215450000Y-109600000D03*
X215450000Y-111250000D03*
%TD*%
D28*
%TO.C,J4*%
X161750000Y-135550000D03*
X161750000Y-131486000D03*
X160480000Y-135550000D03*
X160480000Y-131486000D03*
X159210000Y-135550000D03*
X159210000Y-131486000D03*
X157940000Y-135550000D03*
X157940000Y-131486000D03*
X156670000Y-135550000D03*
X156670000Y-131486000D03*
X155400000Y-135550000D03*
X155400000Y-131486000D03*
X154130000Y-135550000D03*
X154130000Y-131486000D03*
%TD*%
D29*
%TO.C,RN2*%
X219450000Y-132800000D03*
D30*
X219450000Y-132000000D03*
X219450000Y-131200000D03*
D29*
X219450000Y-130400000D03*
X217650000Y-130400000D03*
D30*
X217650000Y-131200000D03*
X217650000Y-132000000D03*
D29*
X217650000Y-132800000D03*
%TD*%
D17*
%TO.C,C14*%
X142675000Y-114850000D03*
X141125000Y-114850000D03*
%TD*%
D31*
%TO.C,C12*%
X131605000Y-76950000D03*
X132295000Y-76950000D03*
%TD*%
D15*
%TO.C,R21*%
X216050000Y-101250000D03*
X216050000Y-102900000D03*
%TD*%
D21*
%TO.C,SW2*%
X131150000Y-125825000D03*
X125150000Y-125825000D03*
X131150000Y-122075000D03*
X125150000Y-122075000D03*
%TD*%
D16*
%TO.C,C7*%
X164125000Y-70200000D03*
X165675000Y-70200000D03*
%TD*%
D15*
%TO.C,R17*%
X206500000Y-108950000D03*
X206500000Y-110600000D03*
%TD*%
D32*
%TO.C,J5*%
X93950000Y-169060000D03*
X99000000Y-169060000D03*
X93950000Y-171600000D03*
X99000000Y-171600000D03*
X93950000Y-174140000D03*
X99000000Y-174140000D03*
X93950000Y-176680000D03*
X99000000Y-176680000D03*
X93950000Y-179220000D03*
X99000000Y-179220000D03*
%TD*%
D14*
%TO.C,R12*%
X136925000Y-107900000D03*
X138575000Y-107900000D03*
%TD*%
D16*
%TO.C,C9*%
X141075000Y-123250000D03*
X142625000Y-123250000D03*
%TD*%
D33*
%TO.C,Q3*%
X137712500Y-45537500D03*
X137712500Y-47437500D03*
X139587500Y-46487500D03*
%TD*%
D27*
%TO.C,R7*%
X119800000Y-47250000D03*
X118150000Y-47250000D03*
%TD*%
D34*
%TO.C,D2*%
X228800000Y-98550000D03*
X235600000Y-98550000D03*
%TD*%
D31*
%TO.C,C11*%
X133160000Y-76950000D03*
X133850000Y-76950000D03*
%TD*%
D26*
%TO.C,D10*%
X175450000Y-127181248D03*
X177025000Y-127181248D03*
%TD*%
D35*
%TO.C,Q2*%
X201050000Y-129450000D03*
X199150000Y-129450000D03*
X200100000Y-131325000D03*
%TD*%
D36*
%TO.C,R1*%
X177500000Y-81275000D03*
X177500000Y-79450000D03*
%TD*%
D26*
%TO.C,D11*%
X175450000Y-131001560D03*
X177025000Y-131001560D03*
%TD*%
%TO.C,D5*%
X175450000Y-115720312D03*
X177025000Y-115720312D03*
%TD*%
D37*
%TO.C,U5*%
X132499240Y-71942900D03*
D38*
X131498480Y-71600000D03*
X130954920Y-72143560D03*
D39*
X130954920Y-73144320D03*
X130954920Y-74145080D03*
D38*
X130954920Y-75145840D03*
X131498480Y-75689400D03*
D40*
X132499240Y-75689400D03*
X133500000Y-75689400D03*
D38*
X134500760Y-75689400D03*
X135044320Y-75145840D03*
D39*
X135044320Y-74145080D03*
X135044320Y-73144320D03*
D38*
X135044320Y-72143560D03*
X134500760Y-71600000D03*
D40*
X133500000Y-71600000D03*
%TD*%
D14*
%TO.C,R15*%
X151100000Y-44900000D03*
X152750000Y-44900000D03*
%TD*%
%TO.C,R14*%
X114150000Y-77800000D03*
X115800000Y-77800000D03*
%TD*%
D20*
%TO.C,R18*%
X196300000Y-112675000D03*
X196300000Y-111025000D03*
%TD*%
D14*
%TO.C,R4*%
X198000000Y-84550000D03*
X199650000Y-84550000D03*
%TD*%
D27*
%TO.C,R27*%
X113700000Y-69550000D03*
X112050000Y-69550000D03*
%TD*%
D20*
%TO.C,R25*%
X98700000Y-120875000D03*
X98700000Y-119225000D03*
%TD*%
D15*
%TO.C,R9*%
X129200000Y-46400000D03*
X129200000Y-48050000D03*
%TD*%
D26*
%TO.C,D6*%
X175450000Y-119540624D03*
X177025000Y-119540624D03*
%TD*%
%TO.C,D7*%
X175450000Y-138642184D03*
X177025000Y-138642184D03*
%TD*%
D20*
%TO.C,R5*%
X201100000Y-124850000D03*
X201100000Y-123200000D03*
%TD*%
D26*
%TO.C,D8*%
X175450000Y-123360936D03*
X177025000Y-123360936D03*
%TD*%
D34*
%TO.C,D3*%
X228950000Y-108400000D03*
X235750000Y-108400000D03*
%TD*%
D26*
%TO.C,D1*%
X175450000Y-134821872D03*
X177025000Y-134821872D03*
%TD*%
D27*
%TO.C,R28*%
X114800000Y-84000000D03*
X113150000Y-84000000D03*
%TD*%
D26*
%TO.C,D9*%
X175450000Y-142462500D03*
X177025000Y-142462500D03*
%TD*%
D20*
%TO.C,R26*%
X99450000Y-115600000D03*
X99450000Y-113950000D03*
%TD*%
D17*
%TO.C,C13*%
X142675000Y-118250000D03*
X141125000Y-118250000D03*
%TD*%
D14*
%TO.C,R20*%
X213200000Y-90000000D03*
X214850000Y-90000000D03*
%TD*%
%TO.C,R22*%
X229700000Y-80200000D03*
X231350000Y-80200000D03*
%TD*%
D15*
%TO.C,R8*%
X98900000Y-59550000D03*
X98900000Y-61200000D03*
%TD*%
D41*
%TO.C,U22*%
X165012500Y-74737500D03*
X165012500Y-75537500D03*
D42*
X164125000Y-74487500D03*
X164125000Y-75137500D03*
X164125000Y-75787500D03*
X165900000Y-75787500D03*
X165900000Y-75137500D03*
X165900000Y-74487500D03*
%TD*%
D27*
%TO.C,R29*%
X98600000Y-90550000D03*
X96950000Y-90550000D03*
%TD*%
D14*
%TO.C,R11*%
X136925000Y-105350000D03*
X138575000Y-105350000D03*
%TD*%
D18*
%TO.C,C8*%
X163400000Y-126675000D03*
X163400000Y-128225000D03*
%TD*%
D27*
%TO.C,R6*%
X208100000Y-143600000D03*
X206450000Y-143600000D03*
%TD*%
M02*
