%TF.GenerationSoftware,KiCad,Pcbnew,8.0.3-rc1-1000.20240525gitbe71f77.fc40*%
%TF.CreationDate,2024-05-30T08:30:57+10:00*%
%TF.ProjectId,l8-kicad,6c382d6b-6963-4616-942e-6b696361645f,R0.6.0*%
%TF.SameCoordinates,Original*%
%TF.FileFunction,Legend,Bot*%
%TF.FilePolarity,Positive*%
%FSLAX46Y46*%
G04 Gerber Fmt 4.6, Leading zero omitted, Abs format (unit mm)*
G04 Created by KiCad (PCBNEW 8.0.3-rc1-1000.20240525gitbe71f77.fc40) date 2024-05-30 08:30:57*
%MOMM*%
%LPD*%
G01*
G04 APERTURE LIST*
G04 Aperture macros list*
%AMRoundRect*
0 Rectangle with rounded corners*
0 $1 Rounding radius*
0 $2 $3 $4 $5 $6 $7 $8 $9 X,Y pos of 4 corners*
0 Add a 4 corners polygon primitive as box body*
4,1,4,$2,$3,$4,$5,$6,$7,$8,$9,$2,$3,0*
0 Add four circle primitives for the rounded corners*
1,1,$1+$1,$2,$3*
1,1,$1+$1,$4,$5*
1,1,$1+$1,$6,$7*
1,1,$1+$1,$8,$9*
0 Add four rect primitives between the rounded corners*
20,1,$1+$1,$2,$3,$4,$5,0*
20,1,$1+$1,$4,$5,$6,$7,0*
20,1,$1+$1,$6,$7,$8,$9,0*
20,1,$1+$1,$8,$9,$2,$3,0*%
G04 Aperture macros list end*
%ADD10RoundRect,0.000076X0.550000X0.550000X-0.550000X0.550000X-0.550000X-0.550000X0.550000X-0.550000X0*%
%ADD11C,1.100152*%
%ADD12O,1.100152X2.400152*%
%ADD13C,0.990752*%
%ADD14C,1.600352*%
%ADD15RoundRect,0.000076X-0.850000X0.850000X-0.850000X-0.850000X0.850000X-0.850000X0.850000X0.850000X0*%
%ADD16O,1.700152X1.700152*%
%ADD17RoundRect,0.000076X-0.850000X-0.850000X0.850000X-0.850000X0.850000X0.850000X-0.850000X0.850000X0*%
%ADD18RoundRect,0.000076X-0.800000X-0.800000X0.800000X-0.800000X0.800000X0.800000X-0.800000X0.800000X0*%
%ADD19O,1.600152X1.600152*%
%ADD20C,4.000152*%
%ADD21RoundRect,0.000076X1.200000X-1.200000X1.200000X1.200000X-1.200000X1.200000X-1.200000X-1.200000X0*%
%ADD22C,2.400152*%
G04 APERTURE END LIST*
%LPC*%
D10*
%TO.C,J1*%
X130000000Y-115500000D03*
D11*
X129200000Y-117250000D03*
X128400000Y-115500000D03*
X127600000Y-117250000D03*
X126800000Y-115500000D03*
D12*
X132050000Y-116375000D03*
X124750000Y-116375000D03*
%TD*%
D13*
%TO.C,J7*%
X130790000Y-139850000D03*
X125710000Y-140866000D03*
X125710000Y-138834000D03*
%TD*%
D14*
%TO.C,U1*%
X169390000Y-75325000D03*
X171930000Y-75325000D03*
X174470000Y-75325000D03*
X177010000Y-75325000D03*
%TD*%
D15*
%TO.C,J2*%
X167270000Y-63950000D03*
D16*
X164730000Y-63950000D03*
X162190000Y-63950000D03*
X159650000Y-63950000D03*
X157110000Y-63950000D03*
X154570000Y-63950000D03*
X152030000Y-63950000D03*
X149490000Y-63950000D03*
X146950000Y-63950000D03*
X144410000Y-63950000D03*
X141870000Y-63950000D03*
X139330000Y-63950000D03*
X136790000Y-63950000D03*
X134250000Y-63950000D03*
%TD*%
D17*
%TO.C,PS1*%
X167350000Y-86950000D03*
D16*
X167350000Y-89490000D03*
X167350000Y-92030000D03*
X167350000Y-94570000D03*
%TD*%
D18*
%TO.C,U4*%
X125760000Y-82480000D03*
D19*
X125760000Y-85020000D03*
X125760000Y-87560000D03*
X125760000Y-90100000D03*
X125760000Y-92640000D03*
X125760000Y-95180000D03*
X125760000Y-97720000D03*
X125760000Y-100260000D03*
X125760000Y-102800000D03*
X125760000Y-105340000D03*
X125760000Y-107880000D03*
X125760000Y-110420000D03*
X141000000Y-110420000D03*
X141000000Y-107880000D03*
X141000000Y-105340000D03*
X141000000Y-102800000D03*
X141000000Y-100260000D03*
X141000000Y-97720000D03*
X141000000Y-95180000D03*
X141000000Y-92640000D03*
X141000000Y-90100000D03*
X141000000Y-87560000D03*
X141000000Y-85020000D03*
X141000000Y-82480000D03*
%TD*%
D20*
%TO.C,H1*%
X127250000Y-64400000D03*
%TD*%
%TO.C,H3*%
X127000000Y-148150000D03*
%TD*%
%TO.C,H2*%
X176050000Y-64500000D03*
%TD*%
%TO.C,H4*%
X176200000Y-148000000D03*
%TD*%
D21*
%TO.C,J3*%
X174800000Y-107650000D03*
D22*
X174800000Y-104150000D03*
X174800000Y-100650000D03*
X174800000Y-97150000D03*
X174800000Y-93650000D03*
X174800000Y-90150000D03*
%TD*%
%LPD*%
M02*
