%TF.GenerationSoftware,KiCad,Pcbnew,8.0.3-unknown-1000.20240604git093da7f.fc40*%
%TF.CreationDate,2024-06-05T17:15:31+10:00*%
%TF.ProjectId,l8-kicad,6c382d6b-6963-4616-942e-6b696361645f,1.00*%
%TF.SameCoordinates,Original*%
%TF.FileFunction,Copper,L4,Bot*%
%TF.FilePolarity,Positive*%
%FSLAX46Y46*%
G04 Gerber Fmt 4.6, Leading zero omitted, Abs format (unit mm)*
G04 Created by KiCad (PCBNEW 8.0.3-unknown-1000.20240604git093da7f.fc40) date 2024-06-05 17:15:31*
%MOMM*%
%LPD*%
G01*
G04 APERTURE LIST*
%TA.AperFunction,ComponentPad*%
%ADD10R,1.100000X1.100000*%
%TD*%
%TA.AperFunction,ComponentPad*%
%ADD11C,1.100000*%
%TD*%
%TA.AperFunction,ComponentPad*%
%ADD12O,1.100000X2.400000*%
%TD*%
%TA.AperFunction,ComponentPad*%
%ADD13C,1.600200*%
%TD*%
%TA.AperFunction,ComponentPad*%
%ADD14R,1.700000X1.700000*%
%TD*%
%TA.AperFunction,ComponentPad*%
%ADD15O,1.700000X1.700000*%
%TD*%
%TA.AperFunction,ComponentPad*%
%ADD16R,1.600000X1.600000*%
%TD*%
%TA.AperFunction,ComponentPad*%
%ADD17O,1.600000X1.600000*%
%TD*%
%TA.AperFunction,HeatsinkPad*%
%ADD18C,0.500000*%
%TD*%
%TA.AperFunction,HeatsinkPad*%
%ADD19R,0.500000X1.600000*%
%TD*%
%TA.AperFunction,ComponentPad*%
%ADD20R,2.400000X2.400000*%
%TD*%
%TA.AperFunction,ComponentPad*%
%ADD21C,2.400000*%
%TD*%
%TA.AperFunction,ComponentPad*%
%ADD22R,2.000000X2.000000*%
%TD*%
%TA.AperFunction,ComponentPad*%
%ADD23C,2.000000*%
%TD*%
G04 APERTURE END LIST*
D10*
%TO.P,J1,1,VBUS*%
%TO.N,Net-(D10-A)*%
X195600000Y-106475000D03*
D11*
%TO.P,J1,2,D-*%
%TO.N,/MCU/USB_OTG_FS_DM*%
X194800000Y-108225000D03*
%TO.P,J1,3,D+*%
%TO.N,/MCU/USB_OTG_FS_DP*%
X194000000Y-106475000D03*
%TO.P,J1,4,ID*%
%TO.N,/MCU/PA10*%
X193200000Y-108225000D03*
%TO.P,J1,5,GND*%
%TO.N,GND*%
X192400000Y-106475000D03*
D12*
%TO.P,J1,6,Shield*%
%TO.N,/MCU/Shield*%
X197650000Y-107350000D03*
X190350000Y-107350000D03*
%TD*%
D13*
%TO.P,U1,1,GND*%
%TO.N,GND*%
X145440000Y-113225000D03*
%TO.P,U1,2,VIN*%
%TO.N,+5V*%
X147980000Y-113225000D03*
%TO.P,U1,3,0V*%
%TO.N,/GND_ISO*%
X150520000Y-113225000D03*
%TO.P,U1,4,+VO*%
%TO.N,/+5V_ISO*%
X153060000Y-113225000D03*
%TD*%
D14*
%TO.P,J2,1,VCC*%
%TO.N,+3.3V*%
X111340000Y-101880000D03*
D15*
%TO.P,J2,2,GND*%
%TO.N,Net-(J2-GND)*%
X113880000Y-101880000D03*
%TO.P,J2,3,CS*%
%TO.N,/SPI3_CS*%
X116420000Y-101880000D03*
%TO.P,J2,4,RESET*%
%TO.N,/LCD_RESET*%
X118960000Y-101880000D03*
%TO.P,J2,5,D/C*%
%TO.N,/LCD_DC*%
X121500000Y-101880000D03*
%TO.P,J2,6,SDI*%
%TO.N,/SPI3_SDO*%
X124040000Y-101880000D03*
%TO.P,J2,7,SCK*%
%TO.N,/SPI3_SCK*%
X126580000Y-101880000D03*
%TO.P,J2,8,LED*%
%TO.N,/LCD_LED*%
X129120000Y-101880000D03*
%TO.P,J2,9,SDO*%
%TO.N,/SPI3_SDI*%
X131660000Y-101880000D03*
%TO.P,J2,10,T_SCK*%
%TO.N,/SPI4_SCK*%
X134200000Y-101880000D03*
%TO.P,J2,11,T_CS*%
%TO.N,/SPI4_CS*%
X136740000Y-101880000D03*
%TO.P,J2,12,T_SDI*%
%TO.N,/SPI4_SDO*%
X139280000Y-101880000D03*
%TO.P,J2,13,T_SDO*%
%TO.N,/SPI4_SDI*%
X141820000Y-101880000D03*
%TO.P,J2,14,T_IRQ*%
%TO.N,/SPI4_IRQ*%
X144360000Y-101880000D03*
%TD*%
D14*
%TO.P,PS1,1,VOUT*%
%TO.N,+5V*%
X102750000Y-110750000D03*
D15*
%TO.P,PS1,2,GND*%
%TO.N,GND*%
X102750000Y-113290000D03*
%TO.P,PS1,3,VIN*%
%TO.N,Net-(D1-A)*%
X102750000Y-115830000D03*
%TO.P,PS1,4,SHDN*%
%TO.N,unconnected-(PS1-SHDN-Pad4)*%
X102750000Y-118370000D03*
%TD*%
D16*
%TO.P,U4,1,VDD*%
%TO.N,+3.3V*%
X137349100Y-105250000D03*
D17*
%TO.P,U4,2,VDD_IO*%
X134809100Y-105250000D03*
%TO.P,U4,3*%
%TO.N,unconnected-(U4-Pad3)*%
X132269100Y-105250000D03*
%TO.P,U4,4*%
%TO.N,unconnected-(U4-Pad4)*%
X129729100Y-105250000D03*
%TO.P,U4,5*%
%TO.N,unconnected-(U4-Pad5)*%
X127189100Y-105250000D03*
%TO.P,U4,6*%
%TO.N,unconnected-(U4-Pad6)*%
X124649100Y-105250000D03*
%TO.P,U4,7*%
%TO.N,unconnected-(U4-Pad7)*%
X122109100Y-105250000D03*
%TO.P,U4,8*%
%TO.N,unconnected-(U4-Pad8)*%
X119569100Y-105250000D03*
%TO.P,U4,9*%
%TO.N,unconnected-(U4-Pad9)*%
X117029100Y-105250000D03*
%TO.P,U4,10*%
%TO.N,unconnected-(U4-Pad10)*%
X114489100Y-105250000D03*
%TO.P,U4,11*%
%TO.N,unconnected-(U4-Pad11)*%
X111949100Y-105250000D03*
%TO.P,U4,12*%
%TO.N,unconnected-(U4-Pad12)*%
X109409100Y-105250000D03*
%TO.P,U4,13,GND*%
%TO.N,Net-(Q1-D)*%
X109409100Y-120490000D03*
%TO.P,U4,14,DIL_INT1*%
%TO.N,/SPI1_IRQ*%
X111949100Y-120490000D03*
%TO.P,U4,15,DIL_INT2*%
%TO.N,/SPI1_IRQ2*%
X114489100Y-120490000D03*
%TO.P,U4,16,DIL_INT3*%
%TO.N,unconnected-(U4-DIL_INT3-Pad16)*%
X117029100Y-120490000D03*
%TO.P,U4,17,DIL_INT4*%
%TO.N,unconnected-(U4-DIL_INT4-Pad17)*%
X119569100Y-120490000D03*
%TO.P,U4,18,SPI_dut_CS2*%
%TO.N,/SPI1_CS2*%
X122109100Y-120490000D03*
%TO.P,U4,19,CS*%
%TO.N,/SPI1_CS*%
X124649100Y-120490000D03*
%TO.P,U4,20,SCL*%
%TO.N,/SPI1_SCK*%
X127189100Y-120490000D03*
%TO.P,U4,21,SDA*%
%TO.N,/SPI1_SDO*%
X129729100Y-120490000D03*
%TO.P,U4,22,SDO*%
%TO.N,/SPI1_SDI*%
X132269100Y-120490000D03*
%TO.P,U4,23*%
%TO.N,unconnected-(U4-Pad23)*%
X134809100Y-120490000D03*
%TO.P,U4,24*%
%TO.N,unconnected-(U4-Pad24)*%
X137349100Y-120490000D03*
%TD*%
D18*
%TO.P,U22,7,PAD*%
%TO.N,GND*%
X141062500Y-115987500D03*
D19*
X141062500Y-116537500D03*
D18*
X141062500Y-117087500D03*
%TD*%
D20*
%TO.P,J3,1,Pin_1*%
%TO.N,GND*%
X150000000Y-140250000D03*
D21*
%TO.P,J3,2,Pin_2*%
X150000000Y-136750000D03*
%TO.P,J3,3,Pin_3*%
%TO.N,/VBATT*%
X150000000Y-133250000D03*
%TO.P,J3,4,Pin_4*%
%TO.N,/CAN_H*%
X150000000Y-129750000D03*
%TO.P,J3,5,Pin_5*%
%TO.N,/CAN_L*%
X150000000Y-126250000D03*
%TO.P,J3,6,Pin_6*%
%TO.N,/GND_ISO*%
X150000000Y-122750000D03*
%TD*%
D22*
%TO.P,BZ1,1,+*%
%TO.N,+5V*%
X147200000Y-242850000D03*
D23*
%TO.P,BZ1,2,-*%
%TO.N,Net-(BZ1--)*%
X142200000Y-242850000D03*
%TD*%
M02*
