%TF.GenerationSoftware,KiCad,Pcbnew,8.0.3-unknown-1000.20240606gitb882def.fc40*%
%TF.CreationDate,2024-06-07T20:38:04+10:00*%
%TF.ProjectId,l8-kicad,6c382d6b-6963-4616-942e-6b696361645f,1.00*%
%TF.SameCoordinates,Original*%
%TF.FileFunction,Soldermask,Top*%
%TF.FilePolarity,Negative*%
%FSLAX46Y46*%
G04 Gerber Fmt 4.6, Leading zero omitted, Abs format (unit mm)*
G04 Created by KiCad (PCBNEW 8.0.3-unknown-1000.20240606gitb882def.fc40) date 2024-06-07 20:38:04*
%MOMM*%
%LPD*%
G01*
G04 APERTURE LIST*
G04 Aperture macros list*
%AMRoundRect*
0 Rectangle with rounded corners*
0 $1 Rounding radius*
0 $2 $3 $4 $5 $6 $7 $8 $9 X,Y pos of 4 corners*
0 Add a 4 corners polygon primitive as box body*
4,1,4,$2,$3,$4,$5,$6,$7,$8,$9,$2,$3,0*
0 Add four circle primitives for the rounded corners*
1,1,$1+$1,$2,$3*
1,1,$1+$1,$4,$5*
1,1,$1+$1,$6,$7*
1,1,$1+$1,$8,$9*
0 Add four rect primitives between the rounded corners*
20,1,$1+$1,$2,$3,$4,$5,0*
20,1,$1+$1,$4,$5,$6,$7,0*
20,1,$1+$1,$6,$7,$8,$9,0*
20,1,$1+$1,$8,$9,$2,$3,0*%
%AMFreePoly0*
4,1,14,0.251194,0.355354,0.251216,0.355300,0.251216,-0.344700,0.251194,-0.344754,0.251140,-0.344776,-0.098860,-0.344776,-0.098914,-0.344754,-0.248914,-0.194754,-0.248936,-0.194700,-0.248936,0.355300,-0.248914,0.355354,-0.248860,0.355376,0.251140,0.355376,0.251194,0.355354,0.251194,0.355354,$1*%
%AMFreePoly1*
4,1,14,0.254054,0.355654,0.254076,0.355600,0.254076,-0.177800,0.254054,-0.177854,0.076254,-0.355654,0.076200,-0.355676,-0.254000,-0.355676,-0.254054,-0.355654,-0.254076,-0.355600,-0.254076,0.355600,-0.254054,0.355654,-0.254000,0.355676,0.254000,0.355676,0.254054,0.355654,0.254054,0.355654,$1*%
%AMFreePoly2*
4,1,14,0.254054,0.355654,0.254076,0.355600,0.254076,-0.355600,0.254054,-0.355654,0.254000,-0.355676,-0.254000,-0.355676,-0.254054,-0.355654,-0.254076,-0.355600,-0.254076,0.177800,-0.254054,0.177854,-0.076254,0.355654,-0.076200,0.355676,0.254000,0.355676,0.254054,0.355654,0.254054,0.355654,$1*%
%AMFreePoly3*
4,1,14,0.076254,0.355654,0.254054,0.177854,0.254076,0.177800,0.254076,-0.355600,0.254054,-0.355654,0.254000,-0.355676,-0.254000,-0.355676,-0.254054,-0.355654,-0.254076,-0.355600,-0.254076,0.355600,-0.254054,0.355654,-0.254000,0.355676,0.076200,0.355676,0.076254,0.355654,0.076254,0.355654,$1*%
%AMFreePoly4*
4,1,14,0.251194,0.344754,0.251216,0.344700,0.251216,-0.355300,0.251194,-0.355354,0.251140,-0.355376,-0.248860,-0.355376,-0.248914,-0.355354,-0.248936,-0.355300,-0.248936,0.194700,-0.248914,0.194754,-0.098914,0.344754,-0.098860,0.344776,0.251140,0.344776,0.251194,0.344754,0.251194,0.344754,$1*%
%AMFreePoly5*
4,1,14,0.071114,0.355654,0.248914,0.177854,0.248936,0.177800,0.248936,-0.355600,0.248914,-0.355654,0.248860,-0.355676,-0.259140,-0.355676,-0.259194,-0.355654,-0.259216,-0.355600,-0.259216,0.355600,-0.259194,0.355654,-0.259140,0.355676,0.071060,0.355676,0.071114,0.355654,0.071114,0.355654,$1*%
G04 Aperture macros list end*
%ADD10RoundRect,0.200038X0.275038X-0.200038X0.275038X0.200038X-0.275038X0.200038X-0.275038X-0.200038X0*%
%ADD11RoundRect,0.000076X0.550000X-0.550000X0.550000X0.550000X-0.550000X0.550000X-0.550000X-0.550000X0*%
%ADD12C,1.100152*%
%ADD13O,2.400152X1.100152*%
%ADD14RoundRect,0.000076X-1.000000X-1.200000X1.000000X-1.200000X1.000000X1.200000X-1.000000X1.200000X0*%
%ADD15RoundRect,0.200038X-0.200038X-0.275038X0.200038X-0.275038X0.200038X0.275038X-0.200038X0.275038X0*%
%ADD16RoundRect,0.225038X0.250038X-0.225038X0.250038X0.225038X-0.250038X0.225038X-0.250038X-0.225038X0*%
%ADD17RoundRect,0.000076X-0.500000X-0.375000X0.500000X-0.375000X0.500000X0.375000X-0.500000X0.375000X0*%
%ADD18RoundRect,0.225038X-0.250038X0.225038X-0.250038X-0.225038X0.250038X-0.225038X0.250038X0.225038X0*%
%ADD19C,0.990752*%
%ADD20C,0.787552*%
%ADD21RoundRect,0.225038X-0.225038X-0.250038X0.225038X-0.250038X0.225038X0.250038X-0.225038X0.250038X0*%
%ADD22RoundRect,0.218788X-0.256288X0.218788X-0.256288X-0.218788X0.256288X-0.218788X0.256288X0.218788X0*%
%ADD23RoundRect,0.200038X0.200038X0.275038X-0.200038X0.275038X-0.200038X-0.275038X0.200038X-0.275038X0*%
%ADD24RoundRect,0.225038X0.225038X0.250038X-0.225038X0.250038X-0.225038X-0.250038X0.225038X-0.250038X0*%
%ADD25C,1.000152*%
%ADD26RoundRect,0.150038X0.150038X-0.587538X0.150038X0.587538X-0.150038X0.587538X-0.150038X-0.587538X0*%
%ADD27RoundRect,0.150038X0.150038X-0.750038X0.150038X0.750038X-0.150038X0.750038X-0.150038X-0.750038X0*%
%ADD28RoundRect,0.075038X-0.075038X0.725038X-0.075038X-0.725038X0.075038X-0.725038X0.075038X0.725038X0*%
%ADD29RoundRect,0.075038X-0.725038X0.075038X-0.725038X-0.075038X0.725038X-0.075038X0.725038X0.075038X0*%
%ADD30RoundRect,0.200038X-0.275038X0.200038X-0.275038X-0.200038X0.275038X-0.200038X0.275038X0.200038X0*%
%ADD31RoundRect,0.225038X-0.225038X-0.375038X0.225038X-0.375038X0.225038X0.375038X-0.225038X0.375038X0*%
%ADD32RoundRect,0.000076X0.850000X-0.850000X0.850000X0.850000X-0.850000X0.850000X-0.850000X-0.850000X0*%
%ADD33O,1.700152X1.700152*%
%ADD34RoundRect,0.000076X0.850000X0.850000X-0.850000X0.850000X-0.850000X-0.850000X0.850000X-0.850000X0*%
%ADD35RoundRect,0.218788X0.256288X-0.218788X0.256288X0.218788X-0.256288X0.218788X-0.256288X-0.218788X0*%
%ADD36RoundRect,0.000076X-0.800000X0.800000X-0.800000X-0.800000X0.800000X-0.800000X0.800000X0.800000X0*%
%ADD37O,1.600152X1.600152*%
%ADD38RoundRect,0.000076X-0.381000X-1.397000X0.381000X-1.397000X0.381000X1.397000X-0.381000X1.397000X0*%
%ADD39RoundRect,0.000076X0.400000X0.250000X-0.400000X0.250000X-0.400000X-0.250000X0.400000X-0.250000X0*%
%ADD40RoundRect,0.000076X0.400000X0.200000X-0.400000X0.200000X-0.400000X-0.200000X0.400000X-0.200000X0*%
%ADD41RoundRect,0.000076X0.375000X-0.500000X0.375000X0.500000X-0.375000X0.500000X-0.375000X-0.500000X0*%
%ADD42RoundRect,0.250038X-0.250038X-0.475038X0.250038X-0.475038X0.250038X0.475038X-0.250038X0.475038X0*%
%ADD43RoundRect,0.250021X0.650055X-1.000055X0.650055X1.000055X-0.650055X1.000055X-0.650055X-1.000055X0*%
%ADD44RoundRect,0.150038X0.587538X0.150038X-0.587538X0.150038X-0.587538X-0.150038X0.587538X-0.150038X0*%
%ADD45RoundRect,0.150038X0.150038X-0.512538X0.150038X0.512538X-0.150038X0.512538X-0.150038X-0.512538X0*%
%ADD46C,4.000152*%
%ADD47RoundRect,0.250037X0.262539X0.450039X-0.262539X0.450039X-0.262539X-0.450039X0.262539X-0.450039X0*%
%ADD48RoundRect,0.000076X-0.254000X-0.698500X0.254000X-0.698500X0.254000X0.698500X-0.254000X0.698500X0*%
%ADD49FreePoly0,0.000000*%
%ADD50FreePoly1,90.000000*%
%ADD51RoundRect,0.000076X0.355600X-0.254000X0.355600X0.254000X-0.355600X0.254000X-0.355600X-0.254000X0*%
%ADD52FreePoly0,90.000000*%
%ADD53FreePoly2,0.000000*%
%ADD54RoundRect,0.000076X-0.254000X-0.355600X0.254000X-0.355600X0.254000X0.355600X-0.254000X0.355600X0*%
%ADD55FreePoly3,0.000000*%
%ADD56FreePoly4,90.000000*%
%ADD57FreePoly5,90.000000*%
%ADD58FreePoly1,0.000000*%
%ADD59RoundRect,0.250038X0.250038X0.475038X-0.250038X0.475038X-0.250038X-0.475038X0.250038X-0.475038X0*%
%ADD60RoundRect,0.250015X-1.400061X-1.000061X1.400061X-1.000061X1.400061X1.000061X-1.400061X1.000061X0*%
%ADD61C,1.600352*%
%ADD62RoundRect,0.093788X-0.093788X-0.106288X0.093788X-0.106288X0.093788X0.106288X-0.093788X0.106288X0*%
%ADD63RoundRect,0.000076X-0.500000X-0.800000X0.500000X-0.800000X0.500000X0.800000X-0.500000X0.800000X0*%
%ADD64RoundRect,0.000076X1.200000X-1.200000X1.200000X1.200000X-1.200000X1.200000X-1.200000X-1.200000X0*%
%ADD65C,2.400152*%
%ADD66RoundRect,0.000076X1.000000X-1.000000X1.000000X1.000000X-1.000000X1.000000X-1.000000X-1.000000X0*%
%ADD67C,2.000152*%
G04 APERTURE END LIST*
D10*
%TO.C,R45*%
X111600000Y-165575000D03*
X111600000Y-163925000D03*
%TD*%
D11*
%TO.C,J1*%
X137606363Y-184797119D03*
D12*
X135856363Y-183997119D03*
X137606363Y-183197119D03*
X135856363Y-182397119D03*
X137606363Y-181597119D03*
D13*
X136731363Y-186847119D03*
X136731363Y-179547119D03*
%TD*%
D14*
%TO.C,X1*%
X123600000Y-145150000D03*
X127300000Y-145150000D03*
%TD*%
D15*
%TO.C,R43*%
X101256311Y-158037226D03*
X102906311Y-158037226D03*
%TD*%
D16*
%TO.C,C20*%
X109020819Y-147622596D03*
X109020819Y-146072596D03*
%TD*%
D17*
%TO.C,SW1*%
X103243750Y-161753906D03*
X109243750Y-161753906D03*
X103243750Y-165503906D03*
X109243750Y-165503906D03*
%TD*%
D18*
%TO.C,C30*%
X128750000Y-150775000D03*
X128750000Y-152325000D03*
%TD*%
D19*
%TO.C,J7*%
X152034889Y-168966732D03*
X151018889Y-163886732D03*
X153050889Y-163886732D03*
D20*
X152669889Y-167696732D03*
X151399889Y-167696732D03*
X152669889Y-166426732D03*
X151399889Y-166426732D03*
X152669889Y-165156732D03*
X151399889Y-165156732D03*
%TD*%
D21*
%TO.C,C29*%
X109631311Y-158037226D03*
X111181311Y-158037226D03*
%TD*%
D18*
%TO.C,C23*%
X106241681Y-157260217D03*
X106241681Y-158810217D03*
%TD*%
D22*
%TO.C,FB1*%
X109016681Y-168435217D03*
X109016681Y-170010217D03*
%TD*%
D23*
%TO.C,R13*%
X143143689Y-117478399D03*
X141493689Y-117478399D03*
%TD*%
D24*
%TO.C,C5*%
X148775000Y-110550000D03*
X147225000Y-110550000D03*
%TD*%
D25*
%TO.C,TP4*%
X127057876Y-128670556D03*
%TD*%
D24*
%TO.C,C6*%
X140318689Y-174814337D03*
X138768689Y-174814337D03*
%TD*%
D21*
%TO.C,C16*%
X129475000Y-174050000D03*
X131025000Y-174050000D03*
%TD*%
D25*
%TO.C,TP3*%
X117100000Y-125200000D03*
%TD*%
%TO.C,TP34*%
X134700000Y-150500000D03*
%TD*%
%TO.C,TP31*%
X117300000Y-150200000D03*
%TD*%
%TO.C,TP30*%
X102050000Y-175600000D03*
%TD*%
%TO.C,TP22*%
X136767124Y-153837256D03*
%TD*%
%TO.C,TP9*%
X125667124Y-174813819D03*
%TD*%
%TO.C,TP1*%
X145400000Y-119650000D03*
%TD*%
D26*
%TO.C,Q5*%
X106015300Y-139384035D03*
X107915300Y-139384035D03*
X106965300Y-137509035D03*
%TD*%
D25*
%TO.C,TP17*%
X114850000Y-140700000D03*
%TD*%
D16*
%TO.C,C1*%
X135383319Y-174192908D03*
X135383319Y-172642908D03*
%TD*%
D25*
%TO.C,TP39*%
X102450000Y-179750000D03*
%TD*%
D27*
%TO.C,U2*%
X137645000Y-147975000D03*
X138915000Y-147975000D03*
X140185000Y-147975000D03*
X141455000Y-147975000D03*
X141455000Y-137325000D03*
X140185000Y-137325000D03*
X138915000Y-137325000D03*
X137645000Y-137325000D03*
%TD*%
D28*
%TO.C,U3*%
X131350000Y-155075000D03*
X130850000Y-155075000D03*
X130350000Y-155075000D03*
X129850000Y-155075000D03*
X129350000Y-155075000D03*
X128850000Y-155075000D03*
X128350000Y-155075000D03*
X127850000Y-155075000D03*
X127350000Y-155075000D03*
X126850000Y-155075000D03*
X126350000Y-155075000D03*
X125850000Y-155075000D03*
X125350000Y-155075000D03*
X124850000Y-155075000D03*
X124350000Y-155075000D03*
X123850000Y-155075000D03*
X123350000Y-155075000D03*
X122850000Y-155075000D03*
X122350000Y-155075000D03*
X121850000Y-155075000D03*
X121350000Y-155075000D03*
X120850000Y-155075000D03*
X120350000Y-155075000D03*
X119850000Y-155075000D03*
X119350000Y-155075000D03*
D29*
X117675000Y-156750000D03*
X117675000Y-157250000D03*
X117675000Y-157750000D03*
X117675000Y-158250000D03*
X117675000Y-158750000D03*
X117675000Y-159250000D03*
X117675000Y-159750000D03*
X117675000Y-160250000D03*
X117675000Y-160750000D03*
X117675000Y-161250000D03*
X117675000Y-161750000D03*
X117675000Y-162250000D03*
X117675000Y-162750000D03*
X117675000Y-163250000D03*
X117675000Y-163750000D03*
X117675000Y-164250000D03*
X117675000Y-164750000D03*
X117675000Y-165250000D03*
X117675000Y-165750000D03*
X117675000Y-166250000D03*
X117675000Y-166750000D03*
X117675000Y-167250000D03*
X117675000Y-167750000D03*
X117675000Y-168250000D03*
X117675000Y-168750000D03*
D28*
X119350000Y-170425000D03*
X119850000Y-170425000D03*
X120350000Y-170425000D03*
X120850000Y-170425000D03*
X121350000Y-170425000D03*
X121850000Y-170425000D03*
X122350000Y-170425000D03*
X122850000Y-170425000D03*
X123350000Y-170425000D03*
X123850000Y-170425000D03*
X124350000Y-170425000D03*
X124850000Y-170425000D03*
X125350000Y-170425000D03*
X125850000Y-170425000D03*
X126350000Y-170425000D03*
X126850000Y-170425000D03*
X127350000Y-170425000D03*
X127850000Y-170425000D03*
X128350000Y-170425000D03*
X128850000Y-170425000D03*
X129350000Y-170425000D03*
X129850000Y-170425000D03*
X130350000Y-170425000D03*
X130850000Y-170425000D03*
X131350000Y-170425000D03*
D29*
X133025000Y-168750000D03*
X133025000Y-168250000D03*
X133025000Y-167750000D03*
X133025000Y-167250000D03*
X133025000Y-166750000D03*
X133025000Y-166250000D03*
X133025000Y-165750000D03*
X133025000Y-165250000D03*
X133025000Y-164750000D03*
X133025000Y-164250000D03*
X133025000Y-163750000D03*
X133025000Y-163250000D03*
X133025000Y-162750000D03*
X133025000Y-162250000D03*
X133025000Y-161750000D03*
X133025000Y-161250000D03*
X133025000Y-160750000D03*
X133025000Y-160250000D03*
X133025000Y-159750000D03*
X133025000Y-159250000D03*
X133025000Y-158750000D03*
X133025000Y-158250000D03*
X133025000Y-157750000D03*
X133025000Y-157250000D03*
X133025000Y-156750000D03*
%TD*%
D30*
%TO.C,R3*%
X109950000Y-118000000D03*
X109950000Y-119650000D03*
%TD*%
D25*
%TO.C,TP21*%
X139545376Y-155240869D03*
%TD*%
D31*
%TO.C,D12*%
X142000000Y-187050000D03*
X145300000Y-187050000D03*
%TD*%
D10*
%TO.C,R29*%
X133800000Y-154425000D03*
X133800000Y-152775000D03*
%TD*%
D30*
%TO.C,R39*%
X137200000Y-109250000D03*
X137200000Y-110900000D03*
%TD*%
D32*
%TO.C,J2*%
X111340000Y-101880000D03*
D33*
X113880000Y-101880000D03*
X116420000Y-101880000D03*
X118960000Y-101880000D03*
X121500000Y-101880000D03*
X124040000Y-101880000D03*
X126580000Y-101880000D03*
X129120000Y-101880000D03*
X131660000Y-101880000D03*
X134200000Y-101880000D03*
X136740000Y-101880000D03*
X139280000Y-101880000D03*
X141820000Y-101880000D03*
X144360000Y-101880000D03*
%TD*%
D21*
%TO.C,C4*%
X147200000Y-114450000D03*
X148750000Y-114450000D03*
%TD*%
D25*
%TO.C,TP12*%
X123350000Y-137700000D03*
%TD*%
D34*
%TO.C,PS1*%
X151850000Y-117650000D03*
D33*
X151850000Y-115110000D03*
X151850000Y-112570000D03*
X151850000Y-110030000D03*
%TD*%
D30*
%TO.C,R10*%
X109016681Y-126444592D03*
X109016681Y-128094592D03*
%TD*%
D35*
%TO.C,D4*%
X110400000Y-187537500D03*
X110400000Y-185962500D03*
%TD*%
D25*
%TO.C,TP32*%
X114567124Y-148243506D03*
%TD*%
%TO.C,TP40*%
X121504624Y-174813819D03*
%TD*%
D36*
%TO.C,U4*%
X137299100Y-107075000D03*
D37*
X134759100Y-107075000D03*
X132219100Y-107075000D03*
X129679100Y-107075000D03*
X127139100Y-107075000D03*
X124599100Y-107075000D03*
X122059100Y-107075000D03*
X119519100Y-107075000D03*
X116979100Y-107075000D03*
X114439100Y-107075000D03*
X111899100Y-107075000D03*
X109359100Y-107075000D03*
X109359100Y-122315000D03*
X111899100Y-122315000D03*
X114439100Y-122315000D03*
X116979100Y-122315000D03*
X119519100Y-122315000D03*
X122059100Y-122315000D03*
X124599100Y-122315000D03*
X127139100Y-122315000D03*
X129679100Y-122315000D03*
X132219100Y-122315000D03*
X134759100Y-122315000D03*
X137299100Y-122315000D03*
%TD*%
D38*
%TO.C,J4*%
X146187375Y-168075701D03*
X146187375Y-164011701D03*
X144917375Y-168075701D03*
X144917375Y-164011701D03*
X143647375Y-168075701D03*
X143647375Y-164011701D03*
X142377375Y-168075701D03*
X142377375Y-164011701D03*
X141107375Y-168075701D03*
X141107375Y-164011701D03*
X139837375Y-168075701D03*
X139837375Y-164011701D03*
X138567375Y-168075701D03*
X138567375Y-164011701D03*
%TD*%
D39*
%TO.C,RN2*%
X115650000Y-180550000D03*
D40*
X115650000Y-179750000D03*
X115650000Y-178950000D03*
D39*
X115650000Y-178150000D03*
X113850000Y-178150000D03*
D40*
X113850000Y-178950000D03*
X113850000Y-179750000D03*
D39*
X113850000Y-180550000D03*
%TD*%
D18*
%TO.C,C12*%
X113550000Y-157475000D03*
X113550000Y-159025000D03*
%TD*%
D25*
%TO.C,TP38*%
X111791163Y-149646157D03*
%TD*%
D21*
%TO.C,C14*%
X123025000Y-148400000D03*
X124575000Y-148400000D03*
%TD*%
D25*
%TO.C,TP35*%
X110407876Y-173420556D03*
%TD*%
D15*
%TO.C,R33*%
X101256311Y-138459101D03*
X102906311Y-138459101D03*
%TD*%
D41*
%TO.C,SW2*%
X101593750Y-154042969D03*
X101593750Y-148042969D03*
X105343750Y-154042969D03*
X105343750Y-148042969D03*
%TD*%
D25*
%TO.C,TP2*%
X132900000Y-134950000D03*
%TD*%
D42*
%TO.C,C7*%
X147200000Y-112550000D03*
X149100000Y-112550000D03*
%TD*%
D25*
%TO.C,TP10*%
X131216163Y-177614907D03*
%TD*%
%TO.C,TP8*%
X124282876Y-177615869D03*
%TD*%
D30*
%TO.C,R38*%
X120950000Y-109250000D03*
X120950000Y-110900000D03*
%TD*%
%TO.C,R37*%
X115762500Y-109250000D03*
X115762500Y-110900000D03*
%TD*%
D21*
%TO.C,C2*%
X124775000Y-119675000D03*
X126325000Y-119675000D03*
%TD*%
D25*
%TO.C,TP27*%
X145950000Y-156450000D03*
%TD*%
%TO.C,TP20*%
X141400000Y-155650000D03*
%TD*%
D26*
%TO.C,Q4*%
X114100000Y-117387500D03*
X116000000Y-117387500D03*
X115050000Y-115512500D03*
%TD*%
D15*
%TO.C,R2*%
X141493811Y-113287226D03*
X143143811Y-113287226D03*
%TD*%
D30*
%TO.C,R12*%
X106241681Y-130639904D03*
X106241681Y-132289904D03*
%TD*%
D25*
%TO.C,TP18*%
X115250000Y-145450000D03*
%TD*%
%TO.C,TP16*%
X114950000Y-139050000D03*
%TD*%
%TO.C,TP25*%
X106241163Y-172021157D03*
%TD*%
D35*
%TO.C,D1*%
X147700000Y-145475000D03*
X147700000Y-143900000D03*
%TD*%
D25*
%TO.C,TP5*%
X125650000Y-131150000D03*
%TD*%
D30*
%TO.C,R35*%
X147866681Y-173991467D03*
X147866681Y-175641467D03*
%TD*%
D21*
%TO.C,C11*%
X121275000Y-151950000D03*
X122825000Y-151950000D03*
%TD*%
D30*
%TO.C,R7*%
X121700000Y-125175000D03*
X121700000Y-126825000D03*
%TD*%
D43*
%TO.C,D2*%
X151450000Y-148650000D03*
X151450000Y-144650000D03*
%TD*%
D44*
%TO.C,Q1*%
X134587500Y-116400000D03*
X134587500Y-114500000D03*
X132712500Y-115450000D03*
%TD*%
D21*
%TO.C,C15*%
X112975000Y-168750000D03*
X114525000Y-168750000D03*
%TD*%
D30*
%TO.C,R32*%
X102079181Y-141827404D03*
X102079181Y-143477404D03*
%TD*%
D45*
%TO.C,D10*%
X142786041Y-182940127D03*
X143736041Y-182940127D03*
X144686041Y-182940127D03*
X144686041Y-180665127D03*
X143736041Y-180665127D03*
X142786041Y-180665127D03*
%TD*%
D46*
%TO.C,H3*%
X103250000Y-186500000D03*
%TD*%
D15*
%TO.C,R36*%
X113743811Y-152443476D03*
X115393811Y-152443476D03*
%TD*%
D25*
%TO.C,TP33*%
X141000000Y-152900000D03*
%TD*%
D47*
%TO.C,R1*%
X140912500Y-134450000D03*
X139087500Y-134450000D03*
%TD*%
D35*
%TO.C,D5*%
X113850000Y-187537500D03*
X113850000Y-185962500D03*
%TD*%
D25*
%TO.C,TP24*%
X104853663Y-169224282D03*
%TD*%
D48*
%TO.C,U5*%
X125199620Y-113373200D03*
D49*
X124200000Y-113025000D03*
D50*
X123655300Y-113573860D03*
D51*
X123655300Y-114574620D03*
X123655300Y-115575380D03*
D52*
X123655300Y-116576140D03*
D53*
X124198860Y-117119700D03*
D54*
X125199620Y-117119700D03*
X126200380Y-117119700D03*
D55*
X127201140Y-117119700D03*
D56*
X127744700Y-116576140D03*
D51*
X127744700Y-115575380D03*
X127744700Y-114574620D03*
D57*
X127744700Y-113573860D03*
D58*
X127201140Y-113030300D03*
D54*
X126200380Y-113030300D03*
%TD*%
D25*
%TO.C,TP36*%
X107629624Y-174813819D03*
%TD*%
D30*
%TO.C,R15*%
X124700000Y-125050000D03*
X124700000Y-126700000D03*
%TD*%
D10*
%TO.C,R4*%
X147750000Y-149800000D03*
X147750000Y-148150000D03*
%TD*%
D30*
%TO.C,R14*%
X109200000Y-109250000D03*
X109200000Y-110900000D03*
%TD*%
D25*
%TO.C,TP26*%
X120117124Y-177610694D03*
%TD*%
D10*
%TO.C,R27*%
X125350000Y-110825000D03*
X125350000Y-109175000D03*
%TD*%
D21*
%TO.C,C9*%
X109631311Y-153841913D03*
X111181311Y-153841913D03*
%TD*%
D59*
%TO.C,C10*%
X123100000Y-119475000D03*
X121200000Y-119475000D03*
%TD*%
D25*
%TO.C,TP14*%
X123250000Y-142250000D03*
%TD*%
%TO.C,TP19*%
X128442124Y-179009131D03*
%TD*%
D23*
%TO.C,R9*%
X105681189Y-127267462D03*
X104031189Y-127267462D03*
%TD*%
D46*
%TO.C,H2*%
X152250000Y-103000000D03*
%TD*%
D25*
%TO.C,TP37*%
X113550000Y-143900000D03*
%TD*%
%TO.C,TP11*%
X125671337Y-180408530D03*
%TD*%
D35*
%TO.C,D6*%
X117450000Y-187537500D03*
X117450000Y-185962500D03*
%TD*%
D25*
%TO.C,TP15*%
X121504624Y-180407569D03*
%TD*%
D15*
%TO.C,R5*%
X142881311Y-176216913D03*
X144531311Y-176216913D03*
%TD*%
D30*
%TO.C,R17*%
X131216681Y-180983654D03*
X131216681Y-182633654D03*
%TD*%
D60*
%TO.C,D3*%
X150100000Y-152850000D03*
X150100000Y-159650000D03*
%TD*%
D25*
%TO.C,TP6*%
X136350000Y-132750000D03*
%TD*%
%TO.C,TP13*%
X126950000Y-139850000D03*
%TD*%
D35*
%TO.C,D11*%
X120800000Y-187537500D03*
X120800000Y-185962500D03*
%TD*%
D10*
%TO.C,R28*%
X130950000Y-110900000D03*
X130950000Y-109250000D03*
%TD*%
D25*
%TO.C,TP29*%
X103500001Y-181050000D03*
%TD*%
D46*
%TO.C,H4*%
X152250000Y-186500000D03*
%TD*%
D25*
%TO.C,TP28*%
X152033837Y-173416343D03*
%TD*%
D24*
%TO.C,C13*%
X127850000Y-148400000D03*
X126300000Y-148400000D03*
%TD*%
D61*
%TO.C,U1*%
X140375000Y-122940000D03*
X140375000Y-125480000D03*
X140375000Y-128020000D03*
X140375000Y-130560000D03*
%TD*%
D15*
%TO.C,R8*%
X122068811Y-130068476D03*
X123718811Y-130068476D03*
%TD*%
D16*
%TO.C,C17*%
X137050000Y-158525000D03*
X137050000Y-156975000D03*
%TD*%
D62*
%TO.C,U22*%
X147150000Y-116787500D03*
X147150000Y-117437500D03*
X147150000Y-118087500D03*
X148925000Y-118087500D03*
X148925000Y-117437500D03*
X148925000Y-116787500D03*
D63*
X148037500Y-117437500D03*
%TD*%
D10*
%TO.C,R11*%
X114700000Y-126700000D03*
X114700000Y-125050000D03*
%TD*%
D18*
%TO.C,C8*%
X117341681Y-174041467D03*
X117341681Y-175591467D03*
%TD*%
D64*
%TO.C,J3*%
X150000000Y-140250000D03*
D65*
X150000000Y-136750000D03*
X150000000Y-133250000D03*
X150000000Y-129750000D03*
X150000000Y-126250000D03*
X150000000Y-122750000D03*
%TD*%
D23*
%TO.C,R16*%
X132043689Y-186001837D03*
X130393689Y-186001837D03*
%TD*%
D46*
%TO.C,H1*%
X103250000Y-103000000D03*
%TD*%
D66*
%TO.C,BZ1*%
X114568750Y-136040163D03*
D67*
X114568750Y-131040163D03*
%TD*%
M02*
