%TF.GenerationSoftware,KiCad,Pcbnew,8.0.3-unknown-1000.20240606gitb882def.fc40*%
%TF.CreationDate,2024-06-07T20:38:04+10:00*%
%TF.ProjectId,l8-kicad,6c382d6b-6963-4616-942e-6b696361645f,1.00*%
%TF.SameCoordinates,Original*%
%TF.FileFunction,Other,Comment*%
%FSLAX46Y46*%
G04 Gerber Fmt 4.6, Leading zero omitted, Abs format (unit mm)*
G04 Created by KiCad (PCBNEW 8.0.3-unknown-1000.20240606gitb882def.fc40) date 2024-06-07 20:38:04*
%MOMM*%
%LPD*%
G01*
G04 APERTURE LIST*
%ADD10C,0.070000*%
%ADD11C,0.150000*%
G04 APERTURE END LIST*
D10*
X154331407Y-168138095D02*
X153931407Y-168138095D01*
X154331407Y-167909524D02*
X154102836Y-168080953D01*
X153931407Y-167909524D02*
X154159979Y-168138095D01*
X154121883Y-167738095D02*
X154121883Y-167604762D01*
X154331407Y-167547619D02*
X154331407Y-167738095D01*
X154331407Y-167738095D02*
X153931407Y-167738095D01*
X153931407Y-167738095D02*
X153931407Y-167547619D01*
X154121883Y-167376190D02*
X154121883Y-167242857D01*
X154331407Y-167185714D02*
X154331407Y-167376190D01*
X154331407Y-167376190D02*
X153931407Y-167376190D01*
X153931407Y-167376190D02*
X153931407Y-167185714D01*
X154331407Y-167014285D02*
X153931407Y-167014285D01*
X153931407Y-167014285D02*
X153931407Y-166861904D01*
X153931407Y-166861904D02*
X153950455Y-166823809D01*
X153950455Y-166823809D02*
X153969502Y-166804762D01*
X153969502Y-166804762D02*
X154007598Y-166785714D01*
X154007598Y-166785714D02*
X154064740Y-166785714D01*
X154064740Y-166785714D02*
X154102836Y-166804762D01*
X154102836Y-166804762D02*
X154121883Y-166823809D01*
X154121883Y-166823809D02*
X154140931Y-166861904D01*
X154140931Y-166861904D02*
X154140931Y-167014285D01*
X153931407Y-166538095D02*
X153931407Y-166461904D01*
X153931407Y-166461904D02*
X153950455Y-166423809D01*
X153950455Y-166423809D02*
X153988550Y-166385714D01*
X153988550Y-166385714D02*
X154064740Y-166366666D01*
X154064740Y-166366666D02*
X154198074Y-166366666D01*
X154198074Y-166366666D02*
X154274264Y-166385714D01*
X154274264Y-166385714D02*
X154312360Y-166423809D01*
X154312360Y-166423809D02*
X154331407Y-166461904D01*
X154331407Y-166461904D02*
X154331407Y-166538095D01*
X154331407Y-166538095D02*
X154312360Y-166576190D01*
X154312360Y-166576190D02*
X154274264Y-166614285D01*
X154274264Y-166614285D02*
X154198074Y-166633333D01*
X154198074Y-166633333D02*
X154064740Y-166633333D01*
X154064740Y-166633333D02*
X153988550Y-166614285D01*
X153988550Y-166614285D02*
X153950455Y-166576190D01*
X153950455Y-166576190D02*
X153931407Y-166538095D01*
X153931407Y-166195237D02*
X154255217Y-166195237D01*
X154255217Y-166195237D02*
X154293312Y-166176190D01*
X154293312Y-166176190D02*
X154312360Y-166157142D01*
X154312360Y-166157142D02*
X154331407Y-166119047D01*
X154331407Y-166119047D02*
X154331407Y-166042856D01*
X154331407Y-166042856D02*
X154312360Y-166004761D01*
X154312360Y-166004761D02*
X154293312Y-165985714D01*
X154293312Y-165985714D02*
X154255217Y-165966666D01*
X154255217Y-165966666D02*
X153931407Y-165966666D01*
X153931407Y-165833332D02*
X153931407Y-165604761D01*
X154331407Y-165719047D02*
X153931407Y-165719047D01*
D11*
%TO.C,H3*%
X107250000Y-186500000D02*
G75*
G02*
X99250000Y-186500000I-4000000J0D01*
G01*
X99250000Y-186500000D02*
G75*
G02*
X107250000Y-186500000I4000000J0D01*
G01*
%TO.C,H2*%
X156250000Y-103000000D02*
G75*
G02*
X148250000Y-103000000I-4000000J0D01*
G01*
X148250000Y-103000000D02*
G75*
G02*
X156250000Y-103000000I4000000J0D01*
G01*
%TO.C,H4*%
X156250000Y-186500000D02*
G75*
G02*
X148250000Y-186500000I-4000000J0D01*
G01*
X148250000Y-186500000D02*
G75*
G02*
X156250000Y-186500000I4000000J0D01*
G01*
%TO.C,H1*%
X107250000Y-103000000D02*
G75*
G02*
X99250000Y-103000000I-4000000J0D01*
G01*
X99250000Y-103000000D02*
G75*
G02*
X107250000Y-103000000I4000000J0D01*
G01*
%TD*%
M02*
