%TF.GenerationSoftware,KiCad,Pcbnew,8.0.3-unknown-1000.20240604git093da7f.fc40*%
%TF.CreationDate,2024-06-05T17:15:31+10:00*%
%TF.ProjectId,l8-kicad,6c382d6b-6963-4616-942e-6b696361645f,1.00*%
%TF.SameCoordinates,Original*%
%TF.FileFunction,Other,Comment*%
%FSLAX46Y46*%
G04 Gerber Fmt 4.6, Leading zero omitted, Abs format (unit mm)*
G04 Created by KiCad (PCBNEW 8.0.3-unknown-1000.20240604git093da7f.fc40) date 2024-06-05 17:15:31*
%MOMM*%
%LPD*%
G01*
G04 APERTURE LIST*
%ADD10C,0.070000*%
%ADD11C,0.150000*%
G04 APERTURE END LIST*
D10*
X105545022Y-219048881D02*
X105145022Y-219048881D01*
X105545022Y-218820310D02*
X105316451Y-218991739D01*
X105145022Y-218820310D02*
X105373594Y-219048881D01*
X105335498Y-218648881D02*
X105335498Y-218515548D01*
X105545022Y-218458405D02*
X105545022Y-218648881D01*
X105545022Y-218648881D02*
X105145022Y-218648881D01*
X105145022Y-218648881D02*
X105145022Y-218458405D01*
X105335498Y-218286976D02*
X105335498Y-218153643D01*
X105545022Y-218096500D02*
X105545022Y-218286976D01*
X105545022Y-218286976D02*
X105145022Y-218286976D01*
X105145022Y-218286976D02*
X105145022Y-218096500D01*
X105545022Y-217925071D02*
X105145022Y-217925071D01*
X105145022Y-217925071D02*
X105145022Y-217772690D01*
X105145022Y-217772690D02*
X105164070Y-217734595D01*
X105164070Y-217734595D02*
X105183117Y-217715548D01*
X105183117Y-217715548D02*
X105221213Y-217696500D01*
X105221213Y-217696500D02*
X105278355Y-217696500D01*
X105278355Y-217696500D02*
X105316451Y-217715548D01*
X105316451Y-217715548D02*
X105335498Y-217734595D01*
X105335498Y-217734595D02*
X105354546Y-217772690D01*
X105354546Y-217772690D02*
X105354546Y-217925071D01*
X105145022Y-217448881D02*
X105145022Y-217372690D01*
X105145022Y-217372690D02*
X105164070Y-217334595D01*
X105164070Y-217334595D02*
X105202165Y-217296500D01*
X105202165Y-217296500D02*
X105278355Y-217277452D01*
X105278355Y-217277452D02*
X105411689Y-217277452D01*
X105411689Y-217277452D02*
X105487879Y-217296500D01*
X105487879Y-217296500D02*
X105525975Y-217334595D01*
X105525975Y-217334595D02*
X105545022Y-217372690D01*
X105545022Y-217372690D02*
X105545022Y-217448881D01*
X105545022Y-217448881D02*
X105525975Y-217486976D01*
X105525975Y-217486976D02*
X105487879Y-217525071D01*
X105487879Y-217525071D02*
X105411689Y-217544119D01*
X105411689Y-217544119D02*
X105278355Y-217544119D01*
X105278355Y-217544119D02*
X105202165Y-217525071D01*
X105202165Y-217525071D02*
X105164070Y-217486976D01*
X105164070Y-217486976D02*
X105145022Y-217448881D01*
X105145022Y-217106023D02*
X105468832Y-217106023D01*
X105468832Y-217106023D02*
X105506927Y-217086976D01*
X105506927Y-217086976D02*
X105525975Y-217067928D01*
X105525975Y-217067928D02*
X105545022Y-217029833D01*
X105545022Y-217029833D02*
X105545022Y-216953642D01*
X105545022Y-216953642D02*
X105525975Y-216915547D01*
X105525975Y-216915547D02*
X105506927Y-216896500D01*
X105506927Y-216896500D02*
X105468832Y-216877452D01*
X105468832Y-216877452D02*
X105145022Y-216877452D01*
X105145022Y-216744118D02*
X105145022Y-216515547D01*
X105545022Y-216629833D02*
X105145022Y-216629833D01*
D11*
%TO.C,H3*%
X107250000Y-186500000D02*
G75*
G02*
X99250000Y-186500000I-4000000J0D01*
G01*
X99250000Y-186500000D02*
G75*
G02*
X107250000Y-186500000I4000000J0D01*
G01*
%TO.C,H2*%
X156250000Y-103000000D02*
G75*
G02*
X148250000Y-103000000I-4000000J0D01*
G01*
X148250000Y-103000000D02*
G75*
G02*
X156250000Y-103000000I4000000J0D01*
G01*
%TO.C,H4*%
X156250000Y-186500000D02*
G75*
G02*
X148250000Y-186500000I-4000000J0D01*
G01*
X148250000Y-186500000D02*
G75*
G02*
X156250000Y-186500000I4000000J0D01*
G01*
%TO.C,H1*%
X107250000Y-103000000D02*
G75*
G02*
X99250000Y-103000000I-4000000J0D01*
G01*
X99250000Y-103000000D02*
G75*
G02*
X107250000Y-103000000I4000000J0D01*
G01*
%TD*%
M02*
