M48
; DRILL file {KiCad 8.0.3-unknown-1000.20240606gitb882def.fc40} date 2024-06-07T19:49:53+1000
; FORMAT={-:-/ absolute / inch / decimal}
; #@! TF.CreationDate,2024-06-07T19:49:53+10:00
; #@! TF.GenerationSoftware,Kicad,Pcbnew,8.0.3-unknown-1000.20240606gitb882def.fc40
; #@! TF.FileFunction,Plated,1,2,PTH
FMAT,2
INCH
; #@! TA.AperFunction,Plated,PTH,ComponentDrill
T1C0.0079
; #@! TA.AperFunction,Plated,PTH,ViaDrill
T2C0.0079
; #@! TA.AperFunction,Plated,PTH,ViaDrill
T3C0.0100
; #@! TA.AperFunction,Plated,PTH,ComponentDrill
T4C0.0276
; #@! TA.AperFunction,Plated,PTH,ComponentDrill
T5C0.0315
; #@! TA.AperFunction,Plated,PTH,ComponentDrill
T6C0.0394
; #@! TA.AperFunction,Plated,PTH,ComponentDrill
T7C0.0430
; #@! TA.AperFunction,Plated,PTH,ComponentDrill
T8C0.0472
%
G90
G05
T1
X5.8282Y-4.6019
X5.8282Y-4.6452
T2
X4.5098Y-5.5925
X4.7224Y-6.5433
X4.7289Y-6.1998
X4.738Y-6.3754
X4.7617Y-6.3091
X4.7815Y-6.3957
X4.8012Y-6.4094
X4.8012Y-6.4547
X4.8346Y-4.3937
X4.9075Y-5.6004
X4.9154Y-6.1571
X4.9154Y-6.2047
X4.9429Y-6.2697
X4.9547Y-7.4213
X5.0276Y-5.5551
X5.1609Y-5.6538
X5.2028Y-6.0472
X5.3031Y-6.2598
X6.0689Y-5.8799
T3
X3.9924Y-4.5007
X3.9965Y-6.4997
X4.0021Y-6.8687
X4.019Y-5.4511
X4.0456Y-5.7353
X4.0714Y-5.8799
X4.0893Y-4.9223
X4.1064Y-5.9057
X4.1354Y-5.1297
X4.1554Y-5.5766
X4.1661Y-5.6196
X4.1868Y-7.1452
X4.1877Y-5.4326
X4.1971Y-6.3644
X4.2056Y-6.5747
X4.2174Y-5.8172
X4.2224Y-6.815
X4.2287Y-6.4558
X4.2404Y-5.2185
X4.2404Y-5.4298
X4.2461Y-5.7675
X4.25Y-3.9606
X4.2583Y-4.3814
X4.2615Y-5.1334
X4.2743Y-7.4226
X4.2778Y-6.2799
X4.2847Y-6.326
X4.2875Y-4.7241
X4.2876Y-3.9887
X4.2905Y-6.4387
X4.2977Y-6.589
X4.3076Y-6.113
X4.3126Y-4.7597
X4.3244Y-6.1404
X4.3366Y-6.935
X4.3406Y-5.0906
X4.3522Y-4.9387
X4.363Y-7.1063
X4.3647Y-6.2584
X4.3655Y-6.1636
X4.3803Y-6.1208
X4.3957Y-6.7461
X4.3964Y-6.69
X4.4021Y-5.6675
X4.4101Y-6.2254
X4.4119Y-4.9024
X4.4213Y-5.1299
X4.4224Y-5.7598
X4.4287Y-5.6931
X4.4312Y-5.5321
X4.4319Y-6.213
X4.4332Y-5.5027
X4.4472Y-6.7547
X4.4487Y-6.6085
X4.4512Y-6.5664
X4.4737Y-6.6969
X4.4803Y-4.7185
X4.4829Y-5.733
X4.4937Y-6.4778
X4.5049Y-6.195
X4.5098Y-4.7205
X4.5124Y-7.2795
X4.5126Y-4.0652
X4.5131Y-6.3963
X4.5157Y-4.3074
X4.5201Y-6.1052
X4.5273Y-6.1896
X4.5295Y-6.8524
X4.532Y-4.6334
X4.5453Y-6.9218
X4.5472Y-5.0295
X4.5472Y-6.8327
X4.5542Y-6.1097
X4.5642Y-4.4765
X4.569Y-5.7842
X4.5692Y-6.4957
X4.5712Y-6.1397
X4.573Y-6.4695
X4.5733Y-6.3126
X4.5759Y-7.2311
X4.5818Y-5.4764
X4.5828Y-6.0736
X4.5842Y-6.2663
X4.5861Y-6.3477
X4.5891Y-5.6992
X4.5917Y-5.0795
X4.5984Y-6.1024
X4.603Y-5.8536
X4.6063Y-6.1437
X4.6124Y-5.7933
X4.6203Y-5.9859
X4.6403Y-4.7386
X4.6448Y-5.959
X4.645Y-5.5819
X4.6465Y-6.7546
X4.6485Y-5.6087
X4.6488Y-5.6419
X4.6496Y-4.498
X4.6546Y-5.9891
X4.6666Y-5.8518
X4.6689Y-7.0681
X4.6691Y-6.8606
X4.6737Y-5.1087
X4.6796Y-6.3081
X4.685Y-5.5728
X4.6869Y-6.8183
X4.6877Y-7.372
X4.6891Y-6.2871
X4.6909Y-6.5276
X4.7062Y-5.2108
X4.7064Y-7.0681
X4.7143Y-6.1836
X4.7208Y-4.8873
X4.724Y-6.9288
X4.7244Y-6.3996
X4.7259Y-5.9139
X4.7323Y-5.6063
X4.7334Y-6.3375
X4.7368Y-6.0004
X4.7375Y-6.0584
X4.7394Y-4.7706
X4.7441Y-4.6553
X4.7441Y-4.9409
X4.745Y-5.4547
X4.7585Y-6.0327
X4.7602Y-6.6029
X4.7628Y-6.2703
X4.7638Y-4.561
X4.7638Y-6.7659
X4.7692Y-4.6387
X4.7815Y-5.1673
X4.7883Y-6.2728
X4.7902Y-7.0636
X4.7913Y-6.3287
X4.7918Y-6.0316
X4.7961Y-4.3075
X4.7973Y-7.3974
X4.811Y-4.3583
X4.814Y-6.0376
X4.8242Y-4.7477
X4.8265Y-6.829
X4.8307Y-6.5413
X4.8312Y-6.7516
X4.8327Y-5.9193
X4.851Y-6.2127
X4.8556Y-4.8799
X4.8574Y-6.0482
X4.8583Y-4.9272
X4.8594Y-6.1559
X4.8622Y-6.374
X4.876Y-4.374
X4.878Y-6.2677
X4.8819Y-6.5039
X4.8878Y-6.313
X4.9002Y-5.196
X4.9204Y-5.0498
X4.9367Y-5.2351
X4.9541Y-4.7597
X4.9707Y-6.7933
X4.9712Y-5.9843
X4.9723Y-5.0376
X4.9738Y-4.9589
X4.9873Y-4.1598
X4.9879Y-4.1198
X4.9902Y-4.0862
X5.0021Y-5.1185
X5.0027Y-7.1742
X5.0059Y-5.2598
X5.0067Y-4.9323
X5.0162Y-6.0527
X5.0236Y-5.9488
X5.0276Y-4.8642
X5.032Y-6.6381
X5.0354Y-5.1988
X5.0472Y-4.7579
X5.0526Y-6.0517
X5.0601Y-6.8072
X5.0709Y-6.8996
X5.0754Y-4.122
X5.0871Y-4.9624
X5.0945Y-6.4587
X5.0948Y-6.798
X5.0954Y-4.3701
X5.1Y-6.7578
X5.1004Y-6.1929
X5.1055Y-5.0413
X5.1115Y-6.0538
X5.1167Y-4.5414
X5.122Y-4.5054
X5.122Y-4.7638
X5.1256Y-6.006
X5.1257Y-5.2638
X5.1274Y-5.3317
X5.1319Y-5.8622
X5.1358Y-5.6791
X5.1387Y-4.4491
X5.1398Y-5.5039
X5.1476Y-4.122
X5.1575Y-5.4488
X5.1605Y-5.2137
X5.1625Y-6.4302
X5.1635Y-6.2166
X5.1673Y-5.0335
X5.1697Y-7.0718
X5.1718Y-5.9656
X5.1772Y-4.9547
X5.1791Y-6.248
X5.1817Y-5.9144
X5.182Y-5.943
X5.187Y-6.4635
X5.191Y-4.5041
X5.1912Y-4.1176
X5.1963Y-6.7945
X5.2017Y-5.6152
X5.2096Y-6.7597
X5.2233Y-5.5728
X5.2236Y-5.2641
X5.2251Y-7.142
X5.2264Y-4.3957
X5.2288Y-6.7015
X5.2414Y-5.907
X5.2453Y-4.253
X5.248Y-7.378
X5.2635Y-5.652
X5.2672Y-5.0665
X5.2689Y-5.5489
X5.2754Y-6.7847
X5.2836Y-6.4077
X5.2886Y-6.5059
X5.293Y-6.1398
X5.2961Y-5.3769
X5.3022Y-6.2065
X5.3062Y-6.3888
X5.3106Y-6.0274
X5.3111Y-6.2982
X5.3126Y-5.0782
X5.3131Y-5.8833
X5.3165Y-6.8986
X5.3245Y-6.618
X5.3273Y-4.3709
X5.3289Y-5.498
X5.332Y-5.7865
X5.334Y-5.523
X5.3346Y-6.1063
X5.3349Y-4.9724
X5.3359Y-6.304
X5.3359Y-6.3484
X5.3504Y-6.0787
X5.3583Y-5.4331
X5.3609Y-6.1587
X5.364Y-5.9079
X5.3672Y-5.9704
X5.3695Y-4.5914
X5.3818Y-4.5449
X5.3898Y-6.6476
X5.3927Y-6.4261
X5.4059Y-6.4961
X5.4123Y-6.1455
X5.4173Y-5.3445
X5.4189Y-5.8799
X5.443Y-4.6771
X5.4531Y-6.7811
X5.4547Y-6.6988
X5.4646Y-4.9996
X5.4724Y-6.3799
X5.4783Y-6.2185
X5.4902Y-6.3335
X5.4926Y-7.2535
X5.4936Y-6.1834
X5.498Y-6.248
X5.5033Y-7.3941
X5.5112Y-6.2736
X5.5129Y-4.5056
X5.5157Y-6.3563
X5.539Y-7.2697
X5.5402Y-4.2786
X5.5515Y-7.1668
X5.5632Y-7.2875
X5.5752Y-4.5556
X5.5965Y-4.3012
X5.5989Y-6.2768
X5.6031Y-4.4601
X5.6227Y-6.818
X5.6269Y-7.0705
X5.6555Y-6.3728
X5.6571Y-6.7149
X5.6599Y-6.7923
X5.6699Y-6.0435
X5.6788Y-7.0617
X5.6811Y-5.3543
X5.6893Y-6.7601
X5.7028Y-4.9823
X5.7119Y-6.3874
X5.7205Y-6.5394
X5.7211Y-6.2103
X5.7324Y-6.8001
X5.7386Y-3.9979
X5.748Y-5.5492
X5.751Y-5.6563
X5.7589Y-4.4797
X5.7939Y-7.0545
X5.8092Y-3.9605
X5.8543Y-6.7835
X5.8608Y-6.8565
X5.874Y-5.8524
X5.8878Y-6.6058
X5.8976Y-6.3661
X5.9252Y-6.3661
X5.9434Y-6.7631
X5.9547Y-6.3681
X6.0028Y-4.6894
X6.0344Y-4.385
X6.0413Y-6.5512
X6.045Y-5.5983
X6.045Y-6.1588
X6.0886Y-7.1319
X6.0933Y-5.0415
X6.1046Y-6.4351
T4
X5.3487Y-7.181
X5.3487Y-7.244
X5.4176Y-7.1495
X5.4176Y-7.2125
X5.4176Y-7.2755
T5
X4.3055Y-4.2156
X4.3055Y-4.8156
X4.4055Y-4.2156
X4.4055Y-4.8156
X4.5055Y-4.2156
X4.5055Y-4.8156
X4.6055Y-4.2156
X4.6055Y-4.8156
X4.7055Y-4.2156
X4.7055Y-4.8156
X4.8055Y-4.2156
X4.8055Y-4.8156
X4.9055Y-4.2156
X4.9055Y-4.8156
X5.0055Y-4.2156
X5.0055Y-4.8156
X5.1055Y-4.2156
X5.1055Y-4.8156
X5.2055Y-4.2156
X5.2055Y-4.8156
X5.3055Y-4.2156
X5.3055Y-4.8156
X5.4055Y-4.2156
X5.4055Y-4.8156
T6
X4.3835Y-4.011
X4.4835Y-4.011
X4.5106Y-5.1591
X4.5106Y-5.3559
X4.5835Y-4.011
X4.6835Y-4.011
X4.7835Y-4.011
X4.8835Y-4.011
X4.9835Y-4.011
X5.0835Y-4.011
X5.1835Y-4.011
X5.2835Y-4.011
X5.3835Y-4.011
X5.4835Y-4.011
X5.5835Y-4.011
X5.6835Y-4.011
X5.9783Y-4.3319
X5.9783Y-4.4319
X5.9783Y-4.5319
X5.9783Y-4.6319
T7
X5.5266Y-4.8402
X5.5266Y-4.9402
X5.5266Y-5.0402
X5.5266Y-5.1402
T8
X5.9055Y-4.8327
X5.9055Y-4.9705
X5.9055Y-5.1083
X5.9055Y-5.2461
X5.9055Y-5.3839
X5.9055Y-5.5217
T4
G00X5.3575Y-7.0688
M15
G01X5.4087Y-7.0688
M16
G05
G00X5.3575Y-7.3562
M15
G01X5.4087Y-7.3562
M16
G05
M30
