%TF.GenerationSoftware,KiCad,Pcbnew,8.0.3-rc1-1000.20240525gitbe71f77.fc40*%
%TF.CreationDate,2024-05-30T08:30:57+10:00*%
%TF.ProjectId,l8-kicad,6c382d6b-6963-4616-942e-6b696361645f,R0.6.0*%
%TF.SameCoordinates,Original*%
%TF.FileFunction,Other,Comment*%
%FSLAX46Y46*%
G04 Gerber Fmt 4.6, Leading zero omitted, Abs format (unit mm)*
G04 Created by KiCad (PCBNEW 8.0.3-rc1-1000.20240525gitbe71f77.fc40) date 2024-05-30 08:30:57*
%MOMM*%
%LPD*%
G01*
G04 APERTURE LIST*
%ADD10C,0.070000*%
%ADD11C,0.150000*%
G04 APERTURE END LIST*
D10*
X127011904Y-140031407D02*
X127011904Y-139631407D01*
X127240475Y-140031407D02*
X127069046Y-139802836D01*
X127240475Y-139631407D02*
X127011904Y-139859979D01*
X127411904Y-139821883D02*
X127545237Y-139821883D01*
X127602380Y-140031407D02*
X127411904Y-140031407D01*
X127411904Y-140031407D02*
X127411904Y-139631407D01*
X127411904Y-139631407D02*
X127602380Y-139631407D01*
X127773809Y-139821883D02*
X127907142Y-139821883D01*
X127964285Y-140031407D02*
X127773809Y-140031407D01*
X127773809Y-140031407D02*
X127773809Y-139631407D01*
X127773809Y-139631407D02*
X127964285Y-139631407D01*
X128135714Y-140031407D02*
X128135714Y-139631407D01*
X128135714Y-139631407D02*
X128288095Y-139631407D01*
X128288095Y-139631407D02*
X128326190Y-139650455D01*
X128326190Y-139650455D02*
X128345237Y-139669502D01*
X128345237Y-139669502D02*
X128364285Y-139707598D01*
X128364285Y-139707598D02*
X128364285Y-139764740D01*
X128364285Y-139764740D02*
X128345237Y-139802836D01*
X128345237Y-139802836D02*
X128326190Y-139821883D01*
X128326190Y-139821883D02*
X128288095Y-139840931D01*
X128288095Y-139840931D02*
X128135714Y-139840931D01*
X128611904Y-139631407D02*
X128688095Y-139631407D01*
X128688095Y-139631407D02*
X128726190Y-139650455D01*
X128726190Y-139650455D02*
X128764285Y-139688550D01*
X128764285Y-139688550D02*
X128783333Y-139764740D01*
X128783333Y-139764740D02*
X128783333Y-139898074D01*
X128783333Y-139898074D02*
X128764285Y-139974264D01*
X128764285Y-139974264D02*
X128726190Y-140012360D01*
X128726190Y-140012360D02*
X128688095Y-140031407D01*
X128688095Y-140031407D02*
X128611904Y-140031407D01*
X128611904Y-140031407D02*
X128573809Y-140012360D01*
X128573809Y-140012360D02*
X128535714Y-139974264D01*
X128535714Y-139974264D02*
X128516666Y-139898074D01*
X128516666Y-139898074D02*
X128516666Y-139764740D01*
X128516666Y-139764740D02*
X128535714Y-139688550D01*
X128535714Y-139688550D02*
X128573809Y-139650455D01*
X128573809Y-139650455D02*
X128611904Y-139631407D01*
X128954762Y-139631407D02*
X128954762Y-139955217D01*
X128954762Y-139955217D02*
X128973809Y-139993312D01*
X128973809Y-139993312D02*
X128992857Y-140012360D01*
X128992857Y-140012360D02*
X129030952Y-140031407D01*
X129030952Y-140031407D02*
X129107143Y-140031407D01*
X129107143Y-140031407D02*
X129145238Y-140012360D01*
X129145238Y-140012360D02*
X129164285Y-139993312D01*
X129164285Y-139993312D02*
X129183333Y-139955217D01*
X129183333Y-139955217D02*
X129183333Y-139631407D01*
X129316667Y-139631407D02*
X129545238Y-139631407D01*
X129430952Y-140031407D02*
X129430952Y-139631407D01*
D11*
%TO.C,H1*%
X131250000Y-64400000D02*
G75*
G02*
X123250000Y-64400000I-4000000J0D01*
G01*
X123250000Y-64400000D02*
G75*
G02*
X131250000Y-64400000I4000000J0D01*
G01*
%TO.C,H3*%
X131000000Y-148150000D02*
G75*
G02*
X123000000Y-148150000I-4000000J0D01*
G01*
X123000000Y-148150000D02*
G75*
G02*
X131000000Y-148150000I4000000J0D01*
G01*
%TO.C,H2*%
X180050000Y-64500000D02*
G75*
G02*
X172050000Y-64500000I-4000000J0D01*
G01*
X172050000Y-64500000D02*
G75*
G02*
X180050000Y-64500000I4000000J0D01*
G01*
%TO.C,H4*%
X180200000Y-148000000D02*
G75*
G02*
X172200000Y-148000000I-4000000J0D01*
G01*
X172200000Y-148000000D02*
G75*
G02*
X180200000Y-148000000I4000000J0D01*
G01*
%TD*%
M02*
