%TF.GenerationSoftware,KiCad,Pcbnew,8.0.3-unknown-1000.20240604git093da7f.fc40*%
%TF.CreationDate,2024-06-05T17:15:31+10:00*%
%TF.ProjectId,l8-kicad,6c382d6b-6963-4616-942e-6b696361645f,1.00*%
%TF.SameCoordinates,Original*%
%TF.FileFunction,Soldermask,Bot*%
%TF.FilePolarity,Negative*%
%FSLAX46Y46*%
G04 Gerber Fmt 4.6, Leading zero omitted, Abs format (unit mm)*
G04 Created by KiCad (PCBNEW 8.0.3-unknown-1000.20240604git093da7f.fc40) date 2024-06-05 17:15:31*
%MOMM*%
%LPD*%
G01*
G04 APERTURE LIST*
G04 Aperture macros list*
%AMRoundRect*
0 Rectangle with rounded corners*
0 $1 Rounding radius*
0 $2 $3 $4 $5 $6 $7 $8 $9 X,Y pos of 4 corners*
0 Add a 4 corners polygon primitive as box body*
4,1,4,$2,$3,$4,$5,$6,$7,$8,$9,$2,$3,0*
0 Add four circle primitives for the rounded corners*
1,1,$1+$1,$2,$3*
1,1,$1+$1,$4,$5*
1,1,$1+$1,$6,$7*
1,1,$1+$1,$8,$9*
0 Add four rect primitives between the rounded corners*
20,1,$1+$1,$2,$3,$4,$5,0*
20,1,$1+$1,$4,$5,$6,$7,0*
20,1,$1+$1,$6,$7,$8,$9,0*
20,1,$1+$1,$8,$9,$2,$3,0*%
G04 Aperture macros list end*
%ADD10RoundRect,0.000076X0.550000X0.550000X-0.550000X0.550000X-0.550000X-0.550000X0.550000X-0.550000X0*%
%ADD11C,1.100152*%
%ADD12O,1.100152X2.400152*%
%ADD13C,0.990752*%
%ADD14C,1.600352*%
%ADD15RoundRect,0.000076X0.850000X-0.850000X0.850000X0.850000X-0.850000X0.850000X-0.850000X-0.850000X0*%
%ADD16O,1.700152X1.700152*%
%ADD17RoundRect,0.000076X-0.850000X-0.850000X0.850000X-0.850000X0.850000X0.850000X-0.850000X0.850000X0*%
%ADD18RoundRect,0.000076X-0.800000X0.800000X-0.800000X-0.800000X0.800000X-0.800000X0.800000X0.800000X0*%
%ADD19O,1.600152X1.600152*%
%ADD20C,4.000152*%
%ADD21RoundRect,0.000076X1.200000X-1.200000X1.200000X1.200000X-1.200000X1.200000X-1.200000X-1.200000X0*%
%ADD22C,2.400152*%
%ADD23RoundRect,0.000076X1.000000X1.000000X-1.000000X1.000000X-1.000000X-1.000000X1.000000X-1.000000X0*%
%ADD24C,2.000152*%
G04 APERTURE END LIST*
D10*
%TO.C,J1*%
X195600000Y-106475000D03*
D11*
X194800000Y-108225000D03*
X194000000Y-106475000D03*
X193200000Y-108225000D03*
X192400000Y-106475000D03*
D12*
X197650000Y-107350000D03*
X190350000Y-107350000D03*
%TD*%
D13*
%TO.C,J7*%
X66785000Y-191210000D03*
X67801000Y-196290000D03*
X65769000Y-196290000D03*
%TD*%
D14*
%TO.C,U1*%
X145440000Y-113225000D03*
X147980000Y-113225000D03*
X150520000Y-113225000D03*
X153060000Y-113225000D03*
%TD*%
D15*
%TO.C,J2*%
X111340000Y-101880000D03*
D16*
X113880000Y-101880000D03*
X116420000Y-101880000D03*
X118960000Y-101880000D03*
X121500000Y-101880000D03*
X124040000Y-101880000D03*
X126580000Y-101880000D03*
X129120000Y-101880000D03*
X131660000Y-101880000D03*
X134200000Y-101880000D03*
X136740000Y-101880000D03*
X139280000Y-101880000D03*
X141820000Y-101880000D03*
X144360000Y-101880000D03*
%TD*%
D17*
%TO.C,PS1*%
X102750000Y-110750000D03*
D16*
X102750000Y-113290000D03*
X102750000Y-115830000D03*
X102750000Y-118370000D03*
%TD*%
D18*
%TO.C,U4*%
X137349100Y-105250000D03*
D19*
X134809100Y-105250000D03*
X132269100Y-105250000D03*
X129729100Y-105250000D03*
X127189100Y-105250000D03*
X124649100Y-105250000D03*
X122109100Y-105250000D03*
X119569100Y-105250000D03*
X117029100Y-105250000D03*
X114489100Y-105250000D03*
X111949100Y-105250000D03*
X109409100Y-105250000D03*
X109409100Y-120490000D03*
X111949100Y-120490000D03*
X114489100Y-120490000D03*
X117029100Y-120490000D03*
X119569100Y-120490000D03*
X122109100Y-120490000D03*
X124649100Y-120490000D03*
X127189100Y-120490000D03*
X129729100Y-120490000D03*
X132269100Y-120490000D03*
X134809100Y-120490000D03*
X137349100Y-120490000D03*
%TD*%
D20*
%TO.C,H3*%
X103250000Y-186500000D03*
%TD*%
%TO.C,H2*%
X152250000Y-103000000D03*
%TD*%
%TO.C,H4*%
X152250000Y-186500000D03*
%TD*%
D21*
%TO.C,J3*%
X150000000Y-140250000D03*
D22*
X150000000Y-136750000D03*
X150000000Y-133250000D03*
X150000000Y-129750000D03*
X150000000Y-126250000D03*
X150000000Y-122750000D03*
%TD*%
D20*
%TO.C,H1*%
X103250000Y-103000000D03*
%TD*%
D23*
%TO.C,BZ1*%
X147200000Y-242850000D03*
D24*
X142200000Y-242850000D03*
%TD*%
M02*
