M48
; DRILL file {KiCad 8.0.3-unknown-1000.20240604git093da7f.fc40} date 2024-06-05T17:15:31+1000
; FORMAT={-:-/ absolute / inch / decimal}
; #@! TF.CreationDate,2024-06-05T17:15:31+10:00
; #@! TF.GenerationSoftware,Kicad,Pcbnew,8.0.3-unknown-1000.20240604git093da7f.fc40
; #@! TF.FileFunction,Plated,1,4,PTH
FMAT,2
INCH
; #@! TA.AperFunction,Plated,PTH,ComponentDrill
T1C0.0079
; #@! TA.AperFunction,Plated,PTH,ComponentDrill
T2C0.0276
; #@! TA.AperFunction,Plated,PTH,ComponentDrill
T3C0.0315
; #@! TA.AperFunction,Plated,PTH,ComponentDrill
T4C0.0394
; #@! TA.AperFunction,Plated,PTH,ComponentDrill
T5C0.0430
; #@! TA.AperFunction,Plated,PTH,ComponentDrill
T6C0.0472
%
G90
G05
T1
X5.5536Y-4.5664
X5.5536Y-4.6097
T2
X7.5748Y-4.1919
X7.6063Y-4.2608
X7.6378Y-4.1919
X7.6693Y-4.2608
X7.7008Y-4.1919
T3
X4.3074Y-4.1437
X4.3074Y-4.7437
X4.4074Y-4.1437
X4.4074Y-4.7437
X4.5074Y-4.1437
X4.5074Y-4.7437
X4.6074Y-4.1437
X4.6074Y-4.7437
X4.7074Y-4.1437
X4.7074Y-4.7437
X4.8074Y-4.1437
X4.8074Y-4.7437
X4.9074Y-4.1437
X4.9074Y-4.7437
X5.0074Y-4.1437
X5.0074Y-4.7437
X5.1074Y-4.1437
X5.1074Y-4.7437
X5.2074Y-4.1437
X5.2074Y-4.7437
X5.3074Y-4.1437
X5.3074Y-4.7437
X5.4074Y-4.1437
X5.4074Y-4.7437
T4
X4.0453Y-4.3602
X4.0453Y-4.4602
X4.0453Y-4.5602
X4.0453Y-4.6602
X4.3835Y-4.011
X4.4835Y-4.011
X4.5835Y-4.011
X4.6835Y-4.011
X4.7835Y-4.011
X4.8835Y-4.011
X4.9835Y-4.011
X5.0835Y-4.011
X5.1835Y-4.011
X5.2835Y-4.011
X5.3835Y-4.011
X5.4835Y-4.011
X5.5835Y-4.011
X5.5984Y-9.561
X5.6835Y-4.011
X5.7953Y-9.561
T5
X5.726Y-4.4577
X5.826Y-4.4577
X5.926Y-4.4577
X6.026Y-4.4577
T6
X5.9055Y-4.8327
X5.9055Y-4.9705
X5.9055Y-5.1083
X5.9055Y-5.2461
X5.9055Y-5.3839
X5.9055Y-5.5217
T2
G00X7.4941Y-4.252
M15
G01X7.4941Y-4.2008
M16
G05
G00X7.7815Y-4.252
M15
G01X7.7815Y-4.2008
M16
G05
M30
