%TF.GenerationSoftware,KiCad,Pcbnew,8.0.3-unknown-1000.20240604git093da7f.fc40*%
%TF.CreationDate,2024-06-05T17:15:31+10:00*%
%TF.ProjectId,l8-kicad,6c382d6b-6963-4616-942e-6b696361645f,1.00*%
%TF.SameCoordinates,Original*%
%TF.FileFunction,Soldermask,Top*%
%TF.FilePolarity,Negative*%
%FSLAX46Y46*%
G04 Gerber Fmt 4.6, Leading zero omitted, Abs format (unit mm)*
G04 Created by KiCad (PCBNEW 8.0.3-unknown-1000.20240604git093da7f.fc40) date 2024-06-05 17:15:31*
%MOMM*%
%LPD*%
G01*
G04 APERTURE LIST*
G04 Aperture macros list*
%AMRoundRect*
0 Rectangle with rounded corners*
0 $1 Rounding radius*
0 $2 $3 $4 $5 $6 $7 $8 $9 X,Y pos of 4 corners*
0 Add a 4 corners polygon primitive as box body*
4,1,4,$2,$3,$4,$5,$6,$7,$8,$9,$2,$3,0*
0 Add four circle primitives for the rounded corners*
1,1,$1+$1,$2,$3*
1,1,$1+$1,$4,$5*
1,1,$1+$1,$6,$7*
1,1,$1+$1,$8,$9*
0 Add four rect primitives between the rounded corners*
20,1,$1+$1,$2,$3,$4,$5,0*
20,1,$1+$1,$4,$5,$6,$7,0*
20,1,$1+$1,$6,$7,$8,$9,0*
20,1,$1+$1,$8,$9,$2,$3,0*%
G04 Aperture macros list end*
%ADD10C,0.000000*%
%ADD11RoundRect,0.225038X-0.225038X-0.375038X0.225038X-0.375038X0.225038X0.375038X-0.225038X0.375038X0*%
%ADD12RoundRect,0.100038X-0.225038X-0.100038X0.225038X-0.100038X0.225038X0.100038X-0.225038X0.100038X0*%
%ADD13RoundRect,0.200038X-0.200038X-0.275038X0.200038X-0.275038X0.200038X0.275038X-0.200038X0.275038X0*%
%ADD14RoundRect,0.000076X0.550000X0.550000X-0.550000X0.550000X-0.550000X-0.550000X0.550000X-0.550000X0*%
%ADD15C,1.100152*%
%ADD16O,1.100152X2.400152*%
%ADD17RoundRect,0.000076X-1.000000X-1.200000X1.000000X-1.200000X1.000000X1.200000X-1.000000X1.200000X0*%
%ADD18RoundRect,0.200038X0.275038X-0.200038X0.275038X0.200038X-0.275038X0.200038X-0.275038X-0.200038X0*%
%ADD19RoundRect,0.225038X0.250038X-0.225038X0.250038X0.225038X-0.250038X0.225038X-0.250038X-0.225038X0*%
%ADD20RoundRect,0.000076X0.375000X-0.500000X0.375000X0.500000X-0.375000X0.500000X-0.375000X-0.500000X0*%
%ADD21RoundRect,0.075038X-0.075038X0.125038X-0.075038X-0.125038X0.075038X-0.125038X0.075038X0.125038X0*%
%ADD22C,0.990752*%
%ADD23C,0.787552*%
%ADD24RoundRect,0.225038X-0.225038X-0.250038X0.225038X-0.250038X0.225038X0.250038X-0.225038X0.250038X0*%
%ADD25C,1.600352*%
%ADD26RoundRect,0.225038X-0.250038X0.225038X-0.250038X-0.225038X0.250038X-0.225038X0.250038X0.225038X0*%
%ADD27RoundRect,0.100038X-0.100038X0.130038X-0.100038X-0.130038X0.100038X-0.130038X0.100038X0.130038X0*%
%ADD28RoundRect,0.225038X0.225038X0.250038X-0.225038X0.250038X-0.225038X-0.250038X0.225038X-0.250038X0*%
%ADD29C,1.000152*%
%ADD30RoundRect,0.075038X-0.125038X-0.075038X0.125038X-0.075038X0.125038X0.075038X-0.125038X0.075038X0*%
%ADD31RoundRect,0.150038X-0.587538X-0.150038X0.587538X-0.150038X0.587538X0.150038X-0.587538X0.150038X0*%
%ADD32RoundRect,0.150038X-0.825038X-0.150038X0.825038X-0.150038X0.825038X0.150038X-0.825038X0.150038X0*%
%ADD33RoundRect,0.075038X-0.075038X0.725038X-0.075038X-0.725038X0.075038X-0.725038X0.075038X0.725038X0*%
%ADD34RoundRect,0.075038X-0.725038X0.075038X-0.725038X-0.075038X0.725038X-0.075038X0.725038X0.075038X0*%
%ADD35RoundRect,0.200038X-0.275038X0.200038X-0.275038X-0.200038X0.275038X-0.200038X0.275038X0.200038X0*%
%ADD36RoundRect,0.000076X0.850000X-0.850000X0.850000X0.850000X-0.850000X0.850000X-0.850000X-0.850000X0*%
%ADD37O,1.700152X1.700152*%
%ADD38RoundRect,0.000076X-0.850000X-0.850000X0.850000X-0.850000X0.850000X0.850000X-0.850000X0.850000X0*%
%ADD39RoundRect,0.218788X0.256288X-0.218788X0.256288X0.218788X-0.256288X0.218788X-0.256288X-0.218788X0*%
%ADD40RoundRect,0.000076X-0.800000X0.800000X-0.800000X-0.800000X0.800000X-0.800000X0.800000X0.800000X0*%
%ADD41O,1.600152X1.600152*%
%ADD42RoundRect,0.000076X1.397000X-0.381000X1.397000X0.381000X-1.397000X0.381000X-1.397000X-0.381000X0*%
%ADD43RoundRect,0.000076X0.400000X0.250000X-0.400000X0.250000X-0.400000X-0.250000X0.400000X-0.250000X0*%
%ADD44RoundRect,0.000076X0.400000X0.200000X-0.400000X0.200000X-0.400000X-0.200000X0.400000X-0.200000X0*%
%ADD45RoundRect,0.250038X-0.250038X-0.475038X0.250038X-0.475038X0.250038X0.475038X-0.250038X0.475038X0*%
%ADD46RoundRect,0.218788X-0.218788X-0.256288X0.218788X-0.256288X0.218788X0.256288X-0.218788X0.256288X0*%
%ADD47RoundRect,0.250015X1.000061X-1.400061X1.000061X1.400061X-1.000061X1.400061X-1.000061X-1.400061X0*%
%ADD48RoundRect,0.150038X0.587538X0.150038X-0.587538X0.150038X-0.587538X-0.150038X0.587538X-0.150038X0*%
%ADD49C,4.000152*%
%ADD50RoundRect,0.250037X0.450039X-0.262539X0.450039X0.262539X-0.450039X0.262539X-0.450039X-0.262539X0*%
%ADD51RoundRect,0.000076X-0.254000X-0.698500X0.254000X-0.698500X0.254000X0.698500X-0.254000X0.698500X0*%
%ADD52RoundRect,0.000076X-0.025400X-0.025400X0.025400X-0.025400X0.025400X0.025400X-0.025400X0.025400X0*%
%ADD53RoundRect,0.000076X0.025400X-0.025400X0.025400X0.025400X-0.025400X0.025400X-0.025400X-0.025400X0*%
%ADD54RoundRect,0.000076X0.355600X-0.254000X0.355600X0.254000X-0.355600X0.254000X-0.355600X-0.254000X0*%
%ADD55RoundRect,0.000076X-0.254000X-0.355600X0.254000X-0.355600X0.254000X0.355600X-0.254000X0.355600X0*%
%ADD56RoundRect,0.250038X0.250038X0.475038X-0.250038X0.475038X-0.250038X-0.475038X0.250038X-0.475038X0*%
%ADD57RoundRect,0.075038X0.075038X-0.125038X0.075038X0.125038X-0.075038X0.125038X-0.075038X-0.125038X0*%
%ADD58RoundRect,0.093788X-0.093788X-0.106288X0.093788X-0.106288X0.093788X0.106288X-0.093788X0.106288X0*%
%ADD59RoundRect,0.000076X-0.500000X-0.800000X0.500000X-0.800000X0.500000X0.800000X-0.500000X0.800000X0*%
%ADD60RoundRect,0.000076X1.200000X-1.200000X1.200000X1.200000X-1.200000X1.200000X-1.200000X-1.200000X0*%
%ADD61C,2.400152*%
%ADD62RoundRect,0.200038X0.200038X0.275038X-0.200038X0.275038X-0.200038X-0.275038X0.200038X-0.275038X0*%
%ADD63RoundRect,0.000076X1.000000X1.000000X-1.000000X1.000000X-1.000000X-1.000000X1.000000X-1.000000X0*%
%ADD64C,2.000152*%
G04 APERTURE END LIST*
D10*
%TO.C,U5*%
G36*
X124060900Y-111672660D02*
G01*
X124060900Y-112002860D01*
X123349700Y-112002860D01*
X123349700Y-111494860D01*
X123883100Y-111494860D01*
X124060900Y-111672660D01*
G37*
G36*
X124060900Y-114827340D02*
G01*
X123883100Y-115005140D01*
X123349700Y-115005140D01*
X123349700Y-114497140D01*
X124060900Y-114497140D01*
X124060900Y-114827340D01*
G37*
G36*
X124502860Y-111560900D02*
G01*
X124172660Y-111560900D01*
X123994860Y-111383100D01*
X123994860Y-110849700D01*
X124502860Y-110849700D01*
X124502860Y-111560900D01*
G37*
G36*
X124502860Y-115650300D02*
G01*
X123994860Y-115650300D01*
X123994860Y-115116900D01*
X124172660Y-114939100D01*
X124502860Y-114939100D01*
X124502860Y-115650300D01*
G37*
G36*
X127505140Y-111383100D02*
G01*
X127327340Y-111560900D01*
X126997140Y-111560900D01*
X126997140Y-110849700D01*
X127505140Y-110849700D01*
X127505140Y-111383100D01*
G37*
G36*
X127505140Y-115116900D02*
G01*
X127505140Y-115650300D01*
X126997140Y-115650300D01*
X126997140Y-114939100D01*
X127327340Y-114939100D01*
X127505140Y-115116900D01*
G37*
G36*
X128150300Y-112002860D02*
G01*
X127439100Y-112002860D01*
X127439100Y-111672660D01*
X127616900Y-111494860D01*
X128150300Y-111494860D01*
X128150300Y-112002860D01*
G37*
G36*
X128150300Y-115005140D02*
G01*
X127616900Y-115005140D01*
X127439100Y-114827340D01*
X127439100Y-114497140D01*
X128150300Y-114497140D01*
X128150300Y-115005140D01*
G37*
%TD*%
D11*
%TO.C,D17*%
X135100000Y-231600000D03*
X138400000Y-231600000D03*
%TD*%
D12*
%TO.C,D16*%
X114100000Y-201350000D03*
X114100000Y-202000000D03*
X114100000Y-202650000D03*
X116000000Y-202650000D03*
X116000000Y-202000000D03*
X116000000Y-201350000D03*
%TD*%
D13*
%TO.C,R47*%
X53500000Y-197200000D03*
X55150000Y-197200000D03*
%TD*%
%TO.C,R48*%
X193200000Y-114275000D03*
X194850000Y-114275000D03*
%TD*%
%TO.C,R45*%
X51500000Y-208950000D03*
X53150000Y-208950000D03*
%TD*%
D14*
%TO.C,J1*%
X195600000Y-106475000D03*
D15*
X194800000Y-108225000D03*
X194000000Y-106475000D03*
X193200000Y-108225000D03*
X192400000Y-106475000D03*
D16*
X197650000Y-107350000D03*
X190350000Y-107350000D03*
%TD*%
D17*
%TO.C,X1*%
X121950000Y-142000000D03*
X125650000Y-142000000D03*
%TD*%
D18*
%TO.C,R43*%
X97850000Y-246750000D03*
X97850000Y-245100000D03*
%TD*%
D19*
%TO.C,C20*%
X66450000Y-135825000D03*
X66450000Y-134275000D03*
%TD*%
D20*
%TO.C,SW1*%
X60900000Y-150750000D03*
X60900000Y-144750000D03*
X64650000Y-150750000D03*
X64650000Y-144750000D03*
%TD*%
D21*
%TO.C,C30*%
X127175000Y-149900000D03*
X127175000Y-150400000D03*
%TD*%
D22*
%TO.C,J7*%
X66785000Y-191210000D03*
X67801000Y-196290000D03*
X65769000Y-196290000D03*
D23*
X66150000Y-192480000D03*
X67420000Y-192480000D03*
X66150000Y-193750000D03*
X67420000Y-193750000D03*
X66150000Y-195020000D03*
X67420000Y-195020000D03*
%TD*%
D24*
%TO.C,C29*%
X89300000Y-171350000D03*
X90850000Y-171350000D03*
%TD*%
D25*
%TO.C,U1*%
X145440000Y-113225000D03*
X147980000Y-113225000D03*
X150520000Y-113225000D03*
X153060000Y-113225000D03*
%TD*%
D26*
%TO.C,C23*%
X90550000Y-178000000D03*
X90550000Y-179550000D03*
%TD*%
D27*
%TO.C,FB1*%
X102350000Y-261935000D03*
X102350000Y-262575000D03*
%TD*%
D18*
%TO.C,R13*%
X90950000Y-220100000D03*
X90950000Y-218450000D03*
%TD*%
D28*
%TO.C,C5*%
X141725000Y-109400000D03*
X140175000Y-109400000D03*
%TD*%
D29*
%TO.C,TP4*%
X222750000Y-169250000D03*
%TD*%
D30*
%TO.C,C6*%
X190275000Y-111975000D03*
X190775000Y-111975000D03*
%TD*%
%TO.C,C16*%
X129125000Y-170950000D03*
X129625000Y-170950000D03*
%TD*%
%TO.C,C3*%
X125675000Y-119700000D03*
X126175000Y-119700000D03*
%TD*%
D29*
%TO.C,TP3*%
X240800000Y-175550000D03*
%TD*%
%TO.C,TP34*%
X246150000Y-163750000D03*
%TD*%
%TO.C,TP31*%
X246150000Y-154600000D03*
%TD*%
%TO.C,TP30*%
X246150000Y-151550000D03*
%TD*%
%TO.C,TP22*%
X243100000Y-151550000D03*
%TD*%
%TO.C,TP9*%
X237000000Y-154600000D03*
%TD*%
%TO.C,TP1*%
X222750000Y-175000000D03*
%TD*%
D31*
%TO.C,Q5*%
X155050000Y-206300000D03*
X155050000Y-208200000D03*
X156925000Y-207250000D03*
%TD*%
D29*
%TO.C,TP17*%
X240050000Y-157650000D03*
%TD*%
D26*
%TO.C,C1*%
X96950000Y-170175000D03*
X96950000Y-171725000D03*
%TD*%
D29*
%TO.C,TP39*%
X249200000Y-157650000D03*
%TD*%
D32*
%TO.C,U2*%
X145525000Y-115595000D03*
X145525000Y-116865000D03*
X145525000Y-118135000D03*
X145525000Y-119405000D03*
X150475000Y-119405000D03*
X150475000Y-118135000D03*
X150475000Y-116865000D03*
X150475000Y-115595000D03*
%TD*%
D33*
%TO.C,U3*%
X129650000Y-153075000D03*
X129150000Y-153075000D03*
X128650000Y-153075000D03*
X128150000Y-153075000D03*
X127650000Y-153075000D03*
X127150000Y-153075000D03*
X126650000Y-153075000D03*
X126150000Y-153075000D03*
X125650000Y-153075000D03*
X125150000Y-153075000D03*
X124650000Y-153075000D03*
X124150000Y-153075000D03*
X123650000Y-153075000D03*
X123150000Y-153075000D03*
X122650000Y-153075000D03*
X122150000Y-153075000D03*
X121650000Y-153075000D03*
X121150000Y-153075000D03*
X120650000Y-153075000D03*
X120150000Y-153075000D03*
X119650000Y-153075000D03*
X119150000Y-153075000D03*
X118650000Y-153075000D03*
X118150000Y-153075000D03*
X117650000Y-153075000D03*
D34*
X115975000Y-154750000D03*
X115975000Y-155250000D03*
X115975000Y-155750000D03*
X115975000Y-156250000D03*
X115975000Y-156750000D03*
X115975000Y-157250000D03*
X115975000Y-157750000D03*
X115975000Y-158250000D03*
X115975000Y-158750000D03*
X115975000Y-159250000D03*
X115975000Y-159750000D03*
X115975000Y-160250000D03*
X115975000Y-160750000D03*
X115975000Y-161250000D03*
X115975000Y-161750000D03*
X115975000Y-162250000D03*
X115975000Y-162750000D03*
X115975000Y-163250000D03*
X115975000Y-163750000D03*
X115975000Y-164250000D03*
X115975000Y-164750000D03*
X115975000Y-165250000D03*
X115975000Y-165750000D03*
X115975000Y-166250000D03*
X115975000Y-166750000D03*
D33*
X117650000Y-168425000D03*
X118150000Y-168425000D03*
X118650000Y-168425000D03*
X119150000Y-168425000D03*
X119650000Y-168425000D03*
X120150000Y-168425000D03*
X120650000Y-168425000D03*
X121150000Y-168425000D03*
X121650000Y-168425000D03*
X122150000Y-168425000D03*
X122650000Y-168425000D03*
X123150000Y-168425000D03*
X123650000Y-168425000D03*
X124150000Y-168425000D03*
X124650000Y-168425000D03*
X125150000Y-168425000D03*
X125650000Y-168425000D03*
X126150000Y-168425000D03*
X126650000Y-168425000D03*
X127150000Y-168425000D03*
X127650000Y-168425000D03*
X128150000Y-168425000D03*
X128650000Y-168425000D03*
X129150000Y-168425000D03*
X129650000Y-168425000D03*
D34*
X131325000Y-166750000D03*
X131325000Y-166250000D03*
X131325000Y-165750000D03*
X131325000Y-165250000D03*
X131325000Y-164750000D03*
X131325000Y-164250000D03*
X131325000Y-163750000D03*
X131325000Y-163250000D03*
X131325000Y-162750000D03*
X131325000Y-162250000D03*
X131325000Y-161750000D03*
X131325000Y-161250000D03*
X131325000Y-160750000D03*
X131325000Y-160250000D03*
X131325000Y-159750000D03*
X131325000Y-159250000D03*
X131325000Y-158750000D03*
X131325000Y-158250000D03*
X131325000Y-157750000D03*
X131325000Y-157250000D03*
X131325000Y-156750000D03*
X131325000Y-156250000D03*
X131325000Y-155750000D03*
X131325000Y-155250000D03*
X131325000Y-154750000D03*
%TD*%
D35*
%TO.C,R3*%
X110000000Y-116175000D03*
X110000000Y-117825000D03*
%TD*%
D29*
%TO.C,TP21*%
X240050000Y-169850000D03*
%TD*%
D35*
%TO.C,R39*%
X137250000Y-107425000D03*
X137250000Y-109075000D03*
%TD*%
D36*
%TO.C,J2*%
X111340000Y-101880000D03*
D37*
X113880000Y-101880000D03*
X116420000Y-101880000D03*
X118960000Y-101880000D03*
X121500000Y-101880000D03*
X124040000Y-101880000D03*
X126580000Y-101880000D03*
X129120000Y-101880000D03*
X131660000Y-101880000D03*
X134200000Y-101880000D03*
X136740000Y-101880000D03*
X139280000Y-101880000D03*
X141820000Y-101880000D03*
X144360000Y-101880000D03*
%TD*%
D30*
%TO.C,C4*%
X140750000Y-113550000D03*
X141250000Y-113550000D03*
%TD*%
D29*
%TO.C,TP12*%
X237000000Y-163750000D03*
%TD*%
D38*
%TO.C,PS1*%
X102750000Y-110750000D03*
D37*
X102750000Y-113290000D03*
X102750000Y-115830000D03*
X102750000Y-118370000D03*
%TD*%
D35*
%TO.C,R10*%
X181721140Y-221293400D03*
X181721140Y-222943400D03*
%TD*%
D39*
%TO.C,D4*%
X117050000Y-188375000D03*
X117050000Y-186800000D03*
%TD*%
D29*
%TO.C,TP32*%
X246150000Y-157650000D03*
%TD*%
%TO.C,TP40*%
X249200000Y-160700000D03*
%TD*%
D40*
%TO.C,U4*%
X137349100Y-105250000D03*
D41*
X134809100Y-105250000D03*
X132269100Y-105250000D03*
X129729100Y-105250000D03*
X127189100Y-105250000D03*
X124649100Y-105250000D03*
X122109100Y-105250000D03*
X119569100Y-105250000D03*
X117029100Y-105250000D03*
X114489100Y-105250000D03*
X111949100Y-105250000D03*
X109409100Y-105250000D03*
X109409100Y-120490000D03*
X111949100Y-120490000D03*
X114489100Y-120490000D03*
X117029100Y-120490000D03*
X119569100Y-120490000D03*
X122109100Y-120490000D03*
X124649100Y-120490000D03*
X127189100Y-120490000D03*
X129729100Y-120490000D03*
X132269100Y-120490000D03*
X134809100Y-120490000D03*
X137349100Y-120490000D03*
%TD*%
D42*
%TO.C,J4*%
X64914000Y-163850000D03*
X60850000Y-163850000D03*
X64914000Y-165120000D03*
X60850000Y-165120000D03*
X64914000Y-166390000D03*
X60850000Y-166390000D03*
X64914000Y-167660000D03*
X60850000Y-167660000D03*
X64914000Y-168930000D03*
X60850000Y-168930000D03*
X64914000Y-170200000D03*
X60850000Y-170200000D03*
X64914000Y-171470000D03*
X60850000Y-171470000D03*
%TD*%
D43*
%TO.C,RN2*%
X60550000Y-209150000D03*
D44*
X60550000Y-208350000D03*
X60550000Y-207550000D03*
D43*
X60550000Y-206750000D03*
X58750000Y-206750000D03*
D44*
X58750000Y-207550000D03*
X58750000Y-208350000D03*
D43*
X58750000Y-209150000D03*
%TD*%
D21*
%TO.C,C12*%
X112975000Y-155300000D03*
X112975000Y-155800000D03*
%TD*%
D29*
%TO.C,TP38*%
X249200000Y-154600000D03*
%TD*%
D24*
%TO.C,C14*%
X121375000Y-145250000D03*
X122925000Y-145250000D03*
%TD*%
D29*
%TO.C,TP35*%
X246150000Y-166800000D03*
%TD*%
D13*
%TO.C,R33*%
X129500000Y-204500000D03*
X131150000Y-204500000D03*
%TD*%
D20*
%TO.C,SW2*%
X70475000Y-134650000D03*
X70475000Y-128650000D03*
X74225000Y-134650000D03*
X74225000Y-128650000D03*
%TD*%
D29*
%TO.C,TP2*%
X226250000Y-173500000D03*
%TD*%
D45*
%TO.C,C7*%
X140000000Y-111600000D03*
X141900000Y-111600000D03*
%TD*%
D29*
%TO.C,TP10*%
X237000000Y-157650000D03*
%TD*%
%TO.C,TP8*%
X237000000Y-151550000D03*
%TD*%
D35*
%TO.C,R38*%
X121000000Y-107425000D03*
X121000000Y-109075000D03*
%TD*%
%TO.C,R37*%
X115812500Y-107425000D03*
X115812500Y-109075000D03*
%TD*%
D30*
%TO.C,C2*%
X125350000Y-117850000D03*
X125850000Y-117850000D03*
%TD*%
D29*
%TO.C,TP27*%
X243100000Y-163750000D03*
%TD*%
%TO.C,TP20*%
X240050000Y-166800000D03*
%TD*%
D31*
%TO.C,Q4*%
X114062500Y-116300000D03*
X114062500Y-118200000D03*
X115937500Y-117250000D03*
%TD*%
D13*
%TO.C,R2*%
X141000000Y-199500000D03*
X142650000Y-199500000D03*
%TD*%
%TO.C,R12*%
X99850000Y-203500000D03*
X101500000Y-203500000D03*
%TD*%
D29*
%TO.C,TP18*%
X240050000Y-160700000D03*
%TD*%
%TO.C,TP16*%
X240050000Y-154600000D03*
%TD*%
%TO.C,TP25*%
X243100000Y-157650000D03*
%TD*%
D46*
%TO.C,D1*%
X101475000Y-124150000D03*
X103050000Y-124150000D03*
%TD*%
D29*
%TO.C,TP5*%
X235550000Y-174650000D03*
%TD*%
%TO.C,TP7*%
X232500000Y-167750000D03*
%TD*%
D18*
%TO.C,R35*%
X61720000Y-132665000D03*
X61720000Y-131015000D03*
%TD*%
D30*
%TO.C,C11*%
X120125000Y-150450000D03*
X120625000Y-150450000D03*
%TD*%
D35*
%TO.C,R7*%
X122050000Y-123225000D03*
X122050000Y-124875000D03*
%TD*%
D47*
%TO.C,D2*%
X119150000Y-242550000D03*
X125950000Y-242550000D03*
%TD*%
D48*
%TO.C,Q1*%
X137000000Y-117900000D03*
X137000000Y-116000000D03*
X135125000Y-116950000D03*
%TD*%
D30*
%TO.C,C15*%
X112450000Y-166850000D03*
X112950000Y-166850000D03*
%TD*%
D13*
%TO.C,R32*%
X138500000Y-208750000D03*
X140150000Y-208750000D03*
%TD*%
D46*
%TO.C,D10*%
X196412500Y-112275000D03*
X197987500Y-112275000D03*
%TD*%
D49*
%TO.C,H3*%
X103250000Y-186500000D03*
%TD*%
D13*
%TO.C,R36*%
X131675000Y-219500000D03*
X133325000Y-219500000D03*
%TD*%
D29*
%TO.C,TP33*%
X246150000Y-160700000D03*
%TD*%
D50*
%TO.C,R1*%
X154225000Y-118470000D03*
X154225000Y-116645000D03*
%TD*%
D39*
%TO.C,D5*%
X120618750Y-188137500D03*
X120618750Y-186562500D03*
%TD*%
D29*
%TO.C,TP24*%
X243100000Y-154600000D03*
%TD*%
D51*
%TO.C,U5*%
X125249620Y-111548200D03*
D52*
X124248860Y-111205300D03*
D53*
X123705300Y-111748860D03*
D54*
X123705300Y-112749620D03*
X123705300Y-113750380D03*
D53*
X123705300Y-114751140D03*
D52*
X124248860Y-115294700D03*
D55*
X125249620Y-115294700D03*
X126250380Y-115294700D03*
D52*
X127251140Y-115294700D03*
D53*
X127794700Y-114751140D03*
D54*
X127794700Y-113750380D03*
X127794700Y-112749620D03*
D53*
X127794700Y-111748860D03*
D52*
X127251140Y-111205300D03*
D55*
X126250380Y-111205300D03*
%TD*%
D29*
%TO.C,TP36*%
X246150000Y-169850000D03*
%TD*%
D35*
%TO.C,R15*%
X124750000Y-123175000D03*
X124750000Y-124825000D03*
%TD*%
D13*
%TO.C,R4*%
X192975000Y-112325000D03*
X194625000Y-112325000D03*
%TD*%
D35*
%TO.C,R14*%
X109250000Y-107425000D03*
X109250000Y-109075000D03*
%TD*%
D29*
%TO.C,TP26*%
X243100000Y-160700000D03*
%TD*%
D18*
%TO.C,R27*%
X128500000Y-109075000D03*
X128500000Y-107425000D03*
%TD*%
D30*
%TO.C,C9*%
X89275000Y-175450000D03*
X89775000Y-175450000D03*
%TD*%
D56*
%TO.C,C10*%
X123150000Y-117650000D03*
X121250000Y-117650000D03*
%TD*%
D29*
%TO.C,TP14*%
X237000000Y-169850000D03*
%TD*%
%TO.C,TP19*%
X240050000Y-163750000D03*
%TD*%
D35*
%TO.C,R9*%
X178706440Y-227704920D03*
X178706440Y-229354920D03*
%TD*%
D49*
%TO.C,H2*%
X152250000Y-103000000D03*
%TD*%
D35*
%TO.C,R34*%
X113000000Y-107425000D03*
X113000000Y-109075000D03*
%TD*%
D29*
%TO.C,TP37*%
X249200000Y-151550000D03*
%TD*%
%TO.C,TP11*%
X237000000Y-160700000D03*
%TD*%
D39*
%TO.C,D6*%
X124150000Y-188137500D03*
X124150000Y-186562500D03*
%TD*%
D29*
%TO.C,TP15*%
X240050000Y-151550000D03*
%TD*%
D18*
%TO.C,R5*%
X89600000Y-208300000D03*
X89600000Y-206650000D03*
%TD*%
D46*
%TO.C,D8*%
X101362500Y-130450000D03*
X102937500Y-130450000D03*
%TD*%
D47*
%TO.C,D3*%
X119300000Y-252400000D03*
X126100000Y-252400000D03*
%TD*%
D29*
%TO.C,TP6*%
X227250000Y-167750000D03*
%TD*%
%TO.C,TP13*%
X237000000Y-166800000D03*
%TD*%
D39*
%TO.C,D11*%
X127587500Y-188100000D03*
X127587500Y-186525000D03*
%TD*%
D18*
%TO.C,R28*%
X131000000Y-109075000D03*
X131000000Y-107425000D03*
%TD*%
D46*
%TO.C,D9*%
X101475000Y-127350000D03*
X103050000Y-127350000D03*
%TD*%
D29*
%TO.C,TP29*%
X243100000Y-169850000D03*
%TD*%
D49*
%TO.C,H4*%
X152250000Y-186500000D03*
%TD*%
D29*
%TO.C,TP28*%
X243100000Y-166800000D03*
%TD*%
D28*
%TO.C,C13*%
X126200000Y-145250000D03*
X124650000Y-145250000D03*
%TD*%
D18*
%TO.C,R30*%
X140250000Y-121325000D03*
X140250000Y-119675000D03*
%TD*%
D35*
%TO.C,R8*%
X97600000Y-257100000D03*
X97600000Y-258750000D03*
%TD*%
D57*
%TO.C,C17*%
X134475000Y-155300000D03*
X134475000Y-154800000D03*
%TD*%
D58*
%TO.C,U22*%
X140175000Y-115887500D03*
X140175000Y-116537500D03*
X140175000Y-117187500D03*
X141950000Y-117187500D03*
X141950000Y-116537500D03*
X141950000Y-115887500D03*
D59*
X141062500Y-116537500D03*
%TD*%
D18*
%TO.C,R29*%
X123250000Y-109075000D03*
X123250000Y-107425000D03*
%TD*%
%TO.C,R11*%
X114750000Y-124825000D03*
X114750000Y-123175000D03*
%TD*%
D28*
%TO.C,C8*%
X94600000Y-175050000D03*
X93050000Y-175050000D03*
%TD*%
D60*
%TO.C,J3*%
X150000000Y-140250000D03*
D61*
X150000000Y-136750000D03*
X150000000Y-133250000D03*
X150000000Y-129750000D03*
X150000000Y-126250000D03*
X150000000Y-122750000D03*
%TD*%
D49*
%TO.C,H1*%
X103250000Y-103000000D03*
%TD*%
D62*
%TO.C,R6*%
X102175000Y-241600000D03*
X100525000Y-241600000D03*
%TD*%
D63*
%TO.C,BZ1*%
X147200000Y-242850000D03*
D64*
X142200000Y-242850000D03*
%TD*%
M02*
