%TF.GenerationSoftware,KiCad,Pcbnew,8.0.3-unknown-1000.20240606gitb882def.fc40*%
%TF.CreationDate,2024-06-07T19:49:53+10:00*%
%TF.ProjectId,l8-kicad,6c382d6b-6963-4616-942e-6b696361645f,1.00*%
%TF.SameCoordinates,Original*%
%TF.FileFunction,Paste,Top*%
%TF.FilePolarity,Positive*%
%FSLAX46Y46*%
G04 Gerber Fmt 4.6, Leading zero omitted, Abs format (unit mm)*
G04 Created by KiCad (PCBNEW 8.0.3-unknown-1000.20240606gitb882def.fc40) date 2024-06-07 19:49:53*
%MOMM*%
%LPD*%
G01*
G04 APERTURE LIST*
G04 Aperture macros list*
%AMRoundRect*
0 Rectangle with rounded corners*
0 $1 Rounding radius*
0 $2 $3 $4 $5 $6 $7 $8 $9 X,Y pos of 4 corners*
0 Add a 4 corners polygon primitive as box body*
4,1,4,$2,$3,$4,$5,$6,$7,$8,$9,$2,$3,0*
0 Add four circle primitives for the rounded corners*
1,1,$1+$1,$2,$3*
1,1,$1+$1,$4,$5*
1,1,$1+$1,$6,$7*
1,1,$1+$1,$8,$9*
0 Add four rect primitives between the rounded corners*
20,1,$1+$1,$2,$3,$4,$5,0*
20,1,$1+$1,$4,$5,$6,$7,0*
20,1,$1+$1,$6,$7,$8,$9,0*
20,1,$1+$1,$8,$9,$2,$3,0*%
%AMFreePoly0*
4,1,6,0.251140,-0.344700,-0.098860,-0.344700,-0.248860,-0.194700,-0.248860,0.355300,0.251140,0.355300,0.251140,-0.344700,0.251140,-0.344700,$1*%
%AMFreePoly1*
4,1,6,0.254000,-0.177800,0.076200,-0.355600,-0.254000,-0.355600,-0.254000,0.355600,0.254000,0.355600,0.254000,-0.177800,0.254000,-0.177800,$1*%
%AMFreePoly2*
4,1,6,0.254000,-0.355600,-0.254000,-0.355600,-0.254000,0.177800,-0.076200,0.355600,0.254000,0.355600,0.254000,-0.355600,0.254000,-0.355600,$1*%
%AMFreePoly3*
4,1,6,0.254000,0.177800,0.254000,-0.355600,-0.254000,-0.355600,-0.254000,0.355600,0.076200,0.355600,0.254000,0.177800,0.254000,0.177800,$1*%
%AMFreePoly4*
4,1,6,0.251140,-0.355300,-0.248860,-0.355300,-0.248860,0.194700,-0.098860,0.344700,0.251140,0.344700,0.251140,-0.355300,0.251140,-0.355300,$1*%
%AMFreePoly5*
4,1,6,0.248860,0.177800,0.248860,-0.355600,-0.259140,-0.355600,-0.259140,0.355600,0.071060,0.355600,0.248860,0.177800,0.248860,0.177800,$1*%
G04 Aperture macros list end*
%ADD10RoundRect,0.200000X0.275000X-0.200000X0.275000X0.200000X-0.275000X0.200000X-0.275000X-0.200000X0*%
%ADD11R,2.000000X2.400000*%
%ADD12RoundRect,0.200000X-0.200000X-0.275000X0.200000X-0.275000X0.200000X0.275000X-0.200000X0.275000X0*%
%ADD13RoundRect,0.225000X0.250000X-0.225000X0.250000X0.225000X-0.250000X0.225000X-0.250000X-0.225000X0*%
%ADD14R,1.000000X0.750000*%
%ADD15RoundRect,0.225000X-0.250000X0.225000X-0.250000X-0.225000X0.250000X-0.225000X0.250000X0.225000X0*%
%ADD16RoundRect,0.225000X-0.225000X-0.250000X0.225000X-0.250000X0.225000X0.250000X-0.225000X0.250000X0*%
%ADD17RoundRect,0.218750X-0.256250X0.218750X-0.256250X-0.218750X0.256250X-0.218750X0.256250X0.218750X0*%
%ADD18RoundRect,0.200000X0.200000X0.275000X-0.200000X0.275000X-0.200000X-0.275000X0.200000X-0.275000X0*%
%ADD19RoundRect,0.225000X0.225000X0.250000X-0.225000X0.250000X-0.225000X-0.250000X0.225000X-0.250000X0*%
%ADD20RoundRect,0.150000X0.150000X-0.587500X0.150000X0.587500X-0.150000X0.587500X-0.150000X-0.587500X0*%
%ADD21RoundRect,0.150000X0.150000X-0.750000X0.150000X0.750000X-0.150000X0.750000X-0.150000X-0.750000X0*%
%ADD22RoundRect,0.075000X-0.075000X0.725000X-0.075000X-0.725000X0.075000X-0.725000X0.075000X0.725000X0*%
%ADD23RoundRect,0.075000X-0.725000X0.075000X-0.725000X-0.075000X0.725000X-0.075000X0.725000X0.075000X0*%
%ADD24RoundRect,0.200000X-0.275000X0.200000X-0.275000X-0.200000X0.275000X-0.200000X0.275000X0.200000X0*%
%ADD25RoundRect,0.225000X-0.225000X-0.375000X0.225000X-0.375000X0.225000X0.375000X-0.225000X0.375000X0*%
%ADD26RoundRect,0.218750X0.256250X-0.218750X0.256250X0.218750X-0.256250X0.218750X-0.256250X-0.218750X0*%
%ADD27R,0.762000X2.794000*%
%ADD28R,0.800000X0.500000*%
%ADD29R,0.800000X0.400000*%
%ADD30R,0.750000X1.000000*%
%ADD31RoundRect,0.250000X-0.250000X-0.475000X0.250000X-0.475000X0.250000X0.475000X-0.250000X0.475000X0*%
%ADD32RoundRect,0.250000X0.650000X-1.000000X0.650000X1.000000X-0.650000X1.000000X-0.650000X-1.000000X0*%
%ADD33RoundRect,0.150000X0.587500X0.150000X-0.587500X0.150000X-0.587500X-0.150000X0.587500X-0.150000X0*%
%ADD34RoundRect,0.150000X0.150000X-0.512500X0.150000X0.512500X-0.150000X0.512500X-0.150000X-0.512500X0*%
%ADD35RoundRect,0.250000X0.262500X0.450000X-0.262500X0.450000X-0.262500X-0.450000X0.262500X-0.450000X0*%
%ADD36R,0.508000X1.397000*%
%ADD37FreePoly0,0.000000*%
%ADD38FreePoly1,90.000000*%
%ADD39R,0.711200X0.508000*%
%ADD40FreePoly0,90.000000*%
%ADD41FreePoly2,0.000000*%
%ADD42R,0.508000X0.711200*%
%ADD43FreePoly3,0.000000*%
%ADD44FreePoly4,90.000000*%
%ADD45FreePoly5,90.000000*%
%ADD46FreePoly1,0.000000*%
%ADD47RoundRect,0.250000X0.250000X0.475000X-0.250000X0.475000X-0.250000X-0.475000X0.250000X-0.475000X0*%
%ADD48RoundRect,0.250000X-1.400000X-1.000000X1.400000X-1.000000X1.400000X1.000000X-1.400000X1.000000X0*%
%ADD49RoundRect,0.172500X-0.262500X-0.172500X0.262500X-0.172500X0.262500X0.172500X-0.262500X0.172500X0*%
%ADD50RoundRect,0.093750X-0.093750X-0.106250X0.093750X-0.106250X0.093750X0.106250X-0.093750X0.106250X0*%
G04 APERTURE END LIST*
D10*
%TO.C,R45*%
X111600000Y-165575000D03*
X111600000Y-163925000D03*
%TD*%
D11*
%TO.C,X1*%
X123600000Y-145150000D03*
X127300000Y-145150000D03*
%TD*%
D12*
%TO.C,R43*%
X101256311Y-158037226D03*
X102906311Y-158037226D03*
%TD*%
D13*
%TO.C,C20*%
X109020819Y-147622596D03*
X109020819Y-146072596D03*
%TD*%
D14*
%TO.C,SW1*%
X103243750Y-161753906D03*
X109243750Y-161753906D03*
X103243750Y-165503906D03*
X109243750Y-165503906D03*
%TD*%
D15*
%TO.C,C30*%
X128750000Y-150775000D03*
X128750000Y-152325000D03*
%TD*%
D16*
%TO.C,C29*%
X109631311Y-158037226D03*
X111181311Y-158037226D03*
%TD*%
D15*
%TO.C,C23*%
X106241681Y-157260217D03*
X106241681Y-158810217D03*
%TD*%
D17*
%TO.C,FB1*%
X109016681Y-168435217D03*
X109016681Y-170010217D03*
%TD*%
D18*
%TO.C,R13*%
X143143689Y-117478399D03*
X141493689Y-117478399D03*
%TD*%
D19*
%TO.C,C5*%
X148775000Y-110550000D03*
X147225000Y-110550000D03*
%TD*%
%TO.C,C6*%
X140318689Y-174814337D03*
X138768689Y-174814337D03*
%TD*%
D16*
%TO.C,C16*%
X129475000Y-174050000D03*
X131025000Y-174050000D03*
%TD*%
D20*
%TO.C,Q5*%
X106015300Y-139384035D03*
X107915300Y-139384035D03*
X106965300Y-137509035D03*
%TD*%
D13*
%TO.C,C1*%
X135383319Y-174192908D03*
X135383319Y-172642908D03*
%TD*%
D21*
%TO.C,U2*%
X137645000Y-147975000D03*
X138915000Y-147975000D03*
X140185000Y-147975000D03*
X141455000Y-147975000D03*
X141455000Y-137325000D03*
X140185000Y-137325000D03*
X138915000Y-137325000D03*
X137645000Y-137325000D03*
%TD*%
D22*
%TO.C,U3*%
X131350000Y-155075000D03*
X130850000Y-155075000D03*
X130350000Y-155075000D03*
X129850000Y-155075000D03*
X129350000Y-155075000D03*
X128850000Y-155075000D03*
X128350000Y-155075000D03*
X127850000Y-155075000D03*
X127350000Y-155075000D03*
X126850000Y-155075000D03*
X126350000Y-155075000D03*
X125850000Y-155075000D03*
X125350000Y-155075000D03*
X124850000Y-155075000D03*
X124350000Y-155075000D03*
X123850000Y-155075000D03*
X123350000Y-155075000D03*
X122850000Y-155075000D03*
X122350000Y-155075000D03*
X121850000Y-155075000D03*
X121350000Y-155075000D03*
X120850000Y-155075000D03*
X120350000Y-155075000D03*
X119850000Y-155075000D03*
X119350000Y-155075000D03*
D23*
X117675000Y-156750000D03*
X117675000Y-157250000D03*
X117675000Y-157750000D03*
X117675000Y-158250000D03*
X117675000Y-158750000D03*
X117675000Y-159250000D03*
X117675000Y-159750000D03*
X117675000Y-160250000D03*
X117675000Y-160750000D03*
X117675000Y-161250000D03*
X117675000Y-161750000D03*
X117675000Y-162250000D03*
X117675000Y-162750000D03*
X117675000Y-163250000D03*
X117675000Y-163750000D03*
X117675000Y-164250000D03*
X117675000Y-164750000D03*
X117675000Y-165250000D03*
X117675000Y-165750000D03*
X117675000Y-166250000D03*
X117675000Y-166750000D03*
X117675000Y-167250000D03*
X117675000Y-167750000D03*
X117675000Y-168250000D03*
X117675000Y-168750000D03*
D22*
X119350000Y-170425000D03*
X119850000Y-170425000D03*
X120350000Y-170425000D03*
X120850000Y-170425000D03*
X121350000Y-170425000D03*
X121850000Y-170425000D03*
X122350000Y-170425000D03*
X122850000Y-170425000D03*
X123350000Y-170425000D03*
X123850000Y-170425000D03*
X124350000Y-170425000D03*
X124850000Y-170425000D03*
X125350000Y-170425000D03*
X125850000Y-170425000D03*
X126350000Y-170425000D03*
X126850000Y-170425000D03*
X127350000Y-170425000D03*
X127850000Y-170425000D03*
X128350000Y-170425000D03*
X128850000Y-170425000D03*
X129350000Y-170425000D03*
X129850000Y-170425000D03*
X130350000Y-170425000D03*
X130850000Y-170425000D03*
X131350000Y-170425000D03*
D23*
X133025000Y-168750000D03*
X133025000Y-168250000D03*
X133025000Y-167750000D03*
X133025000Y-167250000D03*
X133025000Y-166750000D03*
X133025000Y-166250000D03*
X133025000Y-165750000D03*
X133025000Y-165250000D03*
X133025000Y-164750000D03*
X133025000Y-164250000D03*
X133025000Y-163750000D03*
X133025000Y-163250000D03*
X133025000Y-162750000D03*
X133025000Y-162250000D03*
X133025000Y-161750000D03*
X133025000Y-161250000D03*
X133025000Y-160750000D03*
X133025000Y-160250000D03*
X133025000Y-159750000D03*
X133025000Y-159250000D03*
X133025000Y-158750000D03*
X133025000Y-158250000D03*
X133025000Y-157750000D03*
X133025000Y-157250000D03*
X133025000Y-156750000D03*
%TD*%
D24*
%TO.C,R3*%
X109950000Y-118000000D03*
X109950000Y-119650000D03*
%TD*%
D25*
%TO.C,D12*%
X142000000Y-187050000D03*
X145300000Y-187050000D03*
%TD*%
D10*
%TO.C,R29*%
X133800000Y-154425000D03*
X133800000Y-152775000D03*
%TD*%
D24*
%TO.C,R39*%
X137200000Y-109250000D03*
X137200000Y-110900000D03*
%TD*%
D16*
%TO.C,C4*%
X147200000Y-114450000D03*
X148750000Y-114450000D03*
%TD*%
D24*
%TO.C,R10*%
X109016681Y-126444592D03*
X109016681Y-128094592D03*
%TD*%
D26*
%TO.C,D4*%
X110400000Y-187537500D03*
X110400000Y-185962500D03*
%TD*%
D27*
%TO.C,J4*%
X146187375Y-168075701D03*
X146187375Y-164011701D03*
X144917375Y-168075701D03*
X144917375Y-164011701D03*
X143647375Y-168075701D03*
X143647375Y-164011701D03*
X142377375Y-168075701D03*
X142377375Y-164011701D03*
X141107375Y-168075701D03*
X141107375Y-164011701D03*
X139837375Y-168075701D03*
X139837375Y-164011701D03*
X138567375Y-168075701D03*
X138567375Y-164011701D03*
%TD*%
D28*
%TO.C,RN2*%
X115650000Y-180550000D03*
D29*
X115650000Y-179750000D03*
X115650000Y-178950000D03*
D28*
X115650000Y-178150000D03*
X113850000Y-178150000D03*
D29*
X113850000Y-178950000D03*
X113850000Y-179750000D03*
D28*
X113850000Y-180550000D03*
%TD*%
D15*
%TO.C,C12*%
X113550000Y-157475000D03*
X113550000Y-159025000D03*
%TD*%
D16*
%TO.C,C14*%
X123025000Y-148400000D03*
X124575000Y-148400000D03*
%TD*%
D12*
%TO.C,R33*%
X101256311Y-138459101D03*
X102906311Y-138459101D03*
%TD*%
D30*
%TO.C,SW2*%
X101593750Y-154042969D03*
X101593750Y-148042969D03*
X105343750Y-154042969D03*
X105343750Y-148042969D03*
%TD*%
D31*
%TO.C,C7*%
X147200000Y-112550000D03*
X149100000Y-112550000D03*
%TD*%
D24*
%TO.C,R38*%
X120950000Y-109250000D03*
X120950000Y-110900000D03*
%TD*%
%TO.C,R37*%
X115762500Y-109250000D03*
X115762500Y-110900000D03*
%TD*%
D16*
%TO.C,C2*%
X124775000Y-119675000D03*
X126325000Y-119675000D03*
%TD*%
D20*
%TO.C,Q4*%
X114100000Y-117387500D03*
X116000000Y-117387500D03*
X115050000Y-115512500D03*
%TD*%
D12*
%TO.C,R2*%
X141493811Y-113287226D03*
X143143811Y-113287226D03*
%TD*%
D24*
%TO.C,R12*%
X106241681Y-130639904D03*
X106241681Y-132289904D03*
%TD*%
D26*
%TO.C,D1*%
X147700000Y-145475000D03*
X147700000Y-143900000D03*
%TD*%
D24*
%TO.C,R35*%
X147866681Y-173991467D03*
X147866681Y-175641467D03*
%TD*%
D16*
%TO.C,C11*%
X121275000Y-151950000D03*
X122825000Y-151950000D03*
%TD*%
D24*
%TO.C,R7*%
X121700000Y-125175000D03*
X121700000Y-126825000D03*
%TD*%
D32*
%TO.C,D2*%
X151450000Y-148650000D03*
X151450000Y-144650000D03*
%TD*%
D33*
%TO.C,Q1*%
X134587500Y-116400000D03*
X134587500Y-114500000D03*
X132712500Y-115450000D03*
%TD*%
D16*
%TO.C,C15*%
X112975000Y-168750000D03*
X114525000Y-168750000D03*
%TD*%
D24*
%TO.C,R32*%
X102079181Y-141827404D03*
X102079181Y-143477404D03*
%TD*%
D34*
%TO.C,D10*%
X142786041Y-182940127D03*
X143736041Y-182940127D03*
X144686041Y-182940127D03*
X144686041Y-180665127D03*
X143736041Y-180665127D03*
X142786041Y-180665127D03*
%TD*%
D12*
%TO.C,R36*%
X113743811Y-152443476D03*
X115393811Y-152443476D03*
%TD*%
D35*
%TO.C,R1*%
X140912500Y-134450000D03*
X139087500Y-134450000D03*
%TD*%
D26*
%TO.C,D5*%
X113850000Y-187537500D03*
X113850000Y-185962500D03*
%TD*%
D36*
%TO.C,U5*%
X125199620Y-113373200D03*
D37*
X124200000Y-113025000D03*
D38*
X123655300Y-113573860D03*
D39*
X123655300Y-114574620D03*
X123655300Y-115575380D03*
D40*
X123655300Y-116576140D03*
D41*
X124198860Y-117119700D03*
D42*
X125199620Y-117119700D03*
X126200380Y-117119700D03*
D43*
X127201140Y-117119700D03*
D44*
X127744700Y-116576140D03*
D39*
X127744700Y-115575380D03*
X127744700Y-114574620D03*
D45*
X127744700Y-113573860D03*
D46*
X127201140Y-113030300D03*
D42*
X126200380Y-113030300D03*
%TD*%
D24*
%TO.C,R15*%
X124700000Y-125050000D03*
X124700000Y-126700000D03*
%TD*%
D10*
%TO.C,R4*%
X147750000Y-149800000D03*
X147750000Y-148150000D03*
%TD*%
D24*
%TO.C,R14*%
X109200000Y-109250000D03*
X109200000Y-110900000D03*
%TD*%
D10*
%TO.C,R27*%
X125350000Y-110825000D03*
X125350000Y-109175000D03*
%TD*%
D16*
%TO.C,C9*%
X109631311Y-153841913D03*
X111181311Y-153841913D03*
%TD*%
D47*
%TO.C,C10*%
X123100000Y-119475000D03*
X121200000Y-119475000D03*
%TD*%
D18*
%TO.C,R9*%
X105681189Y-127267462D03*
X104031189Y-127267462D03*
%TD*%
D26*
%TO.C,D6*%
X117450000Y-187537500D03*
X117450000Y-185962500D03*
%TD*%
D12*
%TO.C,R5*%
X142881311Y-176216913D03*
X144531311Y-176216913D03*
%TD*%
D24*
%TO.C,R17*%
X131216681Y-180983654D03*
X131216681Y-182633654D03*
%TD*%
D48*
%TO.C,D3*%
X150100000Y-152850000D03*
X150100000Y-159650000D03*
%TD*%
D26*
%TO.C,D11*%
X120800000Y-187537500D03*
X120800000Y-185962500D03*
%TD*%
D10*
%TO.C,R28*%
X130950000Y-110900000D03*
X130950000Y-109250000D03*
%TD*%
D19*
%TO.C,C13*%
X127850000Y-148400000D03*
X126300000Y-148400000D03*
%TD*%
D12*
%TO.C,R8*%
X122068811Y-130068476D03*
X123718811Y-130068476D03*
%TD*%
D13*
%TO.C,C17*%
X137050000Y-158525000D03*
X137050000Y-156975000D03*
%TD*%
D49*
%TO.C,U22*%
X148037500Y-117037500D03*
X148037500Y-117837500D03*
D50*
X147150000Y-116787500D03*
X147150000Y-117437500D03*
X147150000Y-118087500D03*
X148925000Y-118087500D03*
X148925000Y-117437500D03*
X148925000Y-116787500D03*
%TD*%
D10*
%TO.C,R11*%
X114700000Y-126700000D03*
X114700000Y-125050000D03*
%TD*%
D15*
%TO.C,C8*%
X117341681Y-174041467D03*
X117341681Y-175591467D03*
%TD*%
D18*
%TO.C,R16*%
X132043689Y-186001837D03*
X130393689Y-186001837D03*
%TD*%
M02*
