%TF.GenerationSoftware,KiCad,Pcbnew,8.0.3-rc1-1000.20240525gitbe71f77.fc40*%
%TF.CreationDate,2024-05-30T08:30:57+10:00*%
%TF.ProjectId,l8-kicad,6c382d6b-6963-4616-942e-6b696361645f,R0.6.0*%
%TF.SameCoordinates,Original*%
%TF.FileFunction,Profile,NP*%
%FSLAX46Y46*%
G04 Gerber Fmt 4.6, Leading zero omitted, Abs format (unit mm)*
G04 Created by KiCad (PCBNEW 8.0.3-rc1-1000.20240525gitbe71f77.fc40) date 2024-05-30 08:30:57*
%MOMM*%
%LPD*%
G01*
G04 APERTURE LIST*
%TA.AperFunction,Profile*%
%ADD10C,0.200000*%
%TD*%
%ADD11C,0.150000*%
G04 APERTURE END LIST*
D10*
X123550000Y-61150000D02*
X179550000Y-61150000D01*
X179550000Y-151150000D01*
X123550000Y-151150000D01*
X123550000Y-61150000D01*
D11*
X186354819Y-110723808D02*
X186354819Y-110533332D01*
X186354819Y-110533332D02*
X186307200Y-110438094D01*
X186307200Y-110438094D02*
X186259580Y-110390475D01*
X186259580Y-110390475D02*
X186116723Y-110295237D01*
X186116723Y-110295237D02*
X185926247Y-110247618D01*
X185926247Y-110247618D02*
X185545295Y-110247618D01*
X185545295Y-110247618D02*
X185450057Y-110295237D01*
X185450057Y-110295237D02*
X185402438Y-110342856D01*
X185402438Y-110342856D02*
X185354819Y-110438094D01*
X185354819Y-110438094D02*
X185354819Y-110628570D01*
X185354819Y-110628570D02*
X185402438Y-110723808D01*
X185402438Y-110723808D02*
X185450057Y-110771427D01*
X185450057Y-110771427D02*
X185545295Y-110819046D01*
X185545295Y-110819046D02*
X185783390Y-110819046D01*
X185783390Y-110819046D02*
X185878628Y-110771427D01*
X185878628Y-110771427D02*
X185926247Y-110723808D01*
X185926247Y-110723808D02*
X185973866Y-110628570D01*
X185973866Y-110628570D02*
X185973866Y-110438094D01*
X185973866Y-110438094D02*
X185926247Y-110342856D01*
X185926247Y-110342856D02*
X185878628Y-110295237D01*
X185878628Y-110295237D02*
X185783390Y-110247618D01*
X185354819Y-109628570D02*
X185354819Y-109533332D01*
X185354819Y-109533332D02*
X185402438Y-109438094D01*
X185402438Y-109438094D02*
X185450057Y-109390475D01*
X185450057Y-109390475D02*
X185545295Y-109342856D01*
X185545295Y-109342856D02*
X185735771Y-109295237D01*
X185735771Y-109295237D02*
X185973866Y-109295237D01*
X185973866Y-109295237D02*
X186164342Y-109342856D01*
X186164342Y-109342856D02*
X186259580Y-109390475D01*
X186259580Y-109390475D02*
X186307200Y-109438094D01*
X186307200Y-109438094D02*
X186354819Y-109533332D01*
X186354819Y-109533332D02*
X186354819Y-109628570D01*
X186354819Y-109628570D02*
X186307200Y-109723808D01*
X186307200Y-109723808D02*
X186259580Y-109771427D01*
X186259580Y-109771427D02*
X186164342Y-109819046D01*
X186164342Y-109819046D02*
X185973866Y-109866665D01*
X185973866Y-109866665D02*
X185735771Y-109866665D01*
X185735771Y-109866665D02*
X185545295Y-109819046D01*
X185545295Y-109819046D02*
X185450057Y-109771427D01*
X185450057Y-109771427D02*
X185402438Y-109723808D01*
X185402438Y-109723808D02*
X185354819Y-109628570D01*
X186259580Y-108866665D02*
X186307200Y-108819046D01*
X186307200Y-108819046D02*
X186354819Y-108866665D01*
X186354819Y-108866665D02*
X186307200Y-108914284D01*
X186307200Y-108914284D02*
X186259580Y-108866665D01*
X186259580Y-108866665D02*
X186354819Y-108866665D01*
X186354819Y-107866666D02*
X186354819Y-108438094D01*
X186354819Y-108152380D02*
X185354819Y-108152380D01*
X185354819Y-108152380D02*
X185497676Y-108247618D01*
X185497676Y-108247618D02*
X185592914Y-108342856D01*
X185592914Y-108342856D02*
X185640533Y-108438094D01*
X185354819Y-107247618D02*
X185354819Y-107152380D01*
X185354819Y-107152380D02*
X185402438Y-107057142D01*
X185402438Y-107057142D02*
X185450057Y-107009523D01*
X185450057Y-107009523D02*
X185545295Y-106961904D01*
X185545295Y-106961904D02*
X185735771Y-106914285D01*
X185735771Y-106914285D02*
X185973866Y-106914285D01*
X185973866Y-106914285D02*
X186164342Y-106961904D01*
X186164342Y-106961904D02*
X186259580Y-107009523D01*
X186259580Y-107009523D02*
X186307200Y-107057142D01*
X186307200Y-107057142D02*
X186354819Y-107152380D01*
X186354819Y-107152380D02*
X186354819Y-107247618D01*
X186354819Y-107247618D02*
X186307200Y-107342856D01*
X186307200Y-107342856D02*
X186259580Y-107390475D01*
X186259580Y-107390475D02*
X186164342Y-107438094D01*
X186164342Y-107438094D02*
X185973866Y-107485713D01*
X185973866Y-107485713D02*
X185735771Y-107485713D01*
X185735771Y-107485713D02*
X185545295Y-107438094D01*
X185545295Y-107438094D02*
X185450057Y-107390475D01*
X185450057Y-107390475D02*
X185402438Y-107342856D01*
X185402438Y-107342856D02*
X185354819Y-107247618D01*
X185354819Y-106295237D02*
X185354819Y-106199999D01*
X185354819Y-106199999D02*
X185402438Y-106104761D01*
X185402438Y-106104761D02*
X185450057Y-106057142D01*
X185450057Y-106057142D02*
X185545295Y-106009523D01*
X185545295Y-106009523D02*
X185735771Y-105961904D01*
X185735771Y-105961904D02*
X185973866Y-105961904D01*
X185973866Y-105961904D02*
X186164342Y-106009523D01*
X186164342Y-106009523D02*
X186259580Y-106057142D01*
X186259580Y-106057142D02*
X186307200Y-106104761D01*
X186307200Y-106104761D02*
X186354819Y-106199999D01*
X186354819Y-106199999D02*
X186354819Y-106295237D01*
X186354819Y-106295237D02*
X186307200Y-106390475D01*
X186307200Y-106390475D02*
X186259580Y-106438094D01*
X186259580Y-106438094D02*
X186164342Y-106485713D01*
X186164342Y-106485713D02*
X185973866Y-106533332D01*
X185973866Y-106533332D02*
X185735771Y-106533332D01*
X185735771Y-106533332D02*
X185545295Y-106485713D01*
X185545295Y-106485713D02*
X185450057Y-106438094D01*
X185450057Y-106438094D02*
X185402438Y-106390475D01*
X185402438Y-106390475D02*
X185354819Y-106295237D01*
X185354819Y-105342856D02*
X185354819Y-105247618D01*
X185354819Y-105247618D02*
X185402438Y-105152380D01*
X185402438Y-105152380D02*
X185450057Y-105104761D01*
X185450057Y-105104761D02*
X185545295Y-105057142D01*
X185545295Y-105057142D02*
X185735771Y-105009523D01*
X185735771Y-105009523D02*
X185973866Y-105009523D01*
X185973866Y-105009523D02*
X186164342Y-105057142D01*
X186164342Y-105057142D02*
X186259580Y-105104761D01*
X186259580Y-105104761D02*
X186307200Y-105152380D01*
X186307200Y-105152380D02*
X186354819Y-105247618D01*
X186354819Y-105247618D02*
X186354819Y-105342856D01*
X186354819Y-105342856D02*
X186307200Y-105438094D01*
X186307200Y-105438094D02*
X186259580Y-105485713D01*
X186259580Y-105485713D02*
X186164342Y-105533332D01*
X186164342Y-105533332D02*
X185973866Y-105580951D01*
X185973866Y-105580951D02*
X185735771Y-105580951D01*
X185735771Y-105580951D02*
X185545295Y-105533332D01*
X185545295Y-105533332D02*
X185450057Y-105485713D01*
X185450057Y-105485713D02*
X185402438Y-105438094D01*
X185402438Y-105438094D02*
X185354819Y-105342856D01*
X186354819Y-103819046D02*
X185688152Y-103819046D01*
X185783390Y-103819046D02*
X185735771Y-103771427D01*
X185735771Y-103771427D02*
X185688152Y-103676189D01*
X185688152Y-103676189D02*
X185688152Y-103533332D01*
X185688152Y-103533332D02*
X185735771Y-103438094D01*
X185735771Y-103438094D02*
X185831009Y-103390475D01*
X185831009Y-103390475D02*
X186354819Y-103390475D01*
X185831009Y-103390475D02*
X185735771Y-103342856D01*
X185735771Y-103342856D02*
X185688152Y-103247618D01*
X185688152Y-103247618D02*
X185688152Y-103104761D01*
X185688152Y-103104761D02*
X185735771Y-103009522D01*
X185735771Y-103009522D02*
X185831009Y-102961903D01*
X185831009Y-102961903D02*
X186354819Y-102961903D01*
X186354819Y-102485713D02*
X185688152Y-102485713D01*
X185783390Y-102485713D02*
X185735771Y-102438094D01*
X185735771Y-102438094D02*
X185688152Y-102342856D01*
X185688152Y-102342856D02*
X185688152Y-102199999D01*
X185688152Y-102199999D02*
X185735771Y-102104761D01*
X185735771Y-102104761D02*
X185831009Y-102057142D01*
X185831009Y-102057142D02*
X186354819Y-102057142D01*
X185831009Y-102057142D02*
X185735771Y-102009523D01*
X185735771Y-102009523D02*
X185688152Y-101914285D01*
X185688152Y-101914285D02*
X185688152Y-101771428D01*
X185688152Y-101771428D02*
X185735771Y-101676189D01*
X185735771Y-101676189D02*
X185831009Y-101628570D01*
X185831009Y-101628570D02*
X186354819Y-101628570D01*
D10*
X187100000Y-61150000D02*
X187636420Y-61150000D01*
X187100000Y-151250000D02*
X187636420Y-151250000D01*
X187050000Y-61150000D02*
X187050000Y-151250000D01*
X187050000Y-61150000D02*
X187050000Y-151250000D01*
X187050000Y-61150000D02*
X187636421Y-62276504D01*
X187050000Y-61150000D02*
X186463579Y-62276504D01*
X187050000Y-151250000D02*
X186463579Y-150123496D01*
X187050000Y-151250000D02*
X187636421Y-150123496D01*
D11*
X105983390Y-99924999D02*
X105935771Y-100020237D01*
X105935771Y-100020237D02*
X105888152Y-100067856D01*
X105888152Y-100067856D02*
X105792914Y-100115475D01*
X105792914Y-100115475D02*
X105745295Y-100115475D01*
X105745295Y-100115475D02*
X105650057Y-100067856D01*
X105650057Y-100067856D02*
X105602438Y-100020237D01*
X105602438Y-100020237D02*
X105554819Y-99924999D01*
X105554819Y-99924999D02*
X105554819Y-99734523D01*
X105554819Y-99734523D02*
X105602438Y-99639285D01*
X105602438Y-99639285D02*
X105650057Y-99591666D01*
X105650057Y-99591666D02*
X105745295Y-99544047D01*
X105745295Y-99544047D02*
X105792914Y-99544047D01*
X105792914Y-99544047D02*
X105888152Y-99591666D01*
X105888152Y-99591666D02*
X105935771Y-99639285D01*
X105935771Y-99639285D02*
X105983390Y-99734523D01*
X105983390Y-99734523D02*
X105983390Y-99924999D01*
X105983390Y-99924999D02*
X106031009Y-100020237D01*
X106031009Y-100020237D02*
X106078628Y-100067856D01*
X106078628Y-100067856D02*
X106173866Y-100115475D01*
X106173866Y-100115475D02*
X106364342Y-100115475D01*
X106364342Y-100115475D02*
X106459580Y-100067856D01*
X106459580Y-100067856D02*
X106507200Y-100020237D01*
X106507200Y-100020237D02*
X106554819Y-99924999D01*
X106554819Y-99924999D02*
X106554819Y-99734523D01*
X106554819Y-99734523D02*
X106507200Y-99639285D01*
X106507200Y-99639285D02*
X106459580Y-99591666D01*
X106459580Y-99591666D02*
X106364342Y-99544047D01*
X106364342Y-99544047D02*
X106173866Y-99544047D01*
X106173866Y-99544047D02*
X106078628Y-99591666D01*
X106078628Y-99591666D02*
X106031009Y-99639285D01*
X106031009Y-99639285D02*
X105983390Y-99734523D01*
X105554819Y-99210713D02*
X105554819Y-98591666D01*
X105554819Y-98591666D02*
X105935771Y-98924999D01*
X105935771Y-98924999D02*
X105935771Y-98782142D01*
X105935771Y-98782142D02*
X105983390Y-98686904D01*
X105983390Y-98686904D02*
X106031009Y-98639285D01*
X106031009Y-98639285D02*
X106126247Y-98591666D01*
X106126247Y-98591666D02*
X106364342Y-98591666D01*
X106364342Y-98591666D02*
X106459580Y-98639285D01*
X106459580Y-98639285D02*
X106507200Y-98686904D01*
X106507200Y-98686904D02*
X106554819Y-98782142D01*
X106554819Y-98782142D02*
X106554819Y-99067856D01*
X106554819Y-99067856D02*
X106507200Y-99163094D01*
X106507200Y-99163094D02*
X106459580Y-99210713D01*
X106459580Y-98163094D02*
X106507200Y-98115475D01*
X106507200Y-98115475D02*
X106554819Y-98163094D01*
X106554819Y-98163094D02*
X106507200Y-98210713D01*
X106507200Y-98210713D02*
X106459580Y-98163094D01*
X106459580Y-98163094D02*
X106554819Y-98163094D01*
X105554819Y-97210714D02*
X105554819Y-97686904D01*
X105554819Y-97686904D02*
X106031009Y-97734523D01*
X106031009Y-97734523D02*
X105983390Y-97686904D01*
X105983390Y-97686904D02*
X105935771Y-97591666D01*
X105935771Y-97591666D02*
X105935771Y-97353571D01*
X105935771Y-97353571D02*
X105983390Y-97258333D01*
X105983390Y-97258333D02*
X106031009Y-97210714D01*
X106031009Y-97210714D02*
X106126247Y-97163095D01*
X106126247Y-97163095D02*
X106364342Y-97163095D01*
X106364342Y-97163095D02*
X106459580Y-97210714D01*
X106459580Y-97210714D02*
X106507200Y-97258333D01*
X106507200Y-97258333D02*
X106554819Y-97353571D01*
X106554819Y-97353571D02*
X106554819Y-97591666D01*
X106554819Y-97591666D02*
X106507200Y-97686904D01*
X106507200Y-97686904D02*
X106459580Y-97734523D01*
X106554819Y-95972618D02*
X105888152Y-95972618D01*
X105983390Y-95972618D02*
X105935771Y-95924999D01*
X105935771Y-95924999D02*
X105888152Y-95829761D01*
X105888152Y-95829761D02*
X105888152Y-95686904D01*
X105888152Y-95686904D02*
X105935771Y-95591666D01*
X105935771Y-95591666D02*
X106031009Y-95544047D01*
X106031009Y-95544047D02*
X106554819Y-95544047D01*
X106031009Y-95544047D02*
X105935771Y-95496428D01*
X105935771Y-95496428D02*
X105888152Y-95401190D01*
X105888152Y-95401190D02*
X105888152Y-95258333D01*
X105888152Y-95258333D02*
X105935771Y-95163094D01*
X105935771Y-95163094D02*
X106031009Y-95115475D01*
X106031009Y-95115475D02*
X106554819Y-95115475D01*
X106554819Y-94639285D02*
X105888152Y-94639285D01*
X105983390Y-94639285D02*
X105935771Y-94591666D01*
X105935771Y-94591666D02*
X105888152Y-94496428D01*
X105888152Y-94496428D02*
X105888152Y-94353571D01*
X105888152Y-94353571D02*
X105935771Y-94258333D01*
X105935771Y-94258333D02*
X106031009Y-94210714D01*
X106031009Y-94210714D02*
X106554819Y-94210714D01*
X106031009Y-94210714D02*
X105935771Y-94163095D01*
X105935771Y-94163095D02*
X105888152Y-94067857D01*
X105888152Y-94067857D02*
X105888152Y-93925000D01*
X105888152Y-93925000D02*
X105935771Y-93829761D01*
X105935771Y-93829761D02*
X106031009Y-93782142D01*
X106031009Y-93782142D02*
X106554819Y-93782142D01*
D10*
X116600000Y-132000000D02*
X106663580Y-132000000D01*
X106663580Y-61850000D02*
X115100000Y-61850000D01*
X107250000Y-132000000D02*
X107250000Y-61850000D01*
X107250000Y-132000000D02*
X107250000Y-61850000D01*
X107250000Y-132000000D02*
X106663579Y-130873496D01*
X107250000Y-132000000D02*
X107836421Y-130873496D01*
X107250000Y-61850000D02*
X107836421Y-62976504D01*
X107250000Y-61850000D02*
X106663579Y-62976504D01*
M02*
