%TF.GenerationSoftware,KiCad,Pcbnew,8.0.3-rc1-1000.20240525gitbe71f77.fc40*%
%TF.CreationDate,2024-05-30T08:30:57+10:00*%
%TF.ProjectId,l8-kicad,6c382d6b-6963-4616-942e-6b696361645f,R0.6.0*%
%TF.SameCoordinates,Original*%
%TF.FileFunction,Copper,L2,Inr*%
%TF.FilePolarity,Positive*%
%FSLAX46Y46*%
G04 Gerber Fmt 4.6, Leading zero omitted, Abs format (unit mm)*
G04 Created by KiCad (PCBNEW 8.0.3-rc1-1000.20240525gitbe71f77.fc40) date 2024-05-30 08:30:57*
%MOMM*%
%LPD*%
G01*
G04 APERTURE LIST*
%TA.AperFunction,ComponentPad*%
%ADD10C,1.100000*%
%TD*%
%TA.AperFunction,ComponentPad*%
%ADD11C,1.600200*%
%TD*%
%TA.AperFunction,ComponentPad*%
%ADD12O,1.700000X1.700000*%
%TD*%
%TA.AperFunction,ComponentPad*%
%ADD13O,1.600000X1.600000*%
%TD*%
%TA.AperFunction,HeatsinkPad*%
%ADD14C,0.500000*%
%TD*%
%TA.AperFunction,ComponentPad*%
%ADD15R,2.400000X2.400000*%
%TD*%
%TA.AperFunction,ComponentPad*%
%ADD16C,2.400000*%
%TD*%
G04 APERTURE END LIST*
D10*
%TO.N,GND*%
%TO.C,J1*%
X126800000Y-115500000D03*
%TD*%
D11*
%TO.N,GND*%
%TO.C,U1*%
X169390000Y-75325000D03*
%TO.N,/5V*%
X171930000Y-75325000D03*
%TO.N,/GND_ISO*%
X174470000Y-75325000D03*
%TO.N,/+5V_ISO*%
X177010000Y-75325000D03*
%TD*%
D12*
%TO.N,GND*%
%TO.C,J2*%
X164730000Y-63950000D03*
%TD*%
%TO.N,GND*%
%TO.C,PS1*%
X167350000Y-89490000D03*
%TD*%
D13*
%TO.N,GND*%
%TO.C,U4*%
X141000000Y-110420000D03*
%TD*%
D14*
%TO.N,GND*%
%TO.C,U22*%
X165012500Y-74587500D03*
X165012500Y-75687500D03*
%TD*%
D15*
%TO.N,GND*%
%TO.C,J3*%
X174800000Y-107650000D03*
D16*
X174800000Y-104150000D03*
%TD*%
%TA.AperFunction,Conductor*%
%TO.N,GND*%
G36*
X179164691Y-61535309D02*
G01*
X179168118Y-61543582D01*
X179168118Y-150756418D01*
X179164691Y-150764691D01*
X179156418Y-150768118D01*
X123943582Y-150768118D01*
X123935309Y-150764691D01*
X123931882Y-150756418D01*
X123931882Y-148010548D01*
X124872373Y-148010548D01*
X124872373Y-148289451D01*
X124908776Y-148565968D01*
X124980962Y-148835369D01*
X124980966Y-148835380D01*
X125087691Y-149093035D01*
X125087695Y-149093044D01*
X125227147Y-149334582D01*
X125396933Y-149555852D01*
X125594148Y-149753067D01*
X125815418Y-149922853D01*
X126056956Y-150062305D01*
X126314629Y-150169037D01*
X126584030Y-150241223D01*
X126860548Y-150277627D01*
X127139452Y-150277627D01*
X127415970Y-150241223D01*
X127685371Y-150169037D01*
X127943044Y-150062305D01*
X128184582Y-149922853D01*
X128405852Y-149753067D01*
X128603067Y-149555852D01*
X128772853Y-149334582D01*
X128912305Y-149093044D01*
X129019037Y-148835371D01*
X129091223Y-148565970D01*
X129127627Y-148289452D01*
X129127627Y-148010548D01*
X129107879Y-147860548D01*
X174072373Y-147860548D01*
X174072373Y-148139451D01*
X174108776Y-148415968D01*
X174180962Y-148685369D01*
X174180966Y-148685380D01*
X174243094Y-148835369D01*
X174287695Y-148943044D01*
X174427147Y-149184582D01*
X174596933Y-149405852D01*
X174794148Y-149603067D01*
X175015418Y-149772853D01*
X175256956Y-149912305D01*
X175514629Y-150019037D01*
X175784030Y-150091223D01*
X176060548Y-150127627D01*
X176339452Y-150127627D01*
X176615970Y-150091223D01*
X176885371Y-150019037D01*
X177143044Y-149912305D01*
X177384582Y-149772853D01*
X177605852Y-149603067D01*
X177803067Y-149405852D01*
X177972853Y-149184582D01*
X178112305Y-148943044D01*
X178219037Y-148685371D01*
X178291223Y-148415970D01*
X178327627Y-148139452D01*
X178327627Y-147860548D01*
X178291223Y-147584030D01*
X178219037Y-147314629D01*
X178112305Y-147056956D01*
X177972853Y-146815418D01*
X177803067Y-146594148D01*
X177605852Y-146396933D01*
X177384582Y-146227147D01*
X177143044Y-146087695D01*
X177143036Y-146087691D01*
X177143035Y-146087691D01*
X176885380Y-145980966D01*
X176885369Y-145980962D01*
X176615968Y-145908776D01*
X176339452Y-145872373D01*
X176060548Y-145872373D01*
X175784031Y-145908776D01*
X175514630Y-145980962D01*
X175514619Y-145980966D01*
X175256964Y-146087691D01*
X175256959Y-146087693D01*
X175256956Y-146087695D01*
X175015418Y-146227147D01*
X175015417Y-146227147D01*
X174794149Y-146396932D01*
X174794142Y-146396938D01*
X174596938Y-146594142D01*
X174596932Y-146594149D01*
X174427147Y-146815417D01*
X174427147Y-146815418D01*
X174287695Y-147056956D01*
X174287693Y-147056959D01*
X174287691Y-147056964D01*
X174180966Y-147314619D01*
X174180962Y-147314630D01*
X174108776Y-147584031D01*
X174072373Y-147860548D01*
X129107879Y-147860548D01*
X129091223Y-147734030D01*
X129019037Y-147464629D01*
X128912305Y-147206956D01*
X128772853Y-146965418D01*
X128603067Y-146744148D01*
X128405852Y-146546933D01*
X128184582Y-146377147D01*
X127943044Y-146237695D01*
X127943036Y-146237691D01*
X127943035Y-146237691D01*
X127685380Y-146130966D01*
X127685369Y-146130962D01*
X127415968Y-146058776D01*
X127139452Y-146022373D01*
X126860548Y-146022373D01*
X126584031Y-146058776D01*
X126314630Y-146130962D01*
X126314619Y-146130966D01*
X126056964Y-146237691D01*
X126056959Y-146237693D01*
X126056956Y-146237695D01*
X125815418Y-146377147D01*
X125815417Y-146377147D01*
X125594149Y-146546932D01*
X125594142Y-146546938D01*
X125396938Y-146744142D01*
X125396932Y-146744149D01*
X125227147Y-146965417D01*
X125227147Y-146965418D01*
X125087695Y-147206956D01*
X125087693Y-147206959D01*
X125087691Y-147206964D01*
X124980966Y-147464619D01*
X124980962Y-147464630D01*
X124908776Y-147734031D01*
X124872373Y-148010548D01*
X123931882Y-148010548D01*
X123931882Y-140804647D01*
X125087073Y-140804647D01*
X125087073Y-140927352D01*
X125111012Y-141047701D01*
X125157968Y-141161065D01*
X125157972Y-141161073D01*
X125226140Y-141263092D01*
X125226143Y-141263096D01*
X125312903Y-141349856D01*
X125312907Y-141349859D01*
X125414926Y-141418027D01*
X125414930Y-141418029D01*
X125414933Y-141418031D01*
X125528299Y-141464988D01*
X125648647Y-141488927D01*
X125648648Y-141488927D01*
X125771352Y-141488927D01*
X125771353Y-141488927D01*
X125891701Y-141464988D01*
X126005067Y-141418031D01*
X126107093Y-141349859D01*
X126193859Y-141263093D01*
X126262031Y-141161067D01*
X126308988Y-141047701D01*
X126332927Y-140927353D01*
X126332927Y-140804647D01*
X126308988Y-140684299D01*
X126262031Y-140570933D01*
X126262029Y-140570930D01*
X126262027Y-140570926D01*
X126193859Y-140468907D01*
X126193856Y-140468903D01*
X126107096Y-140382143D01*
X126107092Y-140382140D01*
X126005073Y-140313972D01*
X126005065Y-140313968D01*
X125891701Y-140267012D01*
X125771353Y-140243073D01*
X125648647Y-140243073D01*
X125588473Y-140255042D01*
X125528298Y-140267012D01*
X125414934Y-140313968D01*
X125414926Y-140313972D01*
X125312907Y-140382140D01*
X125312903Y-140382143D01*
X125226143Y-140468903D01*
X125226140Y-140468907D01*
X125157972Y-140570926D01*
X125157968Y-140570934D01*
X125111012Y-140684298D01*
X125087073Y-140804647D01*
X123931882Y-140804647D01*
X123931882Y-139788647D01*
X130167073Y-139788647D01*
X130167073Y-139911352D01*
X130191012Y-140031701D01*
X130237968Y-140145065D01*
X130237972Y-140145073D01*
X130306140Y-140247092D01*
X130306143Y-140247096D01*
X130392903Y-140333856D01*
X130392907Y-140333859D01*
X130494926Y-140402027D01*
X130494930Y-140402029D01*
X130494933Y-140402031D01*
X130608299Y-140448988D01*
X130728647Y-140472927D01*
X130728648Y-140472927D01*
X130851352Y-140472927D01*
X130851353Y-140472927D01*
X130971701Y-140448988D01*
X131085067Y-140402031D01*
X131187093Y-140333859D01*
X131273859Y-140247093D01*
X131342031Y-140145067D01*
X131388988Y-140031701D01*
X131412927Y-139911353D01*
X131412927Y-139788647D01*
X131388988Y-139668299D01*
X131342031Y-139554933D01*
X131342029Y-139554930D01*
X131342027Y-139554926D01*
X131273859Y-139452907D01*
X131273856Y-139452903D01*
X131187096Y-139366143D01*
X131187092Y-139366140D01*
X131085073Y-139297972D01*
X131085065Y-139297968D01*
X130971701Y-139251012D01*
X130851353Y-139227073D01*
X130728647Y-139227073D01*
X130668473Y-139239042D01*
X130608298Y-139251012D01*
X130494934Y-139297968D01*
X130494926Y-139297972D01*
X130392907Y-139366140D01*
X130392903Y-139366143D01*
X130306143Y-139452903D01*
X130306140Y-139452907D01*
X130237972Y-139554926D01*
X130237968Y-139554934D01*
X130191012Y-139668298D01*
X130167073Y-139788647D01*
X123931882Y-139788647D01*
X123931882Y-138772647D01*
X125087073Y-138772647D01*
X125087073Y-138895352D01*
X125111012Y-139015701D01*
X125157968Y-139129065D01*
X125157972Y-139129073D01*
X125226140Y-139231092D01*
X125226143Y-139231096D01*
X125312903Y-139317856D01*
X125312907Y-139317859D01*
X125414926Y-139386027D01*
X125414930Y-139386029D01*
X125414933Y-139386031D01*
X125528299Y-139432988D01*
X125648647Y-139456927D01*
X125648648Y-139456927D01*
X125771352Y-139456927D01*
X125771353Y-139456927D01*
X125891701Y-139432988D01*
X126005067Y-139386031D01*
X126107093Y-139317859D01*
X126193859Y-139231093D01*
X126262031Y-139129067D01*
X126308988Y-139015701D01*
X126332927Y-138895353D01*
X126332927Y-138772647D01*
X126308988Y-138652299D01*
X126262031Y-138538933D01*
X126262029Y-138538930D01*
X126262027Y-138538926D01*
X126193859Y-138436907D01*
X126193856Y-138436903D01*
X126107096Y-138350143D01*
X126107092Y-138350140D01*
X126005073Y-138281972D01*
X126005065Y-138281968D01*
X125891701Y-138235012D01*
X125771353Y-138211073D01*
X125648647Y-138211073D01*
X125588473Y-138223042D01*
X125528298Y-138235012D01*
X125414934Y-138281968D01*
X125414926Y-138281972D01*
X125312907Y-138350140D01*
X125312903Y-138350143D01*
X125226143Y-138436903D01*
X125226140Y-138436907D01*
X125157972Y-138538926D01*
X125157968Y-138538934D01*
X125111012Y-138652298D01*
X125087073Y-138772647D01*
X123931882Y-138772647D01*
X123931882Y-115662116D01*
X124272373Y-115662116D01*
X124272373Y-117087883D01*
X124304921Y-117209355D01*
X124304923Y-117209359D01*
X124367801Y-117318266D01*
X124367803Y-117318269D01*
X124367804Y-117318270D01*
X124456730Y-117407196D01*
X124456731Y-117407197D01*
X124456733Y-117407198D01*
X124565640Y-117470076D01*
X124565644Y-117470078D01*
X124661447Y-117495748D01*
X124687116Y-117502626D01*
X124687118Y-117502627D01*
X124687119Y-117502627D01*
X124812882Y-117502627D01*
X124812882Y-117502626D01*
X124873619Y-117486352D01*
X124934355Y-117470078D01*
X124934359Y-117470076D01*
X124996229Y-117434355D01*
X125043270Y-117407196D01*
X125132196Y-117318270D01*
X125195077Y-117209357D01*
X125201037Y-117187116D01*
X127122373Y-117187116D01*
X127122373Y-117312883D01*
X127154921Y-117434355D01*
X127154923Y-117434359D01*
X127217801Y-117543266D01*
X127217803Y-117543269D01*
X127217804Y-117543270D01*
X127306730Y-117632196D01*
X127306731Y-117632197D01*
X127306733Y-117632198D01*
X127415640Y-117695076D01*
X127415644Y-117695078D01*
X127511447Y-117720748D01*
X127537116Y-117727626D01*
X127537118Y-117727627D01*
X127537119Y-117727627D01*
X127662882Y-117727627D01*
X127662882Y-117727626D01*
X127723619Y-117711352D01*
X127784355Y-117695078D01*
X127784359Y-117695076D01*
X127820661Y-117674116D01*
X127893270Y-117632196D01*
X127982196Y-117543270D01*
X128045077Y-117434357D01*
X128052355Y-117407198D01*
X128061352Y-117373619D01*
X128077627Y-117312881D01*
X128077627Y-117187119D01*
X128077626Y-117187116D01*
X128722373Y-117187116D01*
X128722373Y-117312883D01*
X128754921Y-117434355D01*
X128754923Y-117434359D01*
X128817801Y-117543266D01*
X128817803Y-117543269D01*
X128817804Y-117543270D01*
X128906730Y-117632196D01*
X128906731Y-117632197D01*
X128906733Y-117632198D01*
X129015640Y-117695076D01*
X129015644Y-117695078D01*
X129111447Y-117720748D01*
X129137116Y-117727626D01*
X129137118Y-117727627D01*
X129137119Y-117727627D01*
X129262882Y-117727627D01*
X129262882Y-117727626D01*
X129323619Y-117711352D01*
X129384355Y-117695078D01*
X129384359Y-117695076D01*
X129420661Y-117674116D01*
X129493270Y-117632196D01*
X129582196Y-117543270D01*
X129645077Y-117434357D01*
X129652355Y-117407198D01*
X129661352Y-117373619D01*
X129677627Y-117312881D01*
X129677627Y-117187119D01*
X129670748Y-117161447D01*
X129645078Y-117065644D01*
X129645076Y-117065640D01*
X129582198Y-116956733D01*
X129582194Y-116956728D01*
X129493271Y-116867805D01*
X129493266Y-116867801D01*
X129384359Y-116804923D01*
X129384355Y-116804921D01*
X129262883Y-116772373D01*
X129262881Y-116772373D01*
X129137119Y-116772373D01*
X129137116Y-116772373D01*
X129015644Y-116804921D01*
X129015640Y-116804923D01*
X128906733Y-116867801D01*
X128906728Y-116867805D01*
X128817805Y-116956728D01*
X128817801Y-116956733D01*
X128754923Y-117065640D01*
X128754921Y-117065644D01*
X128722373Y-117187116D01*
X128077626Y-117187116D01*
X128070748Y-117161447D01*
X128045078Y-117065644D01*
X128045076Y-117065640D01*
X127982198Y-116956733D01*
X127982194Y-116956728D01*
X127893271Y-116867805D01*
X127893266Y-116867801D01*
X127784359Y-116804923D01*
X127784355Y-116804921D01*
X127662883Y-116772373D01*
X127662881Y-116772373D01*
X127537119Y-116772373D01*
X127537116Y-116772373D01*
X127415644Y-116804921D01*
X127415640Y-116804923D01*
X127306733Y-116867801D01*
X127306728Y-116867805D01*
X127217805Y-116956728D01*
X127217801Y-116956733D01*
X127154923Y-117065640D01*
X127154921Y-117065644D01*
X127122373Y-117187116D01*
X125201037Y-117187116D01*
X125227627Y-117087881D01*
X125227627Y-115662119D01*
X125220386Y-115635095D01*
X125195078Y-115540644D01*
X125195076Y-115540640D01*
X125171612Y-115500000D01*
X126219635Y-115500000D01*
X126239409Y-115650207D01*
X126239412Y-115650216D01*
X126297384Y-115790174D01*
X126297390Y-115790184D01*
X126350591Y-115859515D01*
X126350592Y-115859516D01*
X126510879Y-115699228D01*
X126519930Y-115714905D01*
X126585095Y-115780070D01*
X126600770Y-115789120D01*
X126440483Y-115949407D01*
X126509815Y-116002609D01*
X126509825Y-116002615D01*
X126649783Y-116060587D01*
X126649792Y-116060590D01*
X126800000Y-116080364D01*
X126950207Y-116060590D01*
X126950216Y-116060587D01*
X127090174Y-116002615D01*
X127090184Y-116002609D01*
X127159515Y-115949407D01*
X126999228Y-115789120D01*
X127014905Y-115780070D01*
X127080070Y-115714905D01*
X127089120Y-115699228D01*
X127249407Y-115859515D01*
X127302609Y-115790184D01*
X127302615Y-115790174D01*
X127360587Y-115650216D01*
X127360590Y-115650207D01*
X127380364Y-115500000D01*
X127372086Y-115437116D01*
X127922373Y-115437116D01*
X127922373Y-115562883D01*
X127954921Y-115684355D01*
X127954923Y-115684359D01*
X128017801Y-115793266D01*
X128017803Y-115793269D01*
X128017804Y-115793270D01*
X128106730Y-115882196D01*
X128106731Y-115882197D01*
X128106733Y-115882198D01*
X128215640Y-115945076D01*
X128215644Y-115945078D01*
X128311447Y-115970748D01*
X128337116Y-115977626D01*
X128337118Y-115977627D01*
X128337119Y-115977627D01*
X128462882Y-115977627D01*
X128462882Y-115977626D01*
X128523619Y-115961352D01*
X128584355Y-115945078D01*
X128584359Y-115945076D01*
X128620661Y-115924116D01*
X128693270Y-115882196D01*
X128782196Y-115793270D01*
X128845077Y-115684357D01*
X128877627Y-115562881D01*
X128877627Y-115437119D01*
X128877626Y-115437116D01*
X129522373Y-115437116D01*
X129522373Y-115562883D01*
X129554921Y-115684355D01*
X129554923Y-115684359D01*
X129617801Y-115793266D01*
X129617803Y-115793269D01*
X129617804Y-115793270D01*
X129706730Y-115882196D01*
X129706731Y-115882197D01*
X129706733Y-115882198D01*
X129815640Y-115945076D01*
X129815644Y-115945078D01*
X129911447Y-115970748D01*
X129937116Y-115977626D01*
X129937118Y-115977627D01*
X129937119Y-115977627D01*
X130062882Y-115977627D01*
X130062882Y-115977626D01*
X130123619Y-115961352D01*
X130184355Y-115945078D01*
X130184359Y-115945076D01*
X130220661Y-115924116D01*
X130293270Y-115882196D01*
X130382196Y-115793270D01*
X130445077Y-115684357D01*
X130451037Y-115662116D01*
X131572373Y-115662116D01*
X131572373Y-117087883D01*
X131604921Y-117209355D01*
X131604923Y-117209359D01*
X131667801Y-117318266D01*
X131667803Y-117318269D01*
X131667804Y-117318270D01*
X131756730Y-117407196D01*
X131756731Y-117407197D01*
X131756733Y-117407198D01*
X131865640Y-117470076D01*
X131865644Y-117470078D01*
X131961447Y-117495748D01*
X131987116Y-117502626D01*
X131987118Y-117502627D01*
X131987119Y-117502627D01*
X132112882Y-117502627D01*
X132112882Y-117502626D01*
X132173619Y-117486352D01*
X132234355Y-117470078D01*
X132234359Y-117470076D01*
X132296229Y-117434355D01*
X132343270Y-117407196D01*
X132432196Y-117318270D01*
X132495077Y-117209357D01*
X132527627Y-117087881D01*
X132527627Y-115662119D01*
X132520386Y-115635095D01*
X132495078Y-115540644D01*
X132495076Y-115540640D01*
X132432198Y-115431733D01*
X132432194Y-115431728D01*
X132343271Y-115342805D01*
X132343266Y-115342801D01*
X132234359Y-115279923D01*
X132234355Y-115279921D01*
X132112883Y-115247373D01*
X132112881Y-115247373D01*
X131987119Y-115247373D01*
X131987116Y-115247373D01*
X131865644Y-115279921D01*
X131865640Y-115279923D01*
X131756733Y-115342801D01*
X131756728Y-115342805D01*
X131667805Y-115431728D01*
X131667801Y-115431733D01*
X131604923Y-115540640D01*
X131604921Y-115540644D01*
X131572373Y-115662116D01*
X130451037Y-115662116D01*
X130477627Y-115562881D01*
X130477627Y-115437119D01*
X130458277Y-115364905D01*
X130445078Y-115315644D01*
X130445076Y-115315640D01*
X130382198Y-115206733D01*
X130382194Y-115206728D01*
X130293271Y-115117805D01*
X130293266Y-115117801D01*
X130184359Y-115054923D01*
X130184355Y-115054921D01*
X130062883Y-115022373D01*
X130062881Y-115022373D01*
X129937119Y-115022373D01*
X129937116Y-115022373D01*
X129815644Y-115054921D01*
X129815640Y-115054923D01*
X129706733Y-115117801D01*
X129706728Y-115117805D01*
X129617805Y-115206728D01*
X129617801Y-115206733D01*
X129554923Y-115315640D01*
X129554921Y-115315644D01*
X129522373Y-115437116D01*
X128877626Y-115437116D01*
X128858277Y-115364905D01*
X128845078Y-115315644D01*
X128845076Y-115315640D01*
X128782198Y-115206733D01*
X128782194Y-115206728D01*
X128693271Y-115117805D01*
X128693266Y-115117801D01*
X128584359Y-115054923D01*
X128584355Y-115054921D01*
X128462883Y-115022373D01*
X128462881Y-115022373D01*
X128337119Y-115022373D01*
X128337116Y-115022373D01*
X128215644Y-115054921D01*
X128215640Y-115054923D01*
X128106733Y-115117801D01*
X128106728Y-115117805D01*
X128017805Y-115206728D01*
X128017801Y-115206733D01*
X127954923Y-115315640D01*
X127954921Y-115315644D01*
X127922373Y-115437116D01*
X127372086Y-115437116D01*
X127360590Y-115349792D01*
X127360588Y-115349783D01*
X127302615Y-115209826D01*
X127302609Y-115209816D01*
X127249407Y-115140483D01*
X127089120Y-115300770D01*
X127080070Y-115285095D01*
X127014905Y-115219930D01*
X126999228Y-115210879D01*
X127159516Y-115050592D01*
X127159515Y-115050591D01*
X127090184Y-114997390D01*
X127090174Y-114997384D01*
X126950216Y-114939412D01*
X126950207Y-114939409D01*
X126800000Y-114919635D01*
X126649792Y-114939409D01*
X126649783Y-114939411D01*
X126509826Y-114997384D01*
X126509812Y-114997393D01*
X126440483Y-115050590D01*
X126440483Y-115050591D01*
X126600771Y-115210879D01*
X126585095Y-115219930D01*
X126519930Y-115285095D01*
X126510879Y-115300771D01*
X126350591Y-115140483D01*
X126350590Y-115140483D01*
X126297393Y-115209812D01*
X126297384Y-115209826D01*
X126239411Y-115349783D01*
X126239409Y-115349792D01*
X126219635Y-115500000D01*
X125171612Y-115500000D01*
X125132198Y-115431733D01*
X125132194Y-115431728D01*
X125043271Y-115342805D01*
X125043266Y-115342801D01*
X124934359Y-115279923D01*
X124934355Y-115279921D01*
X124812883Y-115247373D01*
X124812881Y-115247373D01*
X124687119Y-115247373D01*
X124687116Y-115247373D01*
X124565644Y-115279921D01*
X124565640Y-115279923D01*
X124456733Y-115342801D01*
X124456728Y-115342805D01*
X124367805Y-115431728D01*
X124367801Y-115431733D01*
X124304923Y-115540640D01*
X124304921Y-115540644D01*
X124272373Y-115662116D01*
X123931882Y-115662116D01*
X123931882Y-110350534D01*
X125232373Y-110350534D01*
X125232373Y-110489465D01*
X125268328Y-110623653D01*
X125268330Y-110623656D01*
X125337793Y-110743971D01*
X125436029Y-110842207D01*
X125556344Y-110911670D01*
X125556346Y-110911670D01*
X125556347Y-110911671D01*
X125556345Y-110911671D01*
X125662176Y-110940027D01*
X125690534Y-110947626D01*
X125690536Y-110947627D01*
X125690537Y-110947627D01*
X125829464Y-110947627D01*
X125829464Y-110947626D01*
X125923787Y-110922352D01*
X125963653Y-110911671D01*
X125963653Y-110911670D01*
X125963656Y-110911670D01*
X126083971Y-110842207D01*
X126182207Y-110743971D01*
X126251670Y-110623656D01*
X126287627Y-110489463D01*
X126287627Y-110356436D01*
X140176734Y-110356436D01*
X140176734Y-110356437D01*
X140602921Y-110356437D01*
X140600000Y-110367339D01*
X140600000Y-110472661D01*
X140602921Y-110483563D01*
X140176734Y-110483563D01*
X140188188Y-110592556D01*
X140241804Y-110757566D01*
X140328559Y-110907830D01*
X140444655Y-111036770D01*
X140444656Y-111036771D01*
X140585022Y-111138752D01*
X140585027Y-111138756D01*
X140743526Y-111209325D01*
X140743534Y-111209327D01*
X140913244Y-111245399D01*
X140913245Y-111245400D01*
X140936437Y-111245400D01*
X140936437Y-110817078D01*
X140947339Y-110820000D01*
X141052661Y-110820000D01*
X141063563Y-110817078D01*
X141063563Y-111245400D01*
X141086755Y-111245400D01*
X141086755Y-111245399D01*
X141256465Y-111209327D01*
X141256473Y-111209325D01*
X141414972Y-111138756D01*
X141414977Y-111138752D01*
X141555343Y-111036771D01*
X141555344Y-111036770D01*
X141671440Y-110907830D01*
X141758195Y-110757566D01*
X141811811Y-110592556D01*
X141823265Y-110483563D01*
X141397079Y-110483563D01*
X141400000Y-110472661D01*
X141400000Y-110367339D01*
X141397079Y-110356437D01*
X141823266Y-110356437D01*
X141823265Y-110356436D01*
X141811811Y-110247443D01*
X141758195Y-110082433D01*
X141671440Y-109932169D01*
X141555344Y-109803229D01*
X141555343Y-109803228D01*
X141414977Y-109701247D01*
X141414972Y-109701243D01*
X141256473Y-109630674D01*
X141256465Y-109630672D01*
X141086755Y-109594600D01*
X141063563Y-109594600D01*
X141063563Y-110022921D01*
X141052661Y-110020000D01*
X140947339Y-110020000D01*
X140936437Y-110022921D01*
X140936437Y-109594600D01*
X140913245Y-109594600D01*
X140743534Y-109630672D01*
X140743526Y-109630674D01*
X140585029Y-109701243D01*
X140444656Y-109803229D01*
X140328559Y-109932169D01*
X140241804Y-110082433D01*
X140188188Y-110247443D01*
X140176734Y-110356436D01*
X126287627Y-110356436D01*
X126287627Y-110350537D01*
X126251670Y-110216344D01*
X126182207Y-110096029D01*
X126083971Y-109997793D01*
X125963656Y-109928330D01*
X125963655Y-109928329D01*
X125963652Y-109928328D01*
X125963654Y-109928328D01*
X125829465Y-109892373D01*
X125829463Y-109892373D01*
X125690537Y-109892373D01*
X125690534Y-109892373D01*
X125556346Y-109928328D01*
X125436027Y-109997794D01*
X125337794Y-110096027D01*
X125268328Y-110216346D01*
X125232373Y-110350534D01*
X123931882Y-110350534D01*
X123931882Y-107810534D01*
X125232373Y-107810534D01*
X125232373Y-107949465D01*
X125268328Y-108083653D01*
X125268330Y-108083656D01*
X125337793Y-108203971D01*
X125436029Y-108302207D01*
X125556344Y-108371670D01*
X125556346Y-108371670D01*
X125556347Y-108371671D01*
X125556345Y-108371671D01*
X125662176Y-108400027D01*
X125690534Y-108407626D01*
X125690536Y-108407627D01*
X125690537Y-108407627D01*
X125829464Y-108407627D01*
X125829464Y-108407626D01*
X125923787Y-108382352D01*
X125963653Y-108371671D01*
X125963653Y-108371670D01*
X125963656Y-108371670D01*
X126083971Y-108302207D01*
X126182207Y-108203971D01*
X126251670Y-108083656D01*
X126287627Y-107949463D01*
X126287627Y-107810537D01*
X126287626Y-107810534D01*
X140472373Y-107810534D01*
X140472373Y-107949465D01*
X140508328Y-108083653D01*
X140508330Y-108083656D01*
X140577793Y-108203971D01*
X140676029Y-108302207D01*
X140796344Y-108371670D01*
X140796346Y-108371670D01*
X140796347Y-108371671D01*
X140796345Y-108371671D01*
X140902176Y-108400027D01*
X140930534Y-108407626D01*
X140930536Y-108407627D01*
X140930537Y-108407627D01*
X141069464Y-108407627D01*
X141069464Y-108407626D01*
X141163787Y-108382352D01*
X141203653Y-108371671D01*
X141203653Y-108371670D01*
X141203656Y-108371670D01*
X141323971Y-108302207D01*
X141422207Y-108203971D01*
X141491670Y-108083656D01*
X141527627Y-107949463D01*
X141527627Y-107810537D01*
X141491670Y-107676344D01*
X141422207Y-107556029D01*
X141323971Y-107457793D01*
X141203656Y-107388330D01*
X141203655Y-107388329D01*
X141203652Y-107388328D01*
X141203654Y-107388328D01*
X141069465Y-107352373D01*
X141069463Y-107352373D01*
X140930537Y-107352373D01*
X140930534Y-107352373D01*
X140796346Y-107388328D01*
X140676027Y-107457794D01*
X140577794Y-107556027D01*
X140508328Y-107676346D01*
X140472373Y-107810534D01*
X126287626Y-107810534D01*
X126251670Y-107676344D01*
X126182207Y-107556029D01*
X126083971Y-107457793D01*
X125963656Y-107388330D01*
X125963655Y-107388329D01*
X125963652Y-107388328D01*
X125963654Y-107388328D01*
X125829465Y-107352373D01*
X125829463Y-107352373D01*
X125690537Y-107352373D01*
X125690534Y-107352373D01*
X125556346Y-107388328D01*
X125436027Y-107457794D01*
X125337794Y-107556027D01*
X125268328Y-107676346D01*
X125232373Y-107810534D01*
X123931882Y-107810534D01*
X123931882Y-106447500D01*
X173574600Y-106447500D01*
X173574600Y-107586437D01*
X174200000Y-107586437D01*
X174200000Y-107713563D01*
X173574600Y-107713563D01*
X173574600Y-108852499D01*
X173576073Y-108859911D01*
X173581686Y-108868312D01*
X173581687Y-108868313D01*
X173590088Y-108873926D01*
X173597501Y-108875400D01*
X174736437Y-108875400D01*
X174736437Y-108250000D01*
X174863563Y-108250000D01*
X174863563Y-108875400D01*
X176002499Y-108875400D01*
X176009911Y-108873926D01*
X176018312Y-108868313D01*
X176018313Y-108868312D01*
X176023926Y-108859911D01*
X176025400Y-108852499D01*
X176025400Y-107713563D01*
X175400000Y-107713563D01*
X175400000Y-107586437D01*
X176025400Y-107586437D01*
X176025400Y-106447500D01*
X176023926Y-106440088D01*
X176018313Y-106431687D01*
X176018312Y-106431686D01*
X176009911Y-106426073D01*
X176002499Y-106424600D01*
X174863563Y-106424600D01*
X174863563Y-107050000D01*
X174736437Y-107050000D01*
X174736437Y-106424600D01*
X173597501Y-106424600D01*
X173590088Y-106426073D01*
X173581687Y-106431686D01*
X173581686Y-106431687D01*
X173576073Y-106440088D01*
X173574600Y-106447500D01*
X123931882Y-106447500D01*
X123931882Y-105270534D01*
X125232373Y-105270534D01*
X125232373Y-105409465D01*
X125268328Y-105543653D01*
X125268330Y-105543656D01*
X125337793Y-105663971D01*
X125436029Y-105762207D01*
X125556344Y-105831670D01*
X125556346Y-105831670D01*
X125556347Y-105831671D01*
X125556345Y-105831671D01*
X125662176Y-105860027D01*
X125690534Y-105867626D01*
X125690536Y-105867627D01*
X125690537Y-105867627D01*
X125829464Y-105867627D01*
X125829464Y-105867626D01*
X125923787Y-105842352D01*
X125963653Y-105831671D01*
X125963653Y-105831670D01*
X125963656Y-105831670D01*
X126083971Y-105762207D01*
X126182207Y-105663971D01*
X126251670Y-105543656D01*
X126287627Y-105409463D01*
X126287627Y-105270537D01*
X126287626Y-105270534D01*
X140472373Y-105270534D01*
X140472373Y-105409465D01*
X140508328Y-105543653D01*
X140508330Y-105543656D01*
X140577793Y-105663971D01*
X140676029Y-105762207D01*
X140796344Y-105831670D01*
X140796346Y-105831670D01*
X140796347Y-105831671D01*
X140796345Y-105831671D01*
X140902176Y-105860027D01*
X140930534Y-105867626D01*
X140930536Y-105867627D01*
X140930537Y-105867627D01*
X141069464Y-105867627D01*
X141069464Y-105867626D01*
X141163787Y-105842352D01*
X141203653Y-105831671D01*
X141203653Y-105831670D01*
X141203656Y-105831670D01*
X141323971Y-105762207D01*
X141422207Y-105663971D01*
X141491670Y-105543656D01*
X141527627Y-105409463D01*
X141527627Y-105270537D01*
X141491670Y-105136344D01*
X141422207Y-105016029D01*
X141323971Y-104917793D01*
X141203656Y-104848330D01*
X141203655Y-104848329D01*
X141203652Y-104848328D01*
X141203654Y-104848328D01*
X141069465Y-104812373D01*
X141069463Y-104812373D01*
X140930537Y-104812373D01*
X140930534Y-104812373D01*
X140796346Y-104848328D01*
X140676027Y-104917794D01*
X140577794Y-105016027D01*
X140508328Y-105136346D01*
X140472373Y-105270534D01*
X126287626Y-105270534D01*
X126251670Y-105136344D01*
X126182207Y-105016029D01*
X126083971Y-104917793D01*
X125963656Y-104848330D01*
X125963655Y-104848329D01*
X125963652Y-104848328D01*
X125963654Y-104848328D01*
X125829465Y-104812373D01*
X125829463Y-104812373D01*
X125690537Y-104812373D01*
X125690534Y-104812373D01*
X125556346Y-104848328D01*
X125436027Y-104917794D01*
X125337794Y-105016027D01*
X125268328Y-105136346D01*
X125232373Y-105270534D01*
X123931882Y-105270534D01*
X123931882Y-104149994D01*
X173569919Y-104149994D01*
X173569919Y-104150005D01*
X173588606Y-104363599D01*
X173588607Y-104363606D01*
X173644101Y-104570710D01*
X173734718Y-104765039D01*
X173857700Y-104940676D01*
X173857708Y-104940686D01*
X173888565Y-104971543D01*
X174330790Y-104529317D01*
X174420682Y-104619209D01*
X173978457Y-105061435D01*
X174009313Y-105092291D01*
X174009323Y-105092299D01*
X174184960Y-105215281D01*
X174379289Y-105305898D01*
X174586393Y-105361392D01*
X174586400Y-105361393D01*
X174799995Y-105380081D01*
X174800005Y-105380081D01*
X175013599Y-105361393D01*
X175013606Y-105361392D01*
X175220710Y-105305898D01*
X175415039Y-105215281D01*
X175590676Y-105092299D01*
X175590686Y-105092291D01*
X175621543Y-105061435D01*
X175179317Y-104619209D01*
X175269209Y-104529317D01*
X175711435Y-104971543D01*
X175742291Y-104940686D01*
X175742299Y-104940676D01*
X175865281Y-104765039D01*
X175955898Y-104570710D01*
X176011392Y-104363606D01*
X176011393Y-104363599D01*
X176030081Y-104150005D01*
X176030081Y-104149994D01*
X176011393Y-103936400D01*
X176011392Y-103936393D01*
X175955898Y-103729289D01*
X175865281Y-103534961D01*
X175742299Y-103359323D01*
X175742291Y-103359313D01*
X175711435Y-103328457D01*
X175269209Y-103770682D01*
X175179317Y-103680790D01*
X175621543Y-103238565D01*
X175590686Y-103207708D01*
X175590676Y-103207700D01*
X175415039Y-103084718D01*
X175220710Y-102994101D01*
X175013606Y-102938607D01*
X175013599Y-102938606D01*
X174800005Y-102919919D01*
X174799995Y-102919919D01*
X174586400Y-102938606D01*
X174586393Y-102938607D01*
X174379289Y-102994101D01*
X174184961Y-103084718D01*
X174009323Y-103207700D01*
X174009313Y-103207708D01*
X173978457Y-103238565D01*
X174420682Y-103680790D01*
X174330790Y-103770682D01*
X173888565Y-103328457D01*
X173857708Y-103359313D01*
X173857700Y-103359323D01*
X173734718Y-103534961D01*
X173644101Y-103729289D01*
X173588607Y-103936393D01*
X173588606Y-103936400D01*
X173569919Y-104149994D01*
X123931882Y-104149994D01*
X123931882Y-102730534D01*
X125232373Y-102730534D01*
X125232373Y-102869465D01*
X125268328Y-103003653D01*
X125268330Y-103003656D01*
X125337793Y-103123971D01*
X125436029Y-103222207D01*
X125556344Y-103291670D01*
X125556346Y-103291670D01*
X125556347Y-103291671D01*
X125556345Y-103291671D01*
X125662176Y-103320027D01*
X125690534Y-103327626D01*
X125690536Y-103327627D01*
X125690537Y-103327627D01*
X125829464Y-103327627D01*
X125829464Y-103327626D01*
X125923787Y-103302352D01*
X125963653Y-103291671D01*
X125963653Y-103291670D01*
X125963656Y-103291670D01*
X126083971Y-103222207D01*
X126182207Y-103123971D01*
X126251670Y-103003656D01*
X126287627Y-102869463D01*
X126287627Y-102730537D01*
X126287626Y-102730534D01*
X140472373Y-102730534D01*
X140472373Y-102869465D01*
X140508328Y-103003653D01*
X140508330Y-103003656D01*
X140577793Y-103123971D01*
X140676029Y-103222207D01*
X140796344Y-103291670D01*
X140796346Y-103291670D01*
X140796347Y-103291671D01*
X140796345Y-103291671D01*
X140902176Y-103320027D01*
X140930534Y-103327626D01*
X140930536Y-103327627D01*
X140930537Y-103327627D01*
X141069464Y-103327627D01*
X141069464Y-103327626D01*
X141163787Y-103302352D01*
X141203653Y-103291671D01*
X141203653Y-103291670D01*
X141203656Y-103291670D01*
X141323971Y-103222207D01*
X141422207Y-103123971D01*
X141491670Y-103003656D01*
X141527627Y-102869463D01*
X141527627Y-102730537D01*
X141491670Y-102596344D01*
X141422207Y-102476029D01*
X141323971Y-102377793D01*
X141203656Y-102308330D01*
X141203655Y-102308329D01*
X141203652Y-102308328D01*
X141203654Y-102308328D01*
X141069465Y-102272373D01*
X141069463Y-102272373D01*
X140930537Y-102272373D01*
X140930534Y-102272373D01*
X140796346Y-102308328D01*
X140676027Y-102377794D01*
X140577794Y-102476027D01*
X140508328Y-102596346D01*
X140472373Y-102730534D01*
X126287626Y-102730534D01*
X126251670Y-102596344D01*
X126182207Y-102476029D01*
X126083971Y-102377793D01*
X125963656Y-102308330D01*
X125963655Y-102308329D01*
X125963652Y-102308328D01*
X125963654Y-102308328D01*
X125829465Y-102272373D01*
X125829463Y-102272373D01*
X125690537Y-102272373D01*
X125690534Y-102272373D01*
X125556346Y-102308328D01*
X125436027Y-102377794D01*
X125337794Y-102476027D01*
X125268328Y-102596346D01*
X125232373Y-102730534D01*
X123931882Y-102730534D01*
X123931882Y-100190534D01*
X125232373Y-100190534D01*
X125232373Y-100329465D01*
X125268328Y-100463653D01*
X125268330Y-100463656D01*
X125337793Y-100583971D01*
X125436029Y-100682207D01*
X125556344Y-100751670D01*
X125556346Y-100751670D01*
X125556347Y-100751671D01*
X125556345Y-100751671D01*
X125662176Y-100780027D01*
X125690534Y-100787626D01*
X125690536Y-100787627D01*
X125690537Y-100787627D01*
X125829464Y-100787627D01*
X125829464Y-100787626D01*
X125923787Y-100762352D01*
X125963653Y-100751671D01*
X125963653Y-100751670D01*
X125963656Y-100751670D01*
X126083971Y-100682207D01*
X126182207Y-100583971D01*
X126251670Y-100463656D01*
X126287627Y-100329463D01*
X126287627Y-100190537D01*
X126287626Y-100190534D01*
X140472373Y-100190534D01*
X140472373Y-100329465D01*
X140508328Y-100463653D01*
X140508330Y-100463656D01*
X140577793Y-100583971D01*
X140676029Y-100682207D01*
X140796344Y-100751670D01*
X140796346Y-100751670D01*
X140796347Y-100751671D01*
X140796345Y-100751671D01*
X140902176Y-100780027D01*
X140930534Y-100787626D01*
X140930536Y-100787627D01*
X140930537Y-100787627D01*
X141069464Y-100787627D01*
X141069464Y-100787626D01*
X141163787Y-100762352D01*
X141203653Y-100751671D01*
X141203653Y-100751670D01*
X141203656Y-100751670D01*
X141323971Y-100682207D01*
X141422207Y-100583971D01*
X141425461Y-100578335D01*
X174072373Y-100578335D01*
X174072373Y-100721665D01*
X174085493Y-100787626D01*
X174100335Y-100862241D01*
X174155184Y-100994659D01*
X174155188Y-100994667D01*
X174234814Y-101113834D01*
X174234817Y-101113838D01*
X174336161Y-101215182D01*
X174336165Y-101215185D01*
X174455332Y-101294811D01*
X174455336Y-101294813D01*
X174455339Y-101294815D01*
X174587759Y-101349665D01*
X174728335Y-101377627D01*
X174728336Y-101377627D01*
X174871664Y-101377627D01*
X174871665Y-101377627D01*
X175012241Y-101349665D01*
X175144661Y-101294815D01*
X175263835Y-101215185D01*
X175365185Y-101113835D01*
X175444815Y-100994661D01*
X175499665Y-100862241D01*
X175527627Y-100721665D01*
X175527627Y-100578335D01*
X175499665Y-100437759D01*
X175444815Y-100305339D01*
X175444813Y-100305336D01*
X175444811Y-100305332D01*
X175365185Y-100186165D01*
X175365182Y-100186161D01*
X175263838Y-100084817D01*
X175263834Y-100084814D01*
X175144667Y-100005188D01*
X175144659Y-100005184D01*
X175012241Y-99950335D01*
X174940309Y-99936027D01*
X174871665Y-99922373D01*
X174728335Y-99922373D01*
X174659691Y-99936027D01*
X174587758Y-99950335D01*
X174455340Y-100005184D01*
X174455332Y-100005188D01*
X174336165Y-100084814D01*
X174336161Y-100084817D01*
X174234817Y-100186161D01*
X174234814Y-100186165D01*
X174155188Y-100305332D01*
X174155184Y-100305340D01*
X174100335Y-100437758D01*
X174100335Y-100437759D01*
X174072373Y-100578335D01*
X141425461Y-100578335D01*
X141491670Y-100463656D01*
X141527627Y-100329463D01*
X141527627Y-100190537D01*
X141516944Y-100150668D01*
X141491671Y-100056346D01*
X141462135Y-100005188D01*
X141422207Y-99936029D01*
X141323971Y-99837793D01*
X141203656Y-99768330D01*
X141203655Y-99768329D01*
X141203652Y-99768328D01*
X141203654Y-99768328D01*
X141069465Y-99732373D01*
X141069463Y-99732373D01*
X140930537Y-99732373D01*
X140930534Y-99732373D01*
X140796346Y-99768328D01*
X140676027Y-99837794D01*
X140577794Y-99936027D01*
X140508328Y-100056346D01*
X140472373Y-100190534D01*
X126287626Y-100190534D01*
X126276944Y-100150668D01*
X126251671Y-100056346D01*
X126222135Y-100005188D01*
X126182207Y-99936029D01*
X126083971Y-99837793D01*
X125963656Y-99768330D01*
X125963655Y-99768329D01*
X125963652Y-99768328D01*
X125963654Y-99768328D01*
X125829465Y-99732373D01*
X125829463Y-99732373D01*
X125690537Y-99732373D01*
X125690534Y-99732373D01*
X125556346Y-99768328D01*
X125436027Y-99837794D01*
X125337794Y-99936027D01*
X125268328Y-100056346D01*
X125232373Y-100190534D01*
X123931882Y-100190534D01*
X123931882Y-97650534D01*
X125232373Y-97650534D01*
X125232373Y-97789465D01*
X125268328Y-97923653D01*
X125268330Y-97923656D01*
X125337793Y-98043971D01*
X125436029Y-98142207D01*
X125556344Y-98211670D01*
X125556346Y-98211670D01*
X125556347Y-98211671D01*
X125556345Y-98211671D01*
X125662176Y-98240027D01*
X125690534Y-98247626D01*
X125690536Y-98247627D01*
X125690537Y-98247627D01*
X125829464Y-98247627D01*
X125829464Y-98247626D01*
X125923787Y-98222352D01*
X125963653Y-98211671D01*
X125963653Y-98211670D01*
X125963656Y-98211670D01*
X126083971Y-98142207D01*
X126182207Y-98043971D01*
X126251670Y-97923656D01*
X126287627Y-97789463D01*
X126287627Y-97650537D01*
X126287626Y-97650534D01*
X140472373Y-97650534D01*
X140472373Y-97789465D01*
X140508328Y-97923653D01*
X140508330Y-97923656D01*
X140577793Y-98043971D01*
X140676029Y-98142207D01*
X140796344Y-98211670D01*
X140796346Y-98211670D01*
X140796347Y-98211671D01*
X140796345Y-98211671D01*
X140902176Y-98240027D01*
X140930534Y-98247626D01*
X140930536Y-98247627D01*
X140930537Y-98247627D01*
X141069464Y-98247627D01*
X141069464Y-98247626D01*
X141163787Y-98222352D01*
X141203653Y-98211671D01*
X141203653Y-98211670D01*
X141203656Y-98211670D01*
X141323971Y-98142207D01*
X141422207Y-98043971D01*
X141491670Y-97923656D01*
X141527627Y-97789463D01*
X141527627Y-97650537D01*
X141491670Y-97516344D01*
X141422207Y-97396029D01*
X141323971Y-97297793D01*
X141203656Y-97228330D01*
X141203655Y-97228329D01*
X141203652Y-97228328D01*
X141203654Y-97228328D01*
X141069465Y-97192373D01*
X141069463Y-97192373D01*
X140930537Y-97192373D01*
X140930534Y-97192373D01*
X140796346Y-97228328D01*
X140676027Y-97297794D01*
X140577794Y-97396027D01*
X140508328Y-97516346D01*
X140472373Y-97650534D01*
X126287626Y-97650534D01*
X126251670Y-97516344D01*
X126182207Y-97396029D01*
X126083971Y-97297793D01*
X125963656Y-97228330D01*
X125963655Y-97228329D01*
X125963652Y-97228328D01*
X125963654Y-97228328D01*
X125829465Y-97192373D01*
X125829463Y-97192373D01*
X125690537Y-97192373D01*
X125690534Y-97192373D01*
X125556346Y-97228328D01*
X125436027Y-97297794D01*
X125337794Y-97396027D01*
X125268328Y-97516346D01*
X125232373Y-97650534D01*
X123931882Y-97650534D01*
X123931882Y-97078335D01*
X174072373Y-97078335D01*
X174072373Y-97221665D01*
X174073699Y-97228330D01*
X174100335Y-97362241D01*
X174155184Y-97494659D01*
X174155188Y-97494667D01*
X174234814Y-97613834D01*
X174234817Y-97613838D01*
X174336161Y-97715182D01*
X174336165Y-97715185D01*
X174455332Y-97794811D01*
X174455336Y-97794813D01*
X174455339Y-97794815D01*
X174587759Y-97849665D01*
X174728335Y-97877627D01*
X174728336Y-97877627D01*
X174871664Y-97877627D01*
X174871665Y-97877627D01*
X175012241Y-97849665D01*
X175144661Y-97794815D01*
X175263835Y-97715185D01*
X175365185Y-97613835D01*
X175444815Y-97494661D01*
X175499665Y-97362241D01*
X175527627Y-97221665D01*
X175527627Y-97078335D01*
X175499665Y-96937759D01*
X175444815Y-96805339D01*
X175444813Y-96805336D01*
X175444811Y-96805332D01*
X175365185Y-96686165D01*
X175365182Y-96686161D01*
X175263838Y-96584817D01*
X175263834Y-96584814D01*
X175144667Y-96505188D01*
X175144659Y-96505184D01*
X175012241Y-96450335D01*
X174871665Y-96422373D01*
X174728335Y-96422373D01*
X174658047Y-96436354D01*
X174587758Y-96450335D01*
X174455340Y-96505184D01*
X174455332Y-96505188D01*
X174336165Y-96584814D01*
X174336161Y-96584817D01*
X174234817Y-96686161D01*
X174234814Y-96686165D01*
X174155188Y-96805332D01*
X174155184Y-96805340D01*
X174100335Y-96937758D01*
X174100335Y-96937759D01*
X174072373Y-97078335D01*
X123931882Y-97078335D01*
X123931882Y-95110534D01*
X125232373Y-95110534D01*
X125232373Y-95249465D01*
X125268328Y-95383653D01*
X125268330Y-95383656D01*
X125337793Y-95503971D01*
X125436029Y-95602207D01*
X125556344Y-95671670D01*
X125556346Y-95671670D01*
X125556347Y-95671671D01*
X125556345Y-95671671D01*
X125662176Y-95700027D01*
X125690534Y-95707626D01*
X125690536Y-95707627D01*
X125690537Y-95707627D01*
X125829464Y-95707627D01*
X125829464Y-95707626D01*
X125923787Y-95682352D01*
X125963653Y-95671671D01*
X125963653Y-95671670D01*
X125963656Y-95671670D01*
X126083971Y-95602207D01*
X126182207Y-95503971D01*
X126251670Y-95383656D01*
X126287627Y-95249463D01*
X126287627Y-95110537D01*
X126287626Y-95110534D01*
X140472373Y-95110534D01*
X140472373Y-95249465D01*
X140508328Y-95383653D01*
X140508330Y-95383656D01*
X140577793Y-95503971D01*
X140676029Y-95602207D01*
X140796344Y-95671670D01*
X140796346Y-95671670D01*
X140796347Y-95671671D01*
X140796345Y-95671671D01*
X140902176Y-95700027D01*
X140930534Y-95707626D01*
X140930536Y-95707627D01*
X140930537Y-95707627D01*
X141069464Y-95707627D01*
X141069464Y-95707626D01*
X141163787Y-95682352D01*
X141203653Y-95671671D01*
X141203653Y-95671670D01*
X141203656Y-95671670D01*
X141323971Y-95602207D01*
X141422207Y-95503971D01*
X141491670Y-95383656D01*
X141527627Y-95249463D01*
X141527627Y-95110537D01*
X141491670Y-94976344D01*
X141422207Y-94856029D01*
X141323971Y-94757793D01*
X141203656Y-94688330D01*
X141203655Y-94688329D01*
X141203652Y-94688328D01*
X141203654Y-94688328D01*
X141069465Y-94652373D01*
X141069463Y-94652373D01*
X140930537Y-94652373D01*
X140930534Y-94652373D01*
X140796346Y-94688328D01*
X140676027Y-94757794D01*
X140577794Y-94856027D01*
X140508328Y-94976346D01*
X140472373Y-95110534D01*
X126287626Y-95110534D01*
X126251670Y-94976344D01*
X126182207Y-94856029D01*
X126083971Y-94757793D01*
X125963656Y-94688330D01*
X125963655Y-94688329D01*
X125963652Y-94688328D01*
X125963654Y-94688328D01*
X125829465Y-94652373D01*
X125829463Y-94652373D01*
X125690537Y-94652373D01*
X125690534Y-94652373D01*
X125556346Y-94688328D01*
X125436027Y-94757794D01*
X125337794Y-94856027D01*
X125268328Y-94976346D01*
X125232373Y-95110534D01*
X123931882Y-95110534D01*
X123931882Y-94508184D01*
X166722373Y-94508184D01*
X166722373Y-94631815D01*
X166746492Y-94753072D01*
X166793803Y-94867291D01*
X166793807Y-94867299D01*
X166862489Y-94970088D01*
X166862492Y-94970092D01*
X166949907Y-95057507D01*
X166949911Y-95057510D01*
X167052700Y-95126192D01*
X167052704Y-95126194D01*
X167052707Y-95126196D01*
X167166928Y-95173508D01*
X167288184Y-95197627D01*
X167288185Y-95197627D01*
X167411815Y-95197627D01*
X167411816Y-95197627D01*
X167533072Y-95173508D01*
X167647293Y-95126196D01*
X167750089Y-95057510D01*
X167837510Y-94970089D01*
X167906196Y-94867293D01*
X167953508Y-94753072D01*
X167977627Y-94631816D01*
X167977627Y-94508184D01*
X167953508Y-94386928D01*
X167906196Y-94272707D01*
X167906194Y-94272704D01*
X167906192Y-94272700D01*
X167837510Y-94169911D01*
X167837507Y-94169907D01*
X167750092Y-94082492D01*
X167750088Y-94082489D01*
X167647299Y-94013807D01*
X167647291Y-94013803D01*
X167533072Y-93966492D01*
X167411816Y-93942373D01*
X167288184Y-93942373D01*
X167227556Y-93954432D01*
X167166927Y-93966492D01*
X167052708Y-94013803D01*
X167052700Y-94013807D01*
X166949911Y-94082489D01*
X166949907Y-94082492D01*
X166862492Y-94169907D01*
X166862489Y-94169911D01*
X166793807Y-94272700D01*
X166793803Y-94272708D01*
X166746492Y-94386927D01*
X166722373Y-94508184D01*
X123931882Y-94508184D01*
X123931882Y-93578335D01*
X174072373Y-93578335D01*
X174072373Y-93721664D01*
X174100335Y-93862241D01*
X174155184Y-93994659D01*
X174155188Y-93994667D01*
X174234814Y-94113834D01*
X174234817Y-94113838D01*
X174336161Y-94215182D01*
X174336165Y-94215185D01*
X174455332Y-94294811D01*
X174455336Y-94294813D01*
X174455339Y-94294815D01*
X174587759Y-94349665D01*
X174728335Y-94377627D01*
X174728336Y-94377627D01*
X174871664Y-94377627D01*
X174871665Y-94377627D01*
X175012241Y-94349665D01*
X175144661Y-94294815D01*
X175263835Y-94215185D01*
X175365185Y-94113835D01*
X175444815Y-93994661D01*
X175499665Y-93862241D01*
X175527627Y-93721665D01*
X175527627Y-93578335D01*
X175499665Y-93437759D01*
X175444815Y-93305339D01*
X175444813Y-93305336D01*
X175444811Y-93305332D01*
X175365185Y-93186165D01*
X175365182Y-93186161D01*
X175263838Y-93084817D01*
X175263834Y-93084814D01*
X175144667Y-93005188D01*
X175144659Y-93005184D01*
X175012241Y-92950335D01*
X174871665Y-92922373D01*
X174728335Y-92922373D01*
X174658047Y-92936354D01*
X174587758Y-92950335D01*
X174455340Y-93005184D01*
X174455332Y-93005188D01*
X174336165Y-93084814D01*
X174336161Y-93084817D01*
X174234817Y-93186161D01*
X174234814Y-93186165D01*
X174155188Y-93305332D01*
X174155184Y-93305340D01*
X174100335Y-93437758D01*
X174072373Y-93578335D01*
X123931882Y-93578335D01*
X123931882Y-92570534D01*
X125232373Y-92570534D01*
X125232373Y-92709465D01*
X125268328Y-92843653D01*
X125268330Y-92843656D01*
X125337793Y-92963971D01*
X125436029Y-93062207D01*
X125556344Y-93131670D01*
X125556346Y-93131670D01*
X125556347Y-93131671D01*
X125556345Y-93131671D01*
X125662176Y-93160027D01*
X125690534Y-93167626D01*
X125690536Y-93167627D01*
X125690537Y-93167627D01*
X125829464Y-93167627D01*
X125829464Y-93167626D01*
X125923787Y-93142352D01*
X125963653Y-93131671D01*
X125963653Y-93131670D01*
X125963656Y-93131670D01*
X126083971Y-93062207D01*
X126182207Y-92963971D01*
X126251670Y-92843656D01*
X126287627Y-92709463D01*
X126287627Y-92570537D01*
X126287626Y-92570534D01*
X140472373Y-92570534D01*
X140472373Y-92709465D01*
X140508328Y-92843653D01*
X140508330Y-92843656D01*
X140577793Y-92963971D01*
X140676029Y-93062207D01*
X140796344Y-93131670D01*
X140796346Y-93131670D01*
X140796347Y-93131671D01*
X140796345Y-93131671D01*
X140902176Y-93160027D01*
X140930534Y-93167626D01*
X140930536Y-93167627D01*
X140930537Y-93167627D01*
X141069464Y-93167627D01*
X141069464Y-93167626D01*
X141163787Y-93142352D01*
X141203653Y-93131671D01*
X141203653Y-93131670D01*
X141203656Y-93131670D01*
X141323971Y-93062207D01*
X141422207Y-92963971D01*
X141491670Y-92843656D01*
X141527627Y-92709463D01*
X141527627Y-92570537D01*
X141491670Y-92436344D01*
X141422207Y-92316029D01*
X141323971Y-92217793D01*
X141203656Y-92148330D01*
X141203655Y-92148329D01*
X141203652Y-92148328D01*
X141203654Y-92148328D01*
X141069465Y-92112373D01*
X141069463Y-92112373D01*
X140930537Y-92112373D01*
X140930534Y-92112373D01*
X140796346Y-92148328D01*
X140676027Y-92217794D01*
X140577794Y-92316027D01*
X140508328Y-92436346D01*
X140472373Y-92570534D01*
X126287626Y-92570534D01*
X126251670Y-92436344D01*
X126182207Y-92316029D01*
X126083971Y-92217793D01*
X125963656Y-92148330D01*
X125963655Y-92148329D01*
X125963652Y-92148328D01*
X125963654Y-92148328D01*
X125829465Y-92112373D01*
X125829463Y-92112373D01*
X125690537Y-92112373D01*
X125690534Y-92112373D01*
X125556346Y-92148328D01*
X125436027Y-92217794D01*
X125337794Y-92316027D01*
X125268328Y-92436346D01*
X125232373Y-92570534D01*
X123931882Y-92570534D01*
X123931882Y-91968184D01*
X166722373Y-91968184D01*
X166722373Y-92091815D01*
X166746492Y-92213072D01*
X166793803Y-92327291D01*
X166793807Y-92327299D01*
X166862489Y-92430088D01*
X166862492Y-92430092D01*
X166949907Y-92517507D01*
X166949911Y-92517510D01*
X167052700Y-92586192D01*
X167052704Y-92586194D01*
X167052707Y-92586196D01*
X167166928Y-92633508D01*
X167288184Y-92657627D01*
X167288185Y-92657627D01*
X167411815Y-92657627D01*
X167411816Y-92657627D01*
X167533072Y-92633508D01*
X167647293Y-92586196D01*
X167750089Y-92517510D01*
X167837510Y-92430089D01*
X167906196Y-92327293D01*
X167953508Y-92213072D01*
X167977627Y-92091816D01*
X167977627Y-91968184D01*
X167953508Y-91846928D01*
X167906196Y-91732707D01*
X167906194Y-91732704D01*
X167906192Y-91732700D01*
X167837510Y-91629911D01*
X167837507Y-91629907D01*
X167750092Y-91542492D01*
X167750088Y-91542489D01*
X167647299Y-91473807D01*
X167647291Y-91473803D01*
X167533072Y-91426492D01*
X167411816Y-91402373D01*
X167288184Y-91402373D01*
X167227556Y-91414432D01*
X167166927Y-91426492D01*
X167052708Y-91473803D01*
X167052700Y-91473807D01*
X166949911Y-91542489D01*
X166949907Y-91542492D01*
X166862492Y-91629907D01*
X166862489Y-91629911D01*
X166793807Y-91732700D01*
X166793803Y-91732708D01*
X166746492Y-91846927D01*
X166722373Y-91968184D01*
X123931882Y-91968184D01*
X123931882Y-90030534D01*
X125232373Y-90030534D01*
X125232373Y-90169465D01*
X125268328Y-90303653D01*
X125268330Y-90303656D01*
X125337793Y-90423971D01*
X125436029Y-90522207D01*
X125556344Y-90591670D01*
X125556346Y-90591670D01*
X125556347Y-90591671D01*
X125556345Y-90591671D01*
X125662176Y-90620027D01*
X125690534Y-90627626D01*
X125690536Y-90627627D01*
X125690537Y-90627627D01*
X125829464Y-90627627D01*
X125829464Y-90627626D01*
X125923787Y-90602352D01*
X125963653Y-90591671D01*
X125963653Y-90591670D01*
X125963656Y-90591670D01*
X126083971Y-90522207D01*
X126182207Y-90423971D01*
X126251670Y-90303656D01*
X126287627Y-90169463D01*
X126287627Y-90030537D01*
X126287626Y-90030534D01*
X140472373Y-90030534D01*
X140472373Y-90169465D01*
X140508328Y-90303653D01*
X140508330Y-90303656D01*
X140577793Y-90423971D01*
X140676029Y-90522207D01*
X140796344Y-90591670D01*
X140796346Y-90591670D01*
X140796347Y-90591671D01*
X140796345Y-90591671D01*
X140902176Y-90620027D01*
X140930534Y-90627626D01*
X140930536Y-90627627D01*
X140930537Y-90627627D01*
X141069464Y-90627627D01*
X141069464Y-90627626D01*
X141163787Y-90602352D01*
X141203653Y-90591671D01*
X141203653Y-90591670D01*
X141203656Y-90591670D01*
X141323971Y-90522207D01*
X141422207Y-90423971D01*
X141491670Y-90303656D01*
X141527627Y-90169463D01*
X141527627Y-90030537D01*
X141491670Y-89896344D01*
X141422207Y-89776029D01*
X141323971Y-89677793D01*
X141203656Y-89608330D01*
X141203655Y-89608329D01*
X141203652Y-89608328D01*
X141203654Y-89608328D01*
X141069465Y-89572373D01*
X141069463Y-89572373D01*
X140930537Y-89572373D01*
X140930534Y-89572373D01*
X140796346Y-89608328D01*
X140676027Y-89677794D01*
X140577794Y-89776027D01*
X140508328Y-89896346D01*
X140472373Y-90030534D01*
X126287626Y-90030534D01*
X126251670Y-89896344D01*
X126182207Y-89776029D01*
X126083971Y-89677793D01*
X125963656Y-89608330D01*
X125963655Y-89608329D01*
X125963652Y-89608328D01*
X125963654Y-89608328D01*
X125829465Y-89572373D01*
X125829463Y-89572373D01*
X125690537Y-89572373D01*
X125690534Y-89572373D01*
X125556346Y-89608328D01*
X125436027Y-89677794D01*
X125337794Y-89776027D01*
X125268328Y-89896346D01*
X125232373Y-90030534D01*
X123931882Y-90030534D01*
X123931882Y-89426437D01*
X166476460Y-89426437D01*
X166850000Y-89426437D01*
X166850000Y-89553563D01*
X166476460Y-89553563D01*
X166489012Y-89673008D01*
X166489013Y-89673011D01*
X166545874Y-89848013D01*
X166637885Y-90007381D01*
X166761019Y-90144133D01*
X166909885Y-90252292D01*
X166909890Y-90252296D01*
X167077990Y-90327139D01*
X167077998Y-90327141D01*
X167257989Y-90365399D01*
X167257990Y-90365400D01*
X167286437Y-90365400D01*
X167286437Y-89990000D01*
X167413563Y-89990000D01*
X167413563Y-90365400D01*
X167442010Y-90365400D01*
X167442010Y-90365399D01*
X167622001Y-90327141D01*
X167622009Y-90327139D01*
X167790109Y-90252296D01*
X167790114Y-90252292D01*
X167938980Y-90144133D01*
X167998226Y-90078335D01*
X174072373Y-90078335D01*
X174072373Y-90221664D01*
X174100335Y-90362241D01*
X174155184Y-90494659D01*
X174155188Y-90494667D01*
X174234814Y-90613834D01*
X174234817Y-90613838D01*
X174336161Y-90715182D01*
X174336165Y-90715185D01*
X174455332Y-90794811D01*
X174455336Y-90794813D01*
X174455339Y-90794815D01*
X174587759Y-90849665D01*
X174728335Y-90877627D01*
X174728336Y-90877627D01*
X174871664Y-90877627D01*
X174871665Y-90877627D01*
X175012241Y-90849665D01*
X175144661Y-90794815D01*
X175263835Y-90715185D01*
X175365185Y-90613835D01*
X175444815Y-90494661D01*
X175499665Y-90362241D01*
X175527627Y-90221665D01*
X175527627Y-90078335D01*
X175499665Y-89937759D01*
X175444815Y-89805339D01*
X175444813Y-89805336D01*
X175444811Y-89805332D01*
X175365185Y-89686165D01*
X175365182Y-89686161D01*
X175263838Y-89584817D01*
X175263834Y-89584814D01*
X175144667Y-89505188D01*
X175144659Y-89505184D01*
X175012241Y-89450335D01*
X174871665Y-89422373D01*
X174728335Y-89422373D01*
X174707904Y-89426437D01*
X174587758Y-89450335D01*
X174455340Y-89505184D01*
X174455332Y-89505188D01*
X174336165Y-89584814D01*
X174336161Y-89584817D01*
X174234817Y-89686161D01*
X174234814Y-89686165D01*
X174155188Y-89805332D01*
X174155184Y-89805340D01*
X174100335Y-89937758D01*
X174072373Y-90078335D01*
X167998226Y-90078335D01*
X168062114Y-90007381D01*
X168154125Y-89848013D01*
X168210986Y-89673011D01*
X168210987Y-89673008D01*
X168223540Y-89553563D01*
X167850000Y-89553563D01*
X167850000Y-89426437D01*
X168223540Y-89426437D01*
X168210987Y-89306991D01*
X168210986Y-89306988D01*
X168154125Y-89131986D01*
X168062114Y-88972618D01*
X167938980Y-88835866D01*
X167790114Y-88727707D01*
X167790109Y-88727703D01*
X167622009Y-88652860D01*
X167622001Y-88652858D01*
X167442010Y-88614600D01*
X167413563Y-88614600D01*
X167413563Y-88990000D01*
X167286437Y-88990000D01*
X167286437Y-88614600D01*
X167257990Y-88614600D01*
X167077998Y-88652858D01*
X167077990Y-88652860D01*
X166909890Y-88727703D01*
X166909885Y-88727707D01*
X166761019Y-88835866D01*
X166637885Y-88972618D01*
X166545874Y-89131986D01*
X166489013Y-89306988D01*
X166489012Y-89306991D01*
X166476460Y-89426437D01*
X123931882Y-89426437D01*
X123931882Y-87490534D01*
X125232373Y-87490534D01*
X125232373Y-87629465D01*
X125268328Y-87763653D01*
X125268330Y-87763656D01*
X125337793Y-87883971D01*
X125436029Y-87982207D01*
X125556344Y-88051670D01*
X125556346Y-88051670D01*
X125556347Y-88051671D01*
X125556345Y-88051671D01*
X125662176Y-88080027D01*
X125690534Y-88087626D01*
X125690536Y-88087627D01*
X125690537Y-88087627D01*
X125829464Y-88087627D01*
X125829464Y-88087626D01*
X125923787Y-88062352D01*
X125963653Y-88051671D01*
X125963653Y-88051670D01*
X125963656Y-88051670D01*
X126083971Y-87982207D01*
X126182207Y-87883971D01*
X126251670Y-87763656D01*
X126287627Y-87629463D01*
X126287627Y-87490537D01*
X126287626Y-87490534D01*
X140472373Y-87490534D01*
X140472373Y-87629465D01*
X140508328Y-87763653D01*
X140508330Y-87763656D01*
X140577793Y-87883971D01*
X140676029Y-87982207D01*
X140796344Y-88051670D01*
X140796346Y-88051670D01*
X140796347Y-88051671D01*
X140796345Y-88051671D01*
X140902176Y-88080027D01*
X140930534Y-88087626D01*
X140930536Y-88087627D01*
X140930537Y-88087627D01*
X141069464Y-88087627D01*
X141069464Y-88087626D01*
X141163787Y-88062352D01*
X141203653Y-88051671D01*
X141203653Y-88051670D01*
X141203656Y-88051670D01*
X141323971Y-87982207D01*
X141422207Y-87883971D01*
X141491670Y-87763656D01*
X141527627Y-87629463D01*
X141527627Y-87490537D01*
X141491670Y-87356344D01*
X141422207Y-87236029D01*
X141323971Y-87137793D01*
X141203656Y-87068330D01*
X141203655Y-87068329D01*
X141203652Y-87068328D01*
X141203654Y-87068328D01*
X141069465Y-87032373D01*
X141069463Y-87032373D01*
X140930537Y-87032373D01*
X140930534Y-87032373D01*
X140796346Y-87068328D01*
X140676027Y-87137794D01*
X140577794Y-87236027D01*
X140508328Y-87356346D01*
X140472373Y-87490534D01*
X126287626Y-87490534D01*
X126251670Y-87356344D01*
X126182207Y-87236029D01*
X126083971Y-87137793D01*
X125963656Y-87068330D01*
X125963655Y-87068329D01*
X125963652Y-87068328D01*
X125963654Y-87068328D01*
X125829465Y-87032373D01*
X125829463Y-87032373D01*
X125690537Y-87032373D01*
X125690534Y-87032373D01*
X125556346Y-87068328D01*
X125436027Y-87137794D01*
X125337794Y-87236027D01*
X125268328Y-87356346D01*
X125232373Y-87490534D01*
X123931882Y-87490534D01*
X123931882Y-86888184D01*
X166722373Y-86888184D01*
X166722373Y-87011815D01*
X166746492Y-87133072D01*
X166793803Y-87247291D01*
X166793807Y-87247299D01*
X166862489Y-87350088D01*
X166862492Y-87350092D01*
X166949907Y-87437507D01*
X166949911Y-87437510D01*
X167052700Y-87506192D01*
X167052704Y-87506194D01*
X167052707Y-87506196D01*
X167166928Y-87553508D01*
X167288184Y-87577627D01*
X167288185Y-87577627D01*
X167411815Y-87577627D01*
X167411816Y-87577627D01*
X167533072Y-87553508D01*
X167647293Y-87506196D01*
X167750089Y-87437510D01*
X167837510Y-87350089D01*
X167906196Y-87247293D01*
X167953508Y-87133072D01*
X167977627Y-87011816D01*
X167977627Y-86888184D01*
X167953508Y-86766928D01*
X167906196Y-86652707D01*
X167906194Y-86652704D01*
X167906192Y-86652700D01*
X167837510Y-86549911D01*
X167837507Y-86549907D01*
X167750092Y-86462492D01*
X167750088Y-86462489D01*
X167647299Y-86393807D01*
X167647291Y-86393803D01*
X167533072Y-86346492D01*
X167411816Y-86322373D01*
X167288184Y-86322373D01*
X167227556Y-86334432D01*
X167166927Y-86346492D01*
X167052708Y-86393803D01*
X167052700Y-86393807D01*
X166949911Y-86462489D01*
X166949907Y-86462492D01*
X166862492Y-86549907D01*
X166862489Y-86549911D01*
X166793807Y-86652700D01*
X166793803Y-86652708D01*
X166746492Y-86766927D01*
X166722373Y-86888184D01*
X123931882Y-86888184D01*
X123931882Y-84950534D01*
X125232373Y-84950534D01*
X125232373Y-85089465D01*
X125268328Y-85223653D01*
X125268330Y-85223656D01*
X125337793Y-85343971D01*
X125436029Y-85442207D01*
X125556344Y-85511670D01*
X125556346Y-85511670D01*
X125556347Y-85511671D01*
X125556345Y-85511671D01*
X125662176Y-85540027D01*
X125690534Y-85547626D01*
X125690536Y-85547627D01*
X125690537Y-85547627D01*
X125829464Y-85547627D01*
X125829464Y-85547626D01*
X125923787Y-85522352D01*
X125963653Y-85511671D01*
X125963653Y-85511670D01*
X125963656Y-85511670D01*
X126083971Y-85442207D01*
X126182207Y-85343971D01*
X126251670Y-85223656D01*
X126287627Y-85089463D01*
X126287627Y-84950537D01*
X126287626Y-84950534D01*
X140472373Y-84950534D01*
X140472373Y-85089465D01*
X140508328Y-85223653D01*
X140508330Y-85223656D01*
X140577793Y-85343971D01*
X140676029Y-85442207D01*
X140796344Y-85511670D01*
X140796346Y-85511670D01*
X140796347Y-85511671D01*
X140796345Y-85511671D01*
X140902176Y-85540027D01*
X140930534Y-85547626D01*
X140930536Y-85547627D01*
X140930537Y-85547627D01*
X141069464Y-85547627D01*
X141069464Y-85547626D01*
X141163787Y-85522352D01*
X141203653Y-85511671D01*
X141203653Y-85511670D01*
X141203656Y-85511670D01*
X141323971Y-85442207D01*
X141422207Y-85343971D01*
X141491670Y-85223656D01*
X141527627Y-85089463D01*
X141527627Y-84950537D01*
X141491670Y-84816344D01*
X141422207Y-84696029D01*
X141323971Y-84597793D01*
X141203656Y-84528330D01*
X141203655Y-84528329D01*
X141203652Y-84528328D01*
X141203654Y-84528328D01*
X141069465Y-84492373D01*
X141069463Y-84492373D01*
X140930537Y-84492373D01*
X140930534Y-84492373D01*
X140796346Y-84528328D01*
X140676027Y-84597794D01*
X140577794Y-84696027D01*
X140508328Y-84816346D01*
X140472373Y-84950534D01*
X126287626Y-84950534D01*
X126251670Y-84816344D01*
X126182207Y-84696029D01*
X126083971Y-84597793D01*
X125963656Y-84528330D01*
X125963655Y-84528329D01*
X125963652Y-84528328D01*
X125963654Y-84528328D01*
X125829465Y-84492373D01*
X125829463Y-84492373D01*
X125690537Y-84492373D01*
X125690534Y-84492373D01*
X125556346Y-84528328D01*
X125436027Y-84597794D01*
X125337794Y-84696027D01*
X125268328Y-84816346D01*
X125232373Y-84950534D01*
X123931882Y-84950534D01*
X123931882Y-82410534D01*
X125232373Y-82410534D01*
X125232373Y-82549465D01*
X125268328Y-82683653D01*
X125268330Y-82683656D01*
X125337793Y-82803971D01*
X125436029Y-82902207D01*
X125556344Y-82971670D01*
X125556346Y-82971670D01*
X125556347Y-82971671D01*
X125556345Y-82971671D01*
X125662176Y-83000027D01*
X125690534Y-83007626D01*
X125690536Y-83007627D01*
X125690537Y-83007627D01*
X125829464Y-83007627D01*
X125829464Y-83007626D01*
X125923787Y-82982352D01*
X125963653Y-82971671D01*
X125963653Y-82971670D01*
X125963656Y-82971670D01*
X126083971Y-82902207D01*
X126182207Y-82803971D01*
X126251670Y-82683656D01*
X126287627Y-82549463D01*
X126287627Y-82410537D01*
X126287626Y-82410534D01*
X140472373Y-82410534D01*
X140472373Y-82549465D01*
X140508328Y-82683653D01*
X140508330Y-82683656D01*
X140577793Y-82803971D01*
X140676029Y-82902207D01*
X140796344Y-82971670D01*
X140796346Y-82971670D01*
X140796347Y-82971671D01*
X140796345Y-82971671D01*
X140902176Y-83000027D01*
X140930534Y-83007626D01*
X140930536Y-83007627D01*
X140930537Y-83007627D01*
X141069464Y-83007627D01*
X141069464Y-83007626D01*
X141163787Y-82982352D01*
X141203653Y-82971671D01*
X141203653Y-82971670D01*
X141203656Y-82971670D01*
X141323971Y-82902207D01*
X141422207Y-82803971D01*
X141491670Y-82683656D01*
X141527627Y-82549463D01*
X141527627Y-82410537D01*
X141491670Y-82276344D01*
X141422207Y-82156029D01*
X141323971Y-82057793D01*
X141203656Y-81988330D01*
X141203655Y-81988329D01*
X141203652Y-81988328D01*
X141203654Y-81988328D01*
X141069465Y-81952373D01*
X141069463Y-81952373D01*
X140930537Y-81952373D01*
X140930534Y-81952373D01*
X140796346Y-81988328D01*
X140676027Y-82057794D01*
X140577794Y-82156027D01*
X140508328Y-82276346D01*
X140472373Y-82410534D01*
X126287626Y-82410534D01*
X126251670Y-82276344D01*
X126182207Y-82156029D01*
X126083971Y-82057793D01*
X125963656Y-81988330D01*
X125963655Y-81988329D01*
X125963652Y-81988328D01*
X125963654Y-81988328D01*
X125829465Y-81952373D01*
X125829463Y-81952373D01*
X125690537Y-81952373D01*
X125690534Y-81952373D01*
X125556346Y-81988328D01*
X125436027Y-82057794D01*
X125337794Y-82156027D01*
X125268328Y-82276346D01*
X125232373Y-82410534D01*
X123931882Y-82410534D01*
X123931882Y-75687499D01*
X164731705Y-75687499D01*
X164731705Y-75687500D01*
X164753079Y-75794956D01*
X164777941Y-75832164D01*
X164777942Y-75832164D01*
X164912500Y-75697606D01*
X164912500Y-75707391D01*
X164927724Y-75744145D01*
X164955855Y-75772276D01*
X164992609Y-75787500D01*
X165002392Y-75787500D01*
X164867834Y-75922056D01*
X164867834Y-75922057D01*
X164905043Y-75946920D01*
X165012500Y-75968295D01*
X165119956Y-75946920D01*
X165157164Y-75922057D01*
X165157164Y-75922056D01*
X165022608Y-75787500D01*
X165032391Y-75787500D01*
X165069145Y-75772276D01*
X165097276Y-75744145D01*
X165112500Y-75707391D01*
X165112500Y-75697608D01*
X165247056Y-75832164D01*
X165247057Y-75832164D01*
X165271920Y-75794956D01*
X165293295Y-75687500D01*
X165293295Y-75687499D01*
X165271920Y-75580043D01*
X165247057Y-75542834D01*
X165247056Y-75542834D01*
X165112500Y-75677390D01*
X165112500Y-75667609D01*
X165097276Y-75630855D01*
X165069145Y-75602724D01*
X165032391Y-75587500D01*
X165022606Y-75587500D01*
X165157164Y-75452942D01*
X165157164Y-75452941D01*
X165119956Y-75428079D01*
X165012500Y-75406705D01*
X164905043Y-75428079D01*
X164867834Y-75452941D01*
X164867834Y-75452942D01*
X165002392Y-75587500D01*
X164992609Y-75587500D01*
X164955855Y-75602724D01*
X164927724Y-75630855D01*
X164912500Y-75667609D01*
X164912500Y-75677392D01*
X164777942Y-75542834D01*
X164777941Y-75542834D01*
X164753079Y-75580043D01*
X164731705Y-75687499D01*
X123931882Y-75687499D01*
X123931882Y-75325000D01*
X168559953Y-75325000D01*
X168578091Y-75497576D01*
X168578092Y-75497579D01*
X168631711Y-75662606D01*
X168631714Y-75662612D01*
X168718475Y-75812885D01*
X168762892Y-75862214D01*
X168762893Y-75862215D01*
X168958903Y-75666205D01*
X169048794Y-75756096D01*
X168851072Y-75953819D01*
X168974972Y-76043839D01*
X168974977Y-76043843D01*
X169133495Y-76114420D01*
X169133503Y-76114422D01*
X169303233Y-76150499D01*
X169303234Y-76150500D01*
X169476766Y-76150500D01*
X169476766Y-76150499D01*
X169646496Y-76114422D01*
X169646504Y-76114420D01*
X169805022Y-76043843D01*
X169805027Y-76043839D01*
X169928926Y-75953819D01*
X169928927Y-75953819D01*
X169731205Y-75756097D01*
X169821097Y-75666205D01*
X170017106Y-75862214D01*
X170061524Y-75812885D01*
X170148285Y-75662612D01*
X170148288Y-75662606D01*
X170201907Y-75497579D01*
X170201908Y-75497576D01*
X170220046Y-75325000D01*
X170997163Y-75325000D01*
X171017547Y-75518948D01*
X171017548Y-75518951D01*
X171077808Y-75704413D01*
X171077810Y-75704417D01*
X171077811Y-75704419D01*
X171175319Y-75873308D01*
X171260846Y-75968295D01*
X171305808Y-76018231D01*
X171305815Y-76018237D01*
X171463577Y-76132858D01*
X171463582Y-76132862D01*
X171641732Y-76212179D01*
X171641735Y-76212179D01*
X171641738Y-76212181D01*
X171832489Y-76252726D01*
X171832490Y-76252727D01*
X171832492Y-76252727D01*
X172027510Y-76252727D01*
X172027510Y-76252726D01*
X172218262Y-76212181D01*
X172218265Y-76212179D01*
X172218267Y-76212179D01*
X172396417Y-76132862D01*
X172396417Y-76132861D01*
X172396419Y-76132861D01*
X172554190Y-76018233D01*
X172684681Y-75873308D01*
X172782189Y-75704419D01*
X172842452Y-75518948D01*
X172862837Y-75325000D01*
X173537163Y-75325000D01*
X173557547Y-75518948D01*
X173557548Y-75518951D01*
X173617808Y-75704413D01*
X173617810Y-75704417D01*
X173617811Y-75704419D01*
X173715319Y-75873308D01*
X173800846Y-75968295D01*
X173845808Y-76018231D01*
X173845815Y-76018237D01*
X174003577Y-76132858D01*
X174003582Y-76132862D01*
X174181732Y-76212179D01*
X174181735Y-76212179D01*
X174181738Y-76212181D01*
X174372489Y-76252726D01*
X174372490Y-76252727D01*
X174372492Y-76252727D01*
X174567510Y-76252727D01*
X174567510Y-76252726D01*
X174758262Y-76212181D01*
X174758265Y-76212179D01*
X174758267Y-76212179D01*
X174936417Y-76132862D01*
X174936417Y-76132861D01*
X174936419Y-76132861D01*
X175094190Y-76018233D01*
X175224681Y-75873308D01*
X175322189Y-75704419D01*
X175382452Y-75518948D01*
X175402837Y-75325000D01*
X176077163Y-75325000D01*
X176097547Y-75518948D01*
X176097548Y-75518951D01*
X176157808Y-75704413D01*
X176157810Y-75704417D01*
X176157811Y-75704419D01*
X176255319Y-75873308D01*
X176340846Y-75968295D01*
X176385808Y-76018231D01*
X176385815Y-76018237D01*
X176543577Y-76132858D01*
X176543582Y-76132862D01*
X176721732Y-76212179D01*
X176721735Y-76212179D01*
X176721738Y-76212181D01*
X176912489Y-76252726D01*
X176912490Y-76252727D01*
X176912492Y-76252727D01*
X177107510Y-76252727D01*
X177107510Y-76252726D01*
X177298262Y-76212181D01*
X177298265Y-76212179D01*
X177298267Y-76212179D01*
X177476417Y-76132862D01*
X177476417Y-76132861D01*
X177476419Y-76132861D01*
X177634190Y-76018233D01*
X177764681Y-75873308D01*
X177862189Y-75704419D01*
X177922452Y-75518948D01*
X177942837Y-75325000D01*
X177922452Y-75131052D01*
X177862189Y-74945581D01*
X177764681Y-74776692D01*
X177634190Y-74631767D01*
X177634188Y-74631766D01*
X177634184Y-74631762D01*
X177476422Y-74517141D01*
X177476417Y-74517137D01*
X177298267Y-74437820D01*
X177298259Y-74437818D01*
X177107510Y-74397273D01*
X177107508Y-74397273D01*
X176912492Y-74397273D01*
X176912490Y-74397273D01*
X176721740Y-74437818D01*
X176721732Y-74437820D01*
X176543583Y-74517137D01*
X176543578Y-74517141D01*
X176385809Y-74631766D01*
X176385808Y-74631767D01*
X176255319Y-74776692D01*
X176157808Y-74945586D01*
X176097548Y-75131048D01*
X176097547Y-75131051D01*
X176077163Y-75325000D01*
X175402837Y-75325000D01*
X175382452Y-75131052D01*
X175322189Y-74945581D01*
X175224681Y-74776692D01*
X175094190Y-74631767D01*
X175094188Y-74631766D01*
X175094184Y-74631762D01*
X174936422Y-74517141D01*
X174936417Y-74517137D01*
X174758267Y-74437820D01*
X174758259Y-74437818D01*
X174567510Y-74397273D01*
X174567508Y-74397273D01*
X174372492Y-74397273D01*
X174372490Y-74397273D01*
X174181740Y-74437818D01*
X174181732Y-74437820D01*
X174003583Y-74517137D01*
X174003578Y-74517141D01*
X173845809Y-74631766D01*
X173845808Y-74631767D01*
X173715319Y-74776692D01*
X173617808Y-74945586D01*
X173557548Y-75131048D01*
X173557547Y-75131051D01*
X173537163Y-75325000D01*
X172862837Y-75325000D01*
X172842452Y-75131052D01*
X172782189Y-74945581D01*
X172684681Y-74776692D01*
X172554190Y-74631767D01*
X172554188Y-74631766D01*
X172554184Y-74631762D01*
X172396422Y-74517141D01*
X172396417Y-74517137D01*
X172218267Y-74437820D01*
X172218259Y-74437818D01*
X172027510Y-74397273D01*
X172027508Y-74397273D01*
X171832492Y-74397273D01*
X171832490Y-74397273D01*
X171641740Y-74437818D01*
X171641732Y-74437820D01*
X171463583Y-74517137D01*
X171463578Y-74517141D01*
X171305809Y-74631766D01*
X171305808Y-74631767D01*
X171175319Y-74776692D01*
X171077808Y-74945586D01*
X171017548Y-75131048D01*
X171017547Y-75131051D01*
X170997163Y-75325000D01*
X170220046Y-75325000D01*
X170201908Y-75152423D01*
X170201907Y-75152420D01*
X170148288Y-74987393D01*
X170148285Y-74987387D01*
X170061524Y-74837114D01*
X170017106Y-74787784D01*
X169821096Y-74983794D01*
X169731204Y-74893902D01*
X169928927Y-74696180D01*
X169928926Y-74696179D01*
X169805027Y-74606160D01*
X169805022Y-74606156D01*
X169646504Y-74535579D01*
X169646496Y-74535577D01*
X169476766Y-74499500D01*
X169303234Y-74499500D01*
X169133503Y-74535577D01*
X169133495Y-74535579D01*
X168974979Y-74606156D01*
X168851072Y-74696180D01*
X169048795Y-74893903D01*
X168958903Y-74983794D01*
X168762892Y-74787784D01*
X168718475Y-74837114D01*
X168631714Y-74987387D01*
X168631711Y-74987393D01*
X168578092Y-75152420D01*
X168578091Y-75152423D01*
X168559953Y-75325000D01*
X123931882Y-75325000D01*
X123931882Y-74587499D01*
X164731705Y-74587499D01*
X164731705Y-74587500D01*
X164753079Y-74694956D01*
X164777941Y-74732164D01*
X164777942Y-74732164D01*
X164912500Y-74597606D01*
X164912500Y-74607391D01*
X164927724Y-74644145D01*
X164955855Y-74672276D01*
X164992609Y-74687500D01*
X165002392Y-74687500D01*
X164867834Y-74822056D01*
X164867834Y-74822057D01*
X164905043Y-74846920D01*
X165012500Y-74868295D01*
X165119956Y-74846920D01*
X165157164Y-74822057D01*
X165157164Y-74822056D01*
X165022608Y-74687500D01*
X165032391Y-74687500D01*
X165069145Y-74672276D01*
X165097276Y-74644145D01*
X165112500Y-74607391D01*
X165112500Y-74597608D01*
X165247056Y-74732164D01*
X165247057Y-74732164D01*
X165271920Y-74694956D01*
X165293295Y-74587500D01*
X165293295Y-74587499D01*
X165271920Y-74480043D01*
X165247057Y-74442834D01*
X165247056Y-74442834D01*
X165112500Y-74577390D01*
X165112500Y-74567609D01*
X165097276Y-74530855D01*
X165069145Y-74502724D01*
X165032391Y-74487500D01*
X165022606Y-74487500D01*
X165157164Y-74352942D01*
X165157164Y-74352941D01*
X165119956Y-74328079D01*
X165012500Y-74306705D01*
X164905043Y-74328079D01*
X164867834Y-74352941D01*
X164867834Y-74352942D01*
X165002392Y-74487500D01*
X164992609Y-74487500D01*
X164955855Y-74502724D01*
X164927724Y-74530855D01*
X164912500Y-74567609D01*
X164912500Y-74577392D01*
X164777942Y-74442834D01*
X164777941Y-74442834D01*
X164753079Y-74480043D01*
X164731705Y-74587499D01*
X123931882Y-74587499D01*
X123931882Y-64260548D01*
X125122373Y-64260548D01*
X125122373Y-64539452D01*
X125127399Y-64577627D01*
X125158776Y-64815968D01*
X125230962Y-65085369D01*
X125230966Y-65085380D01*
X125272384Y-65185371D01*
X125337695Y-65343044D01*
X125477147Y-65584582D01*
X125646933Y-65805852D01*
X125844148Y-66003067D01*
X126065418Y-66172853D01*
X126306956Y-66312305D01*
X126484276Y-66385753D01*
X126548376Y-66412305D01*
X126564629Y-66419037D01*
X126834030Y-66491223D01*
X127110548Y-66527627D01*
X127389452Y-66527627D01*
X127665970Y-66491223D01*
X127935371Y-66419037D01*
X128193044Y-66312305D01*
X128434582Y-66172853D01*
X128655852Y-66003067D01*
X128853067Y-65805852D01*
X129022853Y-65584582D01*
X129162305Y-65343044D01*
X129269037Y-65085371D01*
X129341223Y-64815970D01*
X129377627Y-64539452D01*
X129377627Y-64260548D01*
X129341223Y-63984030D01*
X129315541Y-63888184D01*
X133622373Y-63888184D01*
X133622373Y-64011816D01*
X133623171Y-64015826D01*
X133646492Y-64133072D01*
X133693803Y-64247291D01*
X133693807Y-64247299D01*
X133762489Y-64350088D01*
X133762492Y-64350092D01*
X133849907Y-64437507D01*
X133849911Y-64437510D01*
X133952700Y-64506192D01*
X133952704Y-64506194D01*
X133952707Y-64506196D01*
X134066928Y-64553508D01*
X134188184Y-64577627D01*
X134188185Y-64577627D01*
X134311815Y-64577627D01*
X134311816Y-64577627D01*
X134433072Y-64553508D01*
X134547293Y-64506196D01*
X134650089Y-64437510D01*
X134737510Y-64350089D01*
X134806196Y-64247293D01*
X134853508Y-64133072D01*
X134877627Y-64011816D01*
X134877627Y-63888184D01*
X136162373Y-63888184D01*
X136162373Y-64011816D01*
X136163171Y-64015826D01*
X136186492Y-64133072D01*
X136233803Y-64247291D01*
X136233807Y-64247299D01*
X136302489Y-64350088D01*
X136302492Y-64350092D01*
X136389907Y-64437507D01*
X136389911Y-64437510D01*
X136492700Y-64506192D01*
X136492704Y-64506194D01*
X136492707Y-64506196D01*
X136606928Y-64553508D01*
X136728184Y-64577627D01*
X136728185Y-64577627D01*
X136851815Y-64577627D01*
X136851816Y-64577627D01*
X136973072Y-64553508D01*
X137087293Y-64506196D01*
X137190089Y-64437510D01*
X137277510Y-64350089D01*
X137346196Y-64247293D01*
X137393508Y-64133072D01*
X137417627Y-64011816D01*
X137417627Y-63888184D01*
X138702373Y-63888184D01*
X138702373Y-64011816D01*
X138703171Y-64015826D01*
X138726492Y-64133072D01*
X138773803Y-64247291D01*
X138773807Y-64247299D01*
X138842489Y-64350088D01*
X138842492Y-64350092D01*
X138929907Y-64437507D01*
X138929911Y-64437510D01*
X139032700Y-64506192D01*
X139032704Y-64506194D01*
X139032707Y-64506196D01*
X139146928Y-64553508D01*
X139268184Y-64577627D01*
X139268185Y-64577627D01*
X139391815Y-64577627D01*
X139391816Y-64577627D01*
X139513072Y-64553508D01*
X139627293Y-64506196D01*
X139730089Y-64437510D01*
X139817510Y-64350089D01*
X139886196Y-64247293D01*
X139933508Y-64133072D01*
X139957627Y-64011816D01*
X139957627Y-63888184D01*
X141242373Y-63888184D01*
X141242373Y-64011816D01*
X141243171Y-64015826D01*
X141266492Y-64133072D01*
X141313803Y-64247291D01*
X141313807Y-64247299D01*
X141382489Y-64350088D01*
X141382492Y-64350092D01*
X141469907Y-64437507D01*
X141469911Y-64437510D01*
X141572700Y-64506192D01*
X141572704Y-64506194D01*
X141572707Y-64506196D01*
X141686928Y-64553508D01*
X141808184Y-64577627D01*
X141808185Y-64577627D01*
X141931815Y-64577627D01*
X141931816Y-64577627D01*
X142053072Y-64553508D01*
X142167293Y-64506196D01*
X142270089Y-64437510D01*
X142357510Y-64350089D01*
X142426196Y-64247293D01*
X142473508Y-64133072D01*
X142497627Y-64011816D01*
X142497627Y-63888184D01*
X143782373Y-63888184D01*
X143782373Y-64011816D01*
X143783171Y-64015826D01*
X143806492Y-64133072D01*
X143853803Y-64247291D01*
X143853807Y-64247299D01*
X143922489Y-64350088D01*
X143922492Y-64350092D01*
X144009907Y-64437507D01*
X144009911Y-64437510D01*
X144112700Y-64506192D01*
X144112704Y-64506194D01*
X144112707Y-64506196D01*
X144226928Y-64553508D01*
X144348184Y-64577627D01*
X144348185Y-64577627D01*
X144471815Y-64577627D01*
X144471816Y-64577627D01*
X144593072Y-64553508D01*
X144707293Y-64506196D01*
X144810089Y-64437510D01*
X144897510Y-64350089D01*
X144966196Y-64247293D01*
X145013508Y-64133072D01*
X145037627Y-64011816D01*
X145037627Y-63888184D01*
X146322373Y-63888184D01*
X146322373Y-64011816D01*
X146323171Y-64015826D01*
X146346492Y-64133072D01*
X146393803Y-64247291D01*
X146393807Y-64247299D01*
X146462489Y-64350088D01*
X146462492Y-64350092D01*
X146549907Y-64437507D01*
X146549911Y-64437510D01*
X146652700Y-64506192D01*
X146652704Y-64506194D01*
X146652707Y-64506196D01*
X146766928Y-64553508D01*
X146888184Y-64577627D01*
X146888185Y-64577627D01*
X147011815Y-64577627D01*
X147011816Y-64577627D01*
X147133072Y-64553508D01*
X147247293Y-64506196D01*
X147350089Y-64437510D01*
X147437510Y-64350089D01*
X147506196Y-64247293D01*
X147553508Y-64133072D01*
X147577627Y-64011816D01*
X147577627Y-63888184D01*
X148862373Y-63888184D01*
X148862373Y-64011816D01*
X148863171Y-64015826D01*
X148886492Y-64133072D01*
X148933803Y-64247291D01*
X148933807Y-64247299D01*
X149002489Y-64350088D01*
X149002492Y-64350092D01*
X149089907Y-64437507D01*
X149089911Y-64437510D01*
X149192700Y-64506192D01*
X149192704Y-64506194D01*
X149192707Y-64506196D01*
X149306928Y-64553508D01*
X149428184Y-64577627D01*
X149428185Y-64577627D01*
X149551815Y-64577627D01*
X149551816Y-64577627D01*
X149673072Y-64553508D01*
X149787293Y-64506196D01*
X149890089Y-64437510D01*
X149977510Y-64350089D01*
X150046196Y-64247293D01*
X150093508Y-64133072D01*
X150117627Y-64011816D01*
X150117627Y-63888184D01*
X151402373Y-63888184D01*
X151402373Y-64011816D01*
X151403171Y-64015826D01*
X151426492Y-64133072D01*
X151473803Y-64247291D01*
X151473807Y-64247299D01*
X151542489Y-64350088D01*
X151542492Y-64350092D01*
X151629907Y-64437507D01*
X151629911Y-64437510D01*
X151732700Y-64506192D01*
X151732704Y-64506194D01*
X151732707Y-64506196D01*
X151846928Y-64553508D01*
X151968184Y-64577627D01*
X151968185Y-64577627D01*
X152091815Y-64577627D01*
X152091816Y-64577627D01*
X152213072Y-64553508D01*
X152327293Y-64506196D01*
X152430089Y-64437510D01*
X152517510Y-64350089D01*
X152586196Y-64247293D01*
X152633508Y-64133072D01*
X152657627Y-64011816D01*
X152657627Y-63888184D01*
X153942373Y-63888184D01*
X153942373Y-64011816D01*
X153943171Y-64015826D01*
X153966492Y-64133072D01*
X154013803Y-64247291D01*
X154013807Y-64247299D01*
X154082489Y-64350088D01*
X154082492Y-64350092D01*
X154169907Y-64437507D01*
X154169911Y-64437510D01*
X154272700Y-64506192D01*
X154272704Y-64506194D01*
X154272707Y-64506196D01*
X154386928Y-64553508D01*
X154508184Y-64577627D01*
X154508185Y-64577627D01*
X154631815Y-64577627D01*
X154631816Y-64577627D01*
X154753072Y-64553508D01*
X154867293Y-64506196D01*
X154970089Y-64437510D01*
X155057510Y-64350089D01*
X155126196Y-64247293D01*
X155173508Y-64133072D01*
X155197627Y-64011816D01*
X155197627Y-63888184D01*
X156482373Y-63888184D01*
X156482373Y-64011816D01*
X156483171Y-64015826D01*
X156506492Y-64133072D01*
X156553803Y-64247291D01*
X156553807Y-64247299D01*
X156622489Y-64350088D01*
X156622492Y-64350092D01*
X156709907Y-64437507D01*
X156709911Y-64437510D01*
X156812700Y-64506192D01*
X156812704Y-64506194D01*
X156812707Y-64506196D01*
X156926928Y-64553508D01*
X157048184Y-64577627D01*
X157048185Y-64577627D01*
X157171815Y-64577627D01*
X157171816Y-64577627D01*
X157293072Y-64553508D01*
X157407293Y-64506196D01*
X157510089Y-64437510D01*
X157597510Y-64350089D01*
X157666196Y-64247293D01*
X157713508Y-64133072D01*
X157737627Y-64011816D01*
X157737627Y-63888184D01*
X159022373Y-63888184D01*
X159022373Y-64011816D01*
X159023171Y-64015826D01*
X159046492Y-64133072D01*
X159093803Y-64247291D01*
X159093807Y-64247299D01*
X159162489Y-64350088D01*
X159162492Y-64350092D01*
X159249907Y-64437507D01*
X159249911Y-64437510D01*
X159352700Y-64506192D01*
X159352704Y-64506194D01*
X159352707Y-64506196D01*
X159466928Y-64553508D01*
X159588184Y-64577627D01*
X159588185Y-64577627D01*
X159711815Y-64577627D01*
X159711816Y-64577627D01*
X159833072Y-64553508D01*
X159947293Y-64506196D01*
X160050089Y-64437510D01*
X160137510Y-64350089D01*
X160206196Y-64247293D01*
X160253508Y-64133072D01*
X160277627Y-64011816D01*
X160277627Y-63888184D01*
X161562373Y-63888184D01*
X161562373Y-64011816D01*
X161563171Y-64015826D01*
X161586492Y-64133072D01*
X161633803Y-64247291D01*
X161633807Y-64247299D01*
X161702489Y-64350088D01*
X161702492Y-64350092D01*
X161789907Y-64437507D01*
X161789911Y-64437510D01*
X161892700Y-64506192D01*
X161892704Y-64506194D01*
X161892707Y-64506196D01*
X162006928Y-64553508D01*
X162128184Y-64577627D01*
X162128185Y-64577627D01*
X162251815Y-64577627D01*
X162251816Y-64577627D01*
X162373072Y-64553508D01*
X162487293Y-64506196D01*
X162590089Y-64437510D01*
X162677510Y-64350089D01*
X162746196Y-64247293D01*
X162793508Y-64133072D01*
X162817627Y-64011816D01*
X162817627Y-63888184D01*
X162817280Y-63886437D01*
X163856460Y-63886437D01*
X164230000Y-63886437D01*
X164230000Y-64013563D01*
X163856460Y-64013563D01*
X163869012Y-64133008D01*
X163869013Y-64133011D01*
X163925874Y-64308013D01*
X164017885Y-64467381D01*
X164141019Y-64604133D01*
X164289885Y-64712292D01*
X164289890Y-64712296D01*
X164457990Y-64787139D01*
X164457998Y-64787141D01*
X164637989Y-64825399D01*
X164637990Y-64825400D01*
X164666437Y-64825400D01*
X164666437Y-64450000D01*
X164793563Y-64450000D01*
X164793563Y-64825400D01*
X164822010Y-64825400D01*
X164822010Y-64825399D01*
X165002001Y-64787141D01*
X165002009Y-64787139D01*
X165170109Y-64712296D01*
X165170114Y-64712292D01*
X165318980Y-64604133D01*
X165442114Y-64467381D01*
X165534125Y-64308013D01*
X165590986Y-64133011D01*
X165590987Y-64133008D01*
X165603540Y-64013563D01*
X165230000Y-64013563D01*
X165230000Y-63888184D01*
X166642373Y-63888184D01*
X166642373Y-64011816D01*
X166643171Y-64015826D01*
X166666492Y-64133072D01*
X166713803Y-64247291D01*
X166713807Y-64247299D01*
X166782489Y-64350088D01*
X166782492Y-64350092D01*
X166869907Y-64437507D01*
X166869911Y-64437510D01*
X166972700Y-64506192D01*
X166972704Y-64506194D01*
X166972707Y-64506196D01*
X167086928Y-64553508D01*
X167208184Y-64577627D01*
X167208185Y-64577627D01*
X167331815Y-64577627D01*
X167331816Y-64577627D01*
X167453072Y-64553508D01*
X167567293Y-64506196D01*
X167670089Y-64437510D01*
X167747051Y-64360548D01*
X173922373Y-64360548D01*
X173922373Y-64639451D01*
X173958776Y-64915968D01*
X174030962Y-65185369D01*
X174030966Y-65185380D01*
X174137691Y-65443035D01*
X174137695Y-65443044D01*
X174277147Y-65684582D01*
X174446933Y-65905852D01*
X174644148Y-66103067D01*
X174865418Y-66272853D01*
X175106956Y-66412305D01*
X175364629Y-66519037D01*
X175634030Y-66591223D01*
X175910548Y-66627627D01*
X176189452Y-66627627D01*
X176465970Y-66591223D01*
X176735371Y-66519037D01*
X176993044Y-66412305D01*
X177234582Y-66272853D01*
X177455852Y-66103067D01*
X177653067Y-65905852D01*
X177822853Y-65684582D01*
X177962305Y-65443044D01*
X178069037Y-65185371D01*
X178141223Y-64915970D01*
X178177627Y-64639452D01*
X178177627Y-64360548D01*
X178141223Y-64084030D01*
X178069037Y-63814629D01*
X177962305Y-63556956D01*
X177822853Y-63315418D01*
X177653067Y-63094148D01*
X177455852Y-62896933D01*
X177234582Y-62727147D01*
X176993044Y-62587695D01*
X176993036Y-62587691D01*
X176993035Y-62587691D01*
X176735380Y-62480966D01*
X176735369Y-62480962D01*
X176465968Y-62408776D01*
X176189452Y-62372373D01*
X175910548Y-62372373D01*
X175634031Y-62408776D01*
X175364630Y-62480962D01*
X175364619Y-62480966D01*
X175106964Y-62587691D01*
X175106959Y-62587693D01*
X175106956Y-62587695D01*
X174865418Y-62727147D01*
X174865417Y-62727147D01*
X174644149Y-62896932D01*
X174644142Y-62896938D01*
X174446938Y-63094142D01*
X174446932Y-63094149D01*
X174277147Y-63315417D01*
X174277147Y-63315418D01*
X174137695Y-63556956D01*
X174137693Y-63556959D01*
X174137691Y-63556964D01*
X174030966Y-63814619D01*
X174030962Y-63814630D01*
X173958776Y-64084031D01*
X173922373Y-64360548D01*
X167747051Y-64360548D01*
X167757510Y-64350089D01*
X167826196Y-64247293D01*
X167873508Y-64133072D01*
X167897627Y-64011816D01*
X167897627Y-63888184D01*
X167873508Y-63766928D01*
X167826196Y-63652707D01*
X167826194Y-63652704D01*
X167826192Y-63652700D01*
X167757510Y-63549911D01*
X167757507Y-63549907D01*
X167670092Y-63462492D01*
X167670088Y-63462489D01*
X167567299Y-63393807D01*
X167567291Y-63393803D01*
X167453072Y-63346492D01*
X167331816Y-63322373D01*
X167208184Y-63322373D01*
X167147556Y-63334432D01*
X167086927Y-63346492D01*
X166972708Y-63393803D01*
X166972700Y-63393807D01*
X166869911Y-63462489D01*
X166869907Y-63462492D01*
X166782492Y-63549907D01*
X166782489Y-63549911D01*
X166713807Y-63652700D01*
X166713803Y-63652708D01*
X166666492Y-63766927D01*
X166643171Y-63884174D01*
X166642373Y-63888184D01*
X165230000Y-63888184D01*
X165230000Y-63886437D01*
X165603540Y-63886437D01*
X165590987Y-63766991D01*
X165590986Y-63766988D01*
X165534125Y-63591986D01*
X165442114Y-63432618D01*
X165318980Y-63295866D01*
X165170114Y-63187707D01*
X165170109Y-63187703D01*
X165002009Y-63112860D01*
X165002001Y-63112858D01*
X164822010Y-63074600D01*
X164793563Y-63074600D01*
X164793563Y-63450000D01*
X164666437Y-63450000D01*
X164666437Y-63074600D01*
X164637990Y-63074600D01*
X164457998Y-63112858D01*
X164457990Y-63112860D01*
X164289890Y-63187703D01*
X164289885Y-63187707D01*
X164141019Y-63295866D01*
X164017885Y-63432618D01*
X163925874Y-63591986D01*
X163869013Y-63766988D01*
X163869012Y-63766991D01*
X163856460Y-63886437D01*
X162817280Y-63886437D01*
X162793508Y-63766928D01*
X162746196Y-63652707D01*
X162746194Y-63652704D01*
X162746192Y-63652700D01*
X162677510Y-63549911D01*
X162677507Y-63549907D01*
X162590092Y-63462492D01*
X162590088Y-63462489D01*
X162487299Y-63393807D01*
X162487291Y-63393803D01*
X162373072Y-63346492D01*
X162251816Y-63322373D01*
X162128184Y-63322373D01*
X162067556Y-63334432D01*
X162006927Y-63346492D01*
X161892708Y-63393803D01*
X161892700Y-63393807D01*
X161789911Y-63462489D01*
X161789907Y-63462492D01*
X161702492Y-63549907D01*
X161702489Y-63549911D01*
X161633807Y-63652700D01*
X161633803Y-63652708D01*
X161586492Y-63766927D01*
X161563171Y-63884174D01*
X161562373Y-63888184D01*
X160277627Y-63888184D01*
X160253508Y-63766928D01*
X160206196Y-63652707D01*
X160206194Y-63652704D01*
X160206192Y-63652700D01*
X160137510Y-63549911D01*
X160137507Y-63549907D01*
X160050092Y-63462492D01*
X160050088Y-63462489D01*
X159947299Y-63393807D01*
X159947291Y-63393803D01*
X159833072Y-63346492D01*
X159711816Y-63322373D01*
X159588184Y-63322373D01*
X159527556Y-63334432D01*
X159466927Y-63346492D01*
X159352708Y-63393803D01*
X159352700Y-63393807D01*
X159249911Y-63462489D01*
X159249907Y-63462492D01*
X159162492Y-63549907D01*
X159162489Y-63549911D01*
X159093807Y-63652700D01*
X159093803Y-63652708D01*
X159046492Y-63766927D01*
X159023171Y-63884174D01*
X159022373Y-63888184D01*
X157737627Y-63888184D01*
X157713508Y-63766928D01*
X157666196Y-63652707D01*
X157666194Y-63652704D01*
X157666192Y-63652700D01*
X157597510Y-63549911D01*
X157597507Y-63549907D01*
X157510092Y-63462492D01*
X157510088Y-63462489D01*
X157407299Y-63393807D01*
X157407291Y-63393803D01*
X157293072Y-63346492D01*
X157171816Y-63322373D01*
X157048184Y-63322373D01*
X156987556Y-63334432D01*
X156926927Y-63346492D01*
X156812708Y-63393803D01*
X156812700Y-63393807D01*
X156709911Y-63462489D01*
X156709907Y-63462492D01*
X156622492Y-63549907D01*
X156622489Y-63549911D01*
X156553807Y-63652700D01*
X156553803Y-63652708D01*
X156506492Y-63766927D01*
X156483171Y-63884174D01*
X156482373Y-63888184D01*
X155197627Y-63888184D01*
X155173508Y-63766928D01*
X155126196Y-63652707D01*
X155126194Y-63652704D01*
X155126192Y-63652700D01*
X155057510Y-63549911D01*
X155057507Y-63549907D01*
X154970092Y-63462492D01*
X154970088Y-63462489D01*
X154867299Y-63393807D01*
X154867291Y-63393803D01*
X154753072Y-63346492D01*
X154631816Y-63322373D01*
X154508184Y-63322373D01*
X154447556Y-63334432D01*
X154386927Y-63346492D01*
X154272708Y-63393803D01*
X154272700Y-63393807D01*
X154169911Y-63462489D01*
X154169907Y-63462492D01*
X154082492Y-63549907D01*
X154082489Y-63549911D01*
X154013807Y-63652700D01*
X154013803Y-63652708D01*
X153966492Y-63766927D01*
X153943171Y-63884174D01*
X153942373Y-63888184D01*
X152657627Y-63888184D01*
X152633508Y-63766928D01*
X152586196Y-63652707D01*
X152586194Y-63652704D01*
X152586192Y-63652700D01*
X152517510Y-63549911D01*
X152517507Y-63549907D01*
X152430092Y-63462492D01*
X152430088Y-63462489D01*
X152327299Y-63393807D01*
X152327291Y-63393803D01*
X152213072Y-63346492D01*
X152091816Y-63322373D01*
X151968184Y-63322373D01*
X151907556Y-63334432D01*
X151846927Y-63346492D01*
X151732708Y-63393803D01*
X151732700Y-63393807D01*
X151629911Y-63462489D01*
X151629907Y-63462492D01*
X151542492Y-63549907D01*
X151542489Y-63549911D01*
X151473807Y-63652700D01*
X151473803Y-63652708D01*
X151426492Y-63766927D01*
X151403171Y-63884174D01*
X151402373Y-63888184D01*
X150117627Y-63888184D01*
X150093508Y-63766928D01*
X150046196Y-63652707D01*
X150046194Y-63652704D01*
X150046192Y-63652700D01*
X149977510Y-63549911D01*
X149977507Y-63549907D01*
X149890092Y-63462492D01*
X149890088Y-63462489D01*
X149787299Y-63393807D01*
X149787291Y-63393803D01*
X149673072Y-63346492D01*
X149551816Y-63322373D01*
X149428184Y-63322373D01*
X149367556Y-63334432D01*
X149306927Y-63346492D01*
X149192708Y-63393803D01*
X149192700Y-63393807D01*
X149089911Y-63462489D01*
X149089907Y-63462492D01*
X149002492Y-63549907D01*
X149002489Y-63549911D01*
X148933807Y-63652700D01*
X148933803Y-63652708D01*
X148886492Y-63766927D01*
X148863171Y-63884174D01*
X148862373Y-63888184D01*
X147577627Y-63888184D01*
X147553508Y-63766928D01*
X147506196Y-63652707D01*
X147506194Y-63652704D01*
X147506192Y-63652700D01*
X147437510Y-63549911D01*
X147437507Y-63549907D01*
X147350092Y-63462492D01*
X147350088Y-63462489D01*
X147247299Y-63393807D01*
X147247291Y-63393803D01*
X147133072Y-63346492D01*
X147011816Y-63322373D01*
X146888184Y-63322373D01*
X146827556Y-63334432D01*
X146766927Y-63346492D01*
X146652708Y-63393803D01*
X146652700Y-63393807D01*
X146549911Y-63462489D01*
X146549907Y-63462492D01*
X146462492Y-63549907D01*
X146462489Y-63549911D01*
X146393807Y-63652700D01*
X146393803Y-63652708D01*
X146346492Y-63766927D01*
X146323171Y-63884174D01*
X146322373Y-63888184D01*
X145037627Y-63888184D01*
X145013508Y-63766928D01*
X144966196Y-63652707D01*
X144966194Y-63652704D01*
X144966192Y-63652700D01*
X144897510Y-63549911D01*
X144897507Y-63549907D01*
X144810092Y-63462492D01*
X144810088Y-63462489D01*
X144707299Y-63393807D01*
X144707291Y-63393803D01*
X144593072Y-63346492D01*
X144471816Y-63322373D01*
X144348184Y-63322373D01*
X144287556Y-63334432D01*
X144226927Y-63346492D01*
X144112708Y-63393803D01*
X144112700Y-63393807D01*
X144009911Y-63462489D01*
X144009907Y-63462492D01*
X143922492Y-63549907D01*
X143922489Y-63549911D01*
X143853807Y-63652700D01*
X143853803Y-63652708D01*
X143806492Y-63766927D01*
X143783171Y-63884174D01*
X143782373Y-63888184D01*
X142497627Y-63888184D01*
X142473508Y-63766928D01*
X142426196Y-63652707D01*
X142426194Y-63652704D01*
X142426192Y-63652700D01*
X142357510Y-63549911D01*
X142357507Y-63549907D01*
X142270092Y-63462492D01*
X142270088Y-63462489D01*
X142167299Y-63393807D01*
X142167291Y-63393803D01*
X142053072Y-63346492D01*
X141931816Y-63322373D01*
X141808184Y-63322373D01*
X141747556Y-63334432D01*
X141686927Y-63346492D01*
X141572708Y-63393803D01*
X141572700Y-63393807D01*
X141469911Y-63462489D01*
X141469907Y-63462492D01*
X141382492Y-63549907D01*
X141382489Y-63549911D01*
X141313807Y-63652700D01*
X141313803Y-63652708D01*
X141266492Y-63766927D01*
X141243171Y-63884174D01*
X141242373Y-63888184D01*
X139957627Y-63888184D01*
X139933508Y-63766928D01*
X139886196Y-63652707D01*
X139886194Y-63652704D01*
X139886192Y-63652700D01*
X139817510Y-63549911D01*
X139817507Y-63549907D01*
X139730092Y-63462492D01*
X139730088Y-63462489D01*
X139627299Y-63393807D01*
X139627291Y-63393803D01*
X139513072Y-63346492D01*
X139391816Y-63322373D01*
X139268184Y-63322373D01*
X139207556Y-63334432D01*
X139146927Y-63346492D01*
X139032708Y-63393803D01*
X139032700Y-63393807D01*
X138929911Y-63462489D01*
X138929907Y-63462492D01*
X138842492Y-63549907D01*
X138842489Y-63549911D01*
X138773807Y-63652700D01*
X138773803Y-63652708D01*
X138726492Y-63766927D01*
X138703171Y-63884174D01*
X138702373Y-63888184D01*
X137417627Y-63888184D01*
X137393508Y-63766928D01*
X137346196Y-63652707D01*
X137346194Y-63652704D01*
X137346192Y-63652700D01*
X137277510Y-63549911D01*
X137277507Y-63549907D01*
X137190092Y-63462492D01*
X137190088Y-63462489D01*
X137087299Y-63393807D01*
X137087291Y-63393803D01*
X136973072Y-63346492D01*
X136851816Y-63322373D01*
X136728184Y-63322373D01*
X136667556Y-63334432D01*
X136606927Y-63346492D01*
X136492708Y-63393803D01*
X136492700Y-63393807D01*
X136389911Y-63462489D01*
X136389907Y-63462492D01*
X136302492Y-63549907D01*
X136302489Y-63549911D01*
X136233807Y-63652700D01*
X136233803Y-63652708D01*
X136186492Y-63766927D01*
X136163171Y-63884174D01*
X136162373Y-63888184D01*
X134877627Y-63888184D01*
X134853508Y-63766928D01*
X134806196Y-63652707D01*
X134806194Y-63652704D01*
X134806192Y-63652700D01*
X134737510Y-63549911D01*
X134737507Y-63549907D01*
X134650092Y-63462492D01*
X134650088Y-63462489D01*
X134547299Y-63393807D01*
X134547291Y-63393803D01*
X134433072Y-63346492D01*
X134311816Y-63322373D01*
X134188184Y-63322373D01*
X134127556Y-63334432D01*
X134066927Y-63346492D01*
X133952708Y-63393803D01*
X133952700Y-63393807D01*
X133849911Y-63462489D01*
X133849907Y-63462492D01*
X133762492Y-63549907D01*
X133762489Y-63549911D01*
X133693807Y-63652700D01*
X133693803Y-63652708D01*
X133646492Y-63766927D01*
X133623171Y-63884174D01*
X133622373Y-63888184D01*
X129315541Y-63888184D01*
X129269037Y-63714629D01*
X129162305Y-63456956D01*
X129022853Y-63215418D01*
X128853067Y-62994148D01*
X128655852Y-62796933D01*
X128434582Y-62627147D01*
X128193044Y-62487695D01*
X128193036Y-62487691D01*
X128193035Y-62487691D01*
X127935380Y-62380966D01*
X127935369Y-62380962D01*
X127665968Y-62308776D01*
X127389452Y-62272373D01*
X127110548Y-62272373D01*
X126834031Y-62308776D01*
X126564630Y-62380962D01*
X126564619Y-62380966D01*
X126306964Y-62487691D01*
X126306959Y-62487693D01*
X126306956Y-62487695D01*
X126065418Y-62627147D01*
X126065417Y-62627147D01*
X125844149Y-62796932D01*
X125844142Y-62796938D01*
X125646938Y-62994142D01*
X125646932Y-62994149D01*
X125477147Y-63215417D01*
X125477147Y-63215418D01*
X125337695Y-63456956D01*
X125337693Y-63456959D01*
X125337691Y-63456964D01*
X125230966Y-63714619D01*
X125230962Y-63714630D01*
X125158776Y-63984031D01*
X125139163Y-64133011D01*
X125122373Y-64260548D01*
X123931882Y-64260548D01*
X123931882Y-61543582D01*
X123935309Y-61535309D01*
X123943582Y-61531882D01*
X179156418Y-61531882D01*
X179164691Y-61535309D01*
G37*
%TD.AperFunction*%
%TD*%
M02*
