%TF.GenerationSoftware,KiCad,Pcbnew,8.0.3-unknown-1000.20240604git093da7f.fc40*%
%TF.CreationDate,2024-06-05T17:15:31+10:00*%
%TF.ProjectId,l8-kicad,6c382d6b-6963-4616-942e-6b696361645f,1.00*%
%TF.SameCoordinates,Original*%
%TF.FileFunction,Copper,L1,Top*%
%TF.FilePolarity,Positive*%
%FSLAX46Y46*%
G04 Gerber Fmt 4.6, Leading zero omitted, Abs format (unit mm)*
G04 Created by KiCad (PCBNEW 8.0.3-unknown-1000.20240604git093da7f.fc40) date 2024-06-05 17:15:31*
%MOMM*%
%LPD*%
G01*
G04 APERTURE LIST*
G04 Aperture macros list*
%AMRoundRect*
0 Rectangle with rounded corners*
0 $1 Rounding radius*
0 $2 $3 $4 $5 $6 $7 $8 $9 X,Y pos of 4 corners*
0 Add a 4 corners polygon primitive as box body*
4,1,4,$2,$3,$4,$5,$6,$7,$8,$9,$2,$3,0*
0 Add four circle primitives for the rounded corners*
1,1,$1+$1,$2,$3*
1,1,$1+$1,$4,$5*
1,1,$1+$1,$6,$7*
1,1,$1+$1,$8,$9*
0 Add four rect primitives between the rounded corners*
20,1,$1+$1,$2,$3,$4,$5,0*
20,1,$1+$1,$4,$5,$6,$7,0*
20,1,$1+$1,$6,$7,$8,$9,0*
20,1,$1+$1,$8,$9,$2,$3,0*%
G04 Aperture macros list end*
%TA.AperFunction,EtchedComponent*%
%ADD10C,0.000000*%
%TD*%
%TA.AperFunction,SMDPad,CuDef*%
%ADD11RoundRect,0.225000X-0.225000X-0.375000X0.225000X-0.375000X0.225000X0.375000X-0.225000X0.375000X0*%
%TD*%
%TA.AperFunction,SMDPad,CuDef*%
%ADD12RoundRect,0.100000X-0.225000X-0.100000X0.225000X-0.100000X0.225000X0.100000X-0.225000X0.100000X0*%
%TD*%
%TA.AperFunction,SMDPad,CuDef*%
%ADD13RoundRect,0.200000X-0.200000X-0.275000X0.200000X-0.275000X0.200000X0.275000X-0.200000X0.275000X0*%
%TD*%
%TA.AperFunction,ComponentPad*%
%ADD14R,1.100000X1.100000*%
%TD*%
%TA.AperFunction,ComponentPad*%
%ADD15C,1.100000*%
%TD*%
%TA.AperFunction,ComponentPad*%
%ADD16O,1.100000X2.400000*%
%TD*%
%TA.AperFunction,SMDPad,CuDef*%
%ADD17R,2.000000X2.400000*%
%TD*%
%TA.AperFunction,SMDPad,CuDef*%
%ADD18RoundRect,0.200000X0.275000X-0.200000X0.275000X0.200000X-0.275000X0.200000X-0.275000X-0.200000X0*%
%TD*%
%TA.AperFunction,SMDPad,CuDef*%
%ADD19RoundRect,0.225000X0.250000X-0.225000X0.250000X0.225000X-0.250000X0.225000X-0.250000X-0.225000X0*%
%TD*%
%TA.AperFunction,SMDPad,CuDef*%
%ADD20R,0.750000X1.000000*%
%TD*%
%TA.AperFunction,SMDPad,CuDef*%
%ADD21RoundRect,0.075000X-0.075000X0.125000X-0.075000X-0.125000X0.075000X-0.125000X0.075000X0.125000X0*%
%TD*%
%TA.AperFunction,ConnectorPad*%
%ADD22C,0.787400*%
%TD*%
%TA.AperFunction,SMDPad,CuDef*%
%ADD23RoundRect,0.225000X-0.225000X-0.250000X0.225000X-0.250000X0.225000X0.250000X-0.225000X0.250000X0*%
%TD*%
%TA.AperFunction,ComponentPad*%
%ADD24C,1.600200*%
%TD*%
%TA.AperFunction,SMDPad,CuDef*%
%ADD25RoundRect,0.225000X-0.250000X0.225000X-0.250000X-0.225000X0.250000X-0.225000X0.250000X0.225000X0*%
%TD*%
%TA.AperFunction,SMDPad,CuDef*%
%ADD26RoundRect,0.100000X-0.100000X0.130000X-0.100000X-0.130000X0.100000X-0.130000X0.100000X0.130000X0*%
%TD*%
%TA.AperFunction,SMDPad,CuDef*%
%ADD27RoundRect,0.225000X0.225000X0.250000X-0.225000X0.250000X-0.225000X-0.250000X0.225000X-0.250000X0*%
%TD*%
%TA.AperFunction,SMDPad,CuDef*%
%ADD28C,1.000000*%
%TD*%
%TA.AperFunction,SMDPad,CuDef*%
%ADD29RoundRect,0.075000X-0.125000X-0.075000X0.125000X-0.075000X0.125000X0.075000X-0.125000X0.075000X0*%
%TD*%
%TA.AperFunction,SMDPad,CuDef*%
%ADD30RoundRect,0.150000X-0.587500X-0.150000X0.587500X-0.150000X0.587500X0.150000X-0.587500X0.150000X0*%
%TD*%
%TA.AperFunction,SMDPad,CuDef*%
%ADD31RoundRect,0.150000X-0.825000X-0.150000X0.825000X-0.150000X0.825000X0.150000X-0.825000X0.150000X0*%
%TD*%
%TA.AperFunction,SMDPad,CuDef*%
%ADD32RoundRect,0.075000X-0.075000X0.725000X-0.075000X-0.725000X0.075000X-0.725000X0.075000X0.725000X0*%
%TD*%
%TA.AperFunction,SMDPad,CuDef*%
%ADD33RoundRect,0.075000X-0.725000X0.075000X-0.725000X-0.075000X0.725000X-0.075000X0.725000X0.075000X0*%
%TD*%
%TA.AperFunction,SMDPad,CuDef*%
%ADD34RoundRect,0.200000X-0.275000X0.200000X-0.275000X-0.200000X0.275000X-0.200000X0.275000X0.200000X0*%
%TD*%
%TA.AperFunction,ComponentPad*%
%ADD35R,1.700000X1.700000*%
%TD*%
%TA.AperFunction,ComponentPad*%
%ADD36O,1.700000X1.700000*%
%TD*%
%TA.AperFunction,SMDPad,CuDef*%
%ADD37RoundRect,0.218750X0.256250X-0.218750X0.256250X0.218750X-0.256250X0.218750X-0.256250X-0.218750X0*%
%TD*%
%TA.AperFunction,ComponentPad*%
%ADD38R,1.600000X1.600000*%
%TD*%
%TA.AperFunction,ComponentPad*%
%ADD39O,1.600000X1.600000*%
%TD*%
%TA.AperFunction,SMDPad,CuDef*%
%ADD40R,2.794000X0.762000*%
%TD*%
%TA.AperFunction,SMDPad,CuDef*%
%ADD41R,0.800000X0.500000*%
%TD*%
%TA.AperFunction,SMDPad,CuDef*%
%ADD42R,0.800000X0.400000*%
%TD*%
%TA.AperFunction,SMDPad,CuDef*%
%ADD43RoundRect,0.250000X-0.250000X-0.475000X0.250000X-0.475000X0.250000X0.475000X-0.250000X0.475000X0*%
%TD*%
%TA.AperFunction,SMDPad,CuDef*%
%ADD44RoundRect,0.218750X-0.218750X-0.256250X0.218750X-0.256250X0.218750X0.256250X-0.218750X0.256250X0*%
%TD*%
%TA.AperFunction,SMDPad,CuDef*%
%ADD45RoundRect,0.250000X1.000000X-1.400000X1.000000X1.400000X-1.000000X1.400000X-1.000000X-1.400000X0*%
%TD*%
%TA.AperFunction,SMDPad,CuDef*%
%ADD46RoundRect,0.150000X0.587500X0.150000X-0.587500X0.150000X-0.587500X-0.150000X0.587500X-0.150000X0*%
%TD*%
%TA.AperFunction,SMDPad,CuDef*%
%ADD47RoundRect,0.250000X0.450000X-0.262500X0.450000X0.262500X-0.450000X0.262500X-0.450000X-0.262500X0*%
%TD*%
%TA.AperFunction,SMDPad,CuDef*%
%ADD48R,0.508000X1.397000*%
%TD*%
%TA.AperFunction,SMDPad,CuDef*%
%ADD49R,0.050800X0.050800*%
%TD*%
%TA.AperFunction,SMDPad,CuDef*%
%ADD50R,0.711200X0.508000*%
%TD*%
%TA.AperFunction,SMDPad,CuDef*%
%ADD51R,0.508000X0.711200*%
%TD*%
%TA.AperFunction,SMDPad,CuDef*%
%ADD52RoundRect,0.250000X0.250000X0.475000X-0.250000X0.475000X-0.250000X-0.475000X0.250000X-0.475000X0*%
%TD*%
%TA.AperFunction,SMDPad,CuDef*%
%ADD53RoundRect,0.075000X0.075000X-0.125000X0.075000X0.125000X-0.075000X0.125000X-0.075000X-0.125000X0*%
%TD*%
%TA.AperFunction,SMDPad,CuDef*%
%ADD54RoundRect,0.093750X-0.093750X-0.106250X0.093750X-0.106250X0.093750X0.106250X-0.093750X0.106250X0*%
%TD*%
%TA.AperFunction,HeatsinkPad*%
%ADD55C,0.500000*%
%TD*%
%TA.AperFunction,HeatsinkPad*%
%ADD56R,1.000000X1.600000*%
%TD*%
%TA.AperFunction,ComponentPad*%
%ADD57R,2.400000X2.400000*%
%TD*%
%TA.AperFunction,ComponentPad*%
%ADD58C,2.400000*%
%TD*%
%TA.AperFunction,SMDPad,CuDef*%
%ADD59RoundRect,0.200000X0.200000X0.275000X-0.200000X0.275000X-0.200000X-0.275000X0.200000X-0.275000X0*%
%TD*%
%TA.AperFunction,ComponentPad*%
%ADD60R,2.000000X2.000000*%
%TD*%
%TA.AperFunction,ComponentPad*%
%ADD61C,2.000000*%
%TD*%
%TA.AperFunction,Conductor*%
%ADD62C,0.127127*%
%TD*%
G04 APERTURE END LIST*
D10*
%TA.AperFunction,EtchedComponent*%
%TO.C,U5*%
G36*
X124060900Y-111672660D02*
G01*
X124060900Y-112002860D01*
X123349700Y-112002860D01*
X123349700Y-111494860D01*
X123883100Y-111494860D01*
X124060900Y-111672660D01*
G37*
%TD.AperFunction*%
%TA.AperFunction,EtchedComponent*%
G36*
X124060900Y-114827340D02*
G01*
X123883100Y-115005140D01*
X123349700Y-115005140D01*
X123349700Y-114497140D01*
X124060900Y-114497140D01*
X124060900Y-114827340D01*
G37*
%TD.AperFunction*%
%TA.AperFunction,EtchedComponent*%
G36*
X124502860Y-111560900D02*
G01*
X124172660Y-111560900D01*
X123994860Y-111383100D01*
X123994860Y-110849700D01*
X124502860Y-110849700D01*
X124502860Y-111560900D01*
G37*
%TD.AperFunction*%
%TA.AperFunction,EtchedComponent*%
G36*
X124502860Y-115650300D02*
G01*
X123994860Y-115650300D01*
X123994860Y-115116900D01*
X124172660Y-114939100D01*
X124502860Y-114939100D01*
X124502860Y-115650300D01*
G37*
%TD.AperFunction*%
%TA.AperFunction,EtchedComponent*%
G36*
X127505140Y-111383100D02*
G01*
X127327340Y-111560900D01*
X126997140Y-111560900D01*
X126997140Y-110849700D01*
X127505140Y-110849700D01*
X127505140Y-111383100D01*
G37*
%TD.AperFunction*%
%TA.AperFunction,EtchedComponent*%
G36*
X127505140Y-115116900D02*
G01*
X127505140Y-115650300D01*
X126997140Y-115650300D01*
X126997140Y-114939100D01*
X127327340Y-114939100D01*
X127505140Y-115116900D01*
G37*
%TD.AperFunction*%
%TA.AperFunction,EtchedComponent*%
G36*
X128150300Y-112002860D02*
G01*
X127439100Y-112002860D01*
X127439100Y-111672660D01*
X127616900Y-111494860D01*
X128150300Y-111494860D01*
X128150300Y-112002860D01*
G37*
%TD.AperFunction*%
%TA.AperFunction,EtchedComponent*%
G36*
X128150300Y-115005140D02*
G01*
X127616900Y-115005140D01*
X127439100Y-114827340D01*
X127439100Y-114497140D01*
X128150300Y-114497140D01*
X128150300Y-115005140D01*
G37*
%TD.AperFunction*%
%TD*%
D11*
%TO.P,D17,1,K*%
%TO.N,+5V*%
X135100000Y-231600000D03*
%TO.P,D17,2,A*%
%TO.N,Net-(D10-A)*%
X138400000Y-231600000D03*
%TD*%
D12*
%TO.P,D16,1*%
%TO.N,/MCU/PA10*%
X114100000Y-201350000D03*
%TO.P,D16,2*%
%TO.N,GND*%
X114100000Y-202000000D03*
%TO.P,D16,3*%
%TO.N,/MCU/USB_OTG_FS_DP*%
X114100000Y-202650000D03*
%TO.P,D16,4*%
%TO.N,Net-(D10-A)*%
X116000000Y-202650000D03*
%TO.P,D16,5*%
%TO.N,+5V*%
X116000000Y-202000000D03*
%TO.P,D16,6*%
%TO.N,/MCU/USB_OTG_FS_DM*%
X116000000Y-201350000D03*
%TD*%
D13*
%TO.P,R47,1*%
%TO.N,/MCU/Shield*%
X53500000Y-197200000D03*
%TO.P,R47,2*%
%TO.N,GND*%
X55150000Y-197200000D03*
%TD*%
%TO.P,R48,1*%
%TO.N,GND*%
X193200000Y-114275000D03*
%TO.P,R48,2*%
%TO.N,Net-(D10-K)*%
X194850000Y-114275000D03*
%TD*%
%TO.P,R45,1*%
%TO.N,GND*%
X51500000Y-208950000D03*
%TO.P,R45,2*%
%TO.N,/MCU/BOOT0*%
X53150000Y-208950000D03*
%TD*%
D14*
%TO.P,J1,1,VBUS*%
%TO.N,Net-(D10-A)*%
X195600000Y-106475000D03*
D15*
%TO.P,J1,2,D-*%
%TO.N,/MCU/USB_OTG_FS_DM*%
X194800000Y-108225000D03*
%TO.P,J1,3,D+*%
%TO.N,/MCU/USB_OTG_FS_DP*%
X194000000Y-106475000D03*
%TO.P,J1,4,ID*%
%TO.N,/MCU/PA10*%
X193200000Y-108225000D03*
%TO.P,J1,5,GND*%
%TO.N,GND*%
X192400000Y-106475000D03*
D16*
%TO.P,J1,6,Shield*%
%TO.N,/MCU/Shield*%
X197650000Y-107350000D03*
X190350000Y-107350000D03*
%TD*%
D17*
%TO.P,X1,1,1*%
%TO.N,/MCU/RCC_OSC_OUT*%
X121950000Y-142000000D03*
%TO.P,X1,2,2*%
%TO.N,/MCU/RCC_OSC_IN*%
X125650000Y-142000000D03*
%TD*%
D18*
%TO.P,R43,1*%
%TO.N,+3.3V*%
X97850000Y-246750000D03*
%TO.P,R43,2*%
%TO.N,/MCU/NRST*%
X97850000Y-245100000D03*
%TD*%
D19*
%TO.P,C20,1*%
%TO.N,GND*%
X66450000Y-135825000D03*
%TO.P,C20,2*%
%TO.N,/MCU/NRST*%
X66450000Y-134275000D03*
%TD*%
D20*
%TO.P,SW1,1,1*%
%TO.N,+3.3V*%
X60900000Y-150750000D03*
X60900000Y-144750000D03*
%TO.P,SW1,2,2*%
%TO.N,/MCU/BOOT0*%
X64650000Y-150750000D03*
X64650000Y-144750000D03*
%TD*%
D21*
%TO.P,C30,1*%
%TO.N,GND*%
X127175000Y-149900000D03*
%TO.P,C30,2*%
%TO.N,+3.3V*%
X127175000Y-150400000D03*
%TD*%
D22*
%TO.P,J7,1,Pin_1*%
%TO.N,+3.3V*%
X66150000Y-192480000D03*
%TO.P,J7,2,Pin_2*%
%TO.N,/MCU/SYS_JTMS-SWDIO*%
X67420000Y-192480000D03*
%TO.P,J7,3,Pin_3*%
%TO.N,/MCU/NRST*%
X66150000Y-193750000D03*
%TO.P,J7,4,Pin_4*%
%TO.N,/MCU/SYS_JTCK-SWCLK*%
X67420000Y-193750000D03*
%TO.P,J7,5,Pin_5*%
%TO.N,GND*%
X66150000Y-195020000D03*
%TO.P,J7,6,Pin_6*%
%TO.N,/MCU/SYS_JTDO-SWO*%
X67420000Y-195020000D03*
%TD*%
D23*
%TO.P,C29,1*%
%TO.N,GND*%
X89300000Y-171350000D03*
%TO.P,C29,2*%
%TO.N,Net-(U3-VDDA)*%
X90850000Y-171350000D03*
%TD*%
D24*
%TO.P,U1,1,GND*%
%TO.N,GND*%
X145440000Y-113225000D03*
%TO.P,U1,2,VIN*%
%TO.N,+5V*%
X147980000Y-113225000D03*
%TO.P,U1,3,0V*%
%TO.N,/GND_ISO*%
X150520000Y-113225000D03*
%TO.P,U1,4,+VO*%
%TO.N,/+5V_ISO*%
X153060000Y-113225000D03*
%TD*%
D25*
%TO.P,C23,1*%
%TO.N,GND*%
X90550000Y-178000000D03*
%TO.P,C23,2*%
%TO.N,Net-(U3-VDDA)*%
X90550000Y-179550000D03*
%TD*%
D26*
%TO.P,FB1,1*%
%TO.N,+3.3V*%
X102350000Y-261935000D03*
%TO.P,FB1,2*%
%TO.N,Net-(U3-VDDA)*%
X102350000Y-262575000D03*
%TD*%
D18*
%TO.P,R13,1*%
%TO.N,/SENSOR_ON*%
X90950000Y-220100000D03*
%TO.P,R13,2*%
%TO.N,Net-(Q1-G)*%
X90950000Y-218450000D03*
%TD*%
D27*
%TO.P,C5,1*%
%TO.N,GND*%
X141725000Y-109400000D03*
%TO.P,C5,2*%
%TO.N,+3.3V*%
X140175000Y-109400000D03*
%TD*%
D28*
%TO.P,TP4,1,1*%
%TO.N,/SPI2_SDO*%
X222750000Y-169250000D03*
%TD*%
D29*
%TO.P,C6,1*%
%TO.N,/MCU/Shield*%
X190275000Y-111975000D03*
%TO.P,C6,2*%
%TO.N,GND*%
X190775000Y-111975000D03*
%TD*%
%TO.P,C16,1*%
%TO.N,GND*%
X129125000Y-170950000D03*
%TO.P,C16,2*%
%TO.N,+3.3V*%
X129625000Y-170950000D03*
%TD*%
%TO.P,C3,1*%
%TO.N,+3.3V*%
X125675000Y-119700000D03*
%TO.P,C3,2*%
%TO.N,Net-(Q1-D)*%
X126175000Y-119700000D03*
%TD*%
D28*
%TO.P,TP3,1,1*%
%TO.N,/SPI2_SDI*%
X240800000Y-175550000D03*
%TD*%
%TO.P,TP34,1,1*%
%TO.N,/MCU/PE1*%
X246150000Y-163750000D03*
%TD*%
%TO.P,TP31,1,1*%
%TO.N,/MCU/PE8*%
X246150000Y-154600000D03*
%TD*%
%TO.P,TP30,1,1*%
%TO.N,/MCU/PD9*%
X246150000Y-151550000D03*
%TD*%
%TO.P,TP22,1,1*%
%TO.N,/MCU/PB8*%
X243100000Y-151550000D03*
%TD*%
%TO.P,TP9,1,1*%
%TO.N,/MCU/PC7*%
X237000000Y-154600000D03*
%TD*%
%TO.P,TP1,1,1*%
%TO.N,+5V*%
X222750000Y-175000000D03*
%TD*%
D30*
%TO.P,Q5,1,G*%
%TO.N,Net-(Q5-G)*%
X155050000Y-206300000D03*
%TO.P,Q5,2,D*%
%TO.N,Net-(BZ1--)*%
X155050000Y-208200000D03*
%TO.P,Q5,3,S*%
%TO.N,GND*%
X156925000Y-207250000D03*
%TD*%
D28*
%TO.P,TP17,1,1*%
%TO.N,/MCU/PA1*%
X240050000Y-157650000D03*
%TD*%
D25*
%TO.P,C1,1*%
%TO.N,Net-(U3-VCAP_2)*%
X96950000Y-170175000D03*
%TO.P,C1,2*%
%TO.N,GND*%
X96950000Y-171725000D03*
%TD*%
D28*
%TO.P,TP39,1,1*%
%TO.N,/MCU/PD10*%
X249200000Y-157650000D03*
%TD*%
D31*
%TO.P,U2,1,VCC1*%
%TO.N,+3.3V*%
X145525000Y-115595000D03*
%TO.P,U2,2,TXD*%
%TO.N,/CAN1_TX*%
X145525000Y-116865000D03*
%TO.P,U2,3,RXD*%
%TO.N,/CAN1_RX*%
X145525000Y-118135000D03*
%TO.P,U2,4,GND1*%
%TO.N,GND*%
X145525000Y-119405000D03*
%TO.P,U2,5,GND2*%
%TO.N,/GND_ISO*%
X150475000Y-119405000D03*
%TO.P,U2,6,CANL*%
%TO.N,/CAN_L*%
X150475000Y-118135000D03*
%TO.P,U2,7,CANH*%
%TO.N,/CAN_H*%
X150475000Y-116865000D03*
%TO.P,U2,8,VCC2*%
%TO.N,/+5V_ISO*%
X150475000Y-115595000D03*
%TD*%
D32*
%TO.P,U3,1,SPI4_SCK*%
%TO.N,/SPI4_SCK*%
X129650000Y-153075000D03*
%TO.P,U3,2,PE3*%
%TO.N,/SPI4_CS*%
X129150000Y-153075000D03*
%TO.P,U3,3,PE4*%
%TO.N,/SPI4_IRQ*%
X128650000Y-153075000D03*
%TO.P,U3,4,SPI4_MISO*%
%TO.N,/SPI4_SDI*%
X128150000Y-153075000D03*
%TO.P,U3,5,SPI4_MOSI*%
%TO.N,/SPI4_SDO*%
X127650000Y-153075000D03*
%TO.P,U3,6,VBAT*%
%TO.N,+3.3V*%
X127150000Y-153075000D03*
%TO.P,U3,7,PC13*%
%TO.N,/MCU/PC13*%
X126650000Y-153075000D03*
%TO.P,U3,8,PC14*%
%TO.N,/MCU/PC14*%
X126150000Y-153075000D03*
%TO.P,U3,9,PC15*%
%TO.N,/MCU/PC15*%
X125650000Y-153075000D03*
%TO.P,U3,10,VSS*%
%TO.N,GND*%
X125150000Y-153075000D03*
%TO.P,U3,11,VDD*%
%TO.N,+3.3V*%
X124650000Y-153075000D03*
%TO.P,U3,12,PH0*%
%TO.N,/MCU/RCC_OSC_IN*%
X124150000Y-153075000D03*
%TO.P,U3,13,PH1*%
%TO.N,/MCU/RCC_OSC_OUT*%
X123650000Y-153075000D03*
%TO.P,U3,14,NRST*%
%TO.N,/MCU/NRST*%
X123150000Y-153075000D03*
%TO.P,U3,15,PC0*%
%TO.N,/MCU/PC0*%
X122650000Y-153075000D03*
%TO.P,U3,16,PC1*%
%TO.N,/SPI2_CS*%
X122150000Y-153075000D03*
%TO.P,U3,17,SPI2_MISO*%
%TO.N,/SPI2_SDO*%
X121650000Y-153075000D03*
%TO.P,U3,18,SPI2_MOSI*%
%TO.N,/SPI2_SDI*%
X121150000Y-153075000D03*
%TO.P,U3,19,VDD*%
%TO.N,+3.3V*%
X120650000Y-153075000D03*
%TO.P,U3,20,VSSA*%
%TO.N,GND*%
X120150000Y-153075000D03*
%TO.P,U3,21,VREF+*%
%TO.N,Net-(U3-VDDA)*%
X119650000Y-153075000D03*
%TO.P,U3,22,VDDA*%
X119150000Y-153075000D03*
%TO.P,U3,23,PA0*%
%TO.N,/MCU/PA0*%
X118650000Y-153075000D03*
%TO.P,U3,24,PA1*%
%TO.N,/MCU/PA1*%
X118150000Y-153075000D03*
%TO.P,U3,25,USART2_TX*%
%TO.N,/MCU/USART2_TX*%
X117650000Y-153075000D03*
D33*
%TO.P,U3,26,USART2_RX*%
%TO.N,/MCU/USART2_RX*%
X115975000Y-154750000D03*
%TO.P,U3,27,VSS*%
%TO.N,GND*%
X115975000Y-155250000D03*
%TO.P,U3,28,VDD*%
%TO.N,+3.3V*%
X115975000Y-155750000D03*
%TO.P,U3,29,PA4*%
%TO.N,/MCU/PA4*%
X115975000Y-156250000D03*
%TO.P,U3,30,SPI1_SCK*%
%TO.N,/SPI1_SCK*%
X115975000Y-156750000D03*
%TO.P,U3,31,SPI1_MISO*%
%TO.N,/SPI1_SDI*%
X115975000Y-157250000D03*
%TO.P,U3,32,SPI1_MOSI*%
%TO.N,/SPI1_SDO*%
X115975000Y-157750000D03*
%TO.P,U3,33,PC4*%
%TO.N,/SPI1_CS*%
X115975000Y-158250000D03*
%TO.P,U3,34,PC5*%
%TO.N,/SPI1_CS2*%
X115975000Y-158750000D03*
%TO.P,U3,35,PB0*%
%TO.N,/SPI1_IRQ*%
X115975000Y-159250000D03*
%TO.P,U3,36,PB1*%
%TO.N,/SPI1_IRQ2*%
X115975000Y-159750000D03*
%TO.P,U3,37,PB2*%
%TO.N,/MCU/BOOT1*%
X115975000Y-160250000D03*
%TO.P,U3,38,PE7*%
%TO.N,/MCU/PE7*%
X115975000Y-160750000D03*
%TO.P,U3,39,PE8*%
%TO.N,/MCU/PE8*%
X115975000Y-161250000D03*
%TO.P,U3,40,PE9*%
%TO.N,/MCU/PE9*%
X115975000Y-161750000D03*
%TO.P,U3,41,PE10*%
%TO.N,/MCU/PE10*%
X115975000Y-162250000D03*
%TO.P,U3,42,PE11*%
%TO.N,/MCU/PE11*%
X115975000Y-162750000D03*
%TO.P,U3,43,PE12*%
%TO.N,/MCU/PE12*%
X115975000Y-163250000D03*
%TO.P,U3,44,PE13*%
%TO.N,/MCU/BEEPER*%
X115975000Y-163750000D03*
%TO.P,U3,45,PE14*%
%TO.N,/LCD_ON*%
X115975000Y-164250000D03*
%TO.P,U3,46,PE15*%
%TO.N,/SENSOR_ON*%
X115975000Y-164750000D03*
%TO.P,U3,47,PB10*%
%TO.N,/MCU/PB10*%
X115975000Y-165250000D03*
%TO.P,U3,48,PB11*%
%TO.N,/MCU/PB11*%
X115975000Y-165750000D03*
%TO.P,U3,49,VCAP_1*%
%TO.N,Net-(U3-VCAP_1)*%
X115975000Y-166250000D03*
%TO.P,U3,50,VDD*%
%TO.N,+3.3V*%
X115975000Y-166750000D03*
D32*
%TO.P,U3,51,PB12*%
%TO.N,/MCU/PB12*%
X117650000Y-168425000D03*
%TO.P,U3,52,SPI2_SCK*%
%TO.N,/SPI2_SCK*%
X118150000Y-168425000D03*
%TO.P,U3,53,PB14*%
%TO.N,/SPI2_IRQ*%
X118650000Y-168425000D03*
%TO.P,U3,54,PB15*%
%TO.N,/SPI2_IRQ2*%
X119150000Y-168425000D03*
%TO.P,U3,55,PD8*%
%TO.N,/MCU/PD8*%
X119650000Y-168425000D03*
%TO.P,U3,56,PD9*%
%TO.N,/MCU/PD9*%
X120150000Y-168425000D03*
%TO.P,U3,57,PD10*%
%TO.N,/MCU/PD10*%
X120650000Y-168425000D03*
%TO.P,U3,58,PD11*%
%TO.N,/MCU/PD11*%
X121150000Y-168425000D03*
%TO.P,U3,59,PD12*%
%TO.N,/MCU/PD12*%
X121650000Y-168425000D03*
%TO.P,U3,60,PD13*%
%TO.N,/MCU/PD13*%
X122150000Y-168425000D03*
%TO.P,U3,61,PD14*%
%TO.N,/MCU/PD14*%
X122650000Y-168425000D03*
%TO.P,U3,62,PD15*%
%TO.N,/MCU/PD15*%
X123150000Y-168425000D03*
%TO.P,U3,63,PC6*%
%TO.N,/MCU/PC6*%
X123650000Y-168425000D03*
%TO.P,U3,64,PC7*%
%TO.N,/MCU/PC7*%
X124150000Y-168425000D03*
%TO.P,U3,65,PC8*%
%TO.N,/MCU/PC8*%
X124650000Y-168425000D03*
%TO.P,U3,66,PC9*%
%TO.N,/MCU/PC9*%
X125150000Y-168425000D03*
%TO.P,U3,67,PA8*%
%TO.N,/MCU/PA8*%
X125650000Y-168425000D03*
%TO.P,U3,68,USB_OTG_FS_VBUS*%
%TO.N,/MCU/USB_OTG_FS_VBUS*%
X126150000Y-168425000D03*
%TO.P,U3,69,PA10*%
%TO.N,/MCU/PA10*%
X126650000Y-168425000D03*
%TO.P,U3,70,USB_OTG_FS_DM*%
%TO.N,/MCU/USB_OTG_FS_DM*%
X127150000Y-168425000D03*
%TO.P,U3,71,USB_OTG_FS_DP*%
%TO.N,/MCU/USB_OTG_FS_DP*%
X127650000Y-168425000D03*
%TO.P,U3,72,SYS_JTMS-SWDIO*%
%TO.N,/MCU/SYS_JTMS-SWDIO*%
X128150000Y-168425000D03*
%TO.P,U3,73,VCAP_2*%
%TO.N,Net-(U3-VCAP_2)*%
X128650000Y-168425000D03*
%TO.P,U3,74,VSS*%
%TO.N,GND*%
X129150000Y-168425000D03*
%TO.P,U3,75,VDD*%
%TO.N,+3.3V*%
X129650000Y-168425000D03*
D33*
%TO.P,U3,76,SYS_JTCK-SWCLK*%
%TO.N,/MCU/SYS_JTCK-SWCLK*%
X131325000Y-166750000D03*
%TO.P,U3,77,SYS_JTDI*%
%TO.N,/MCU/SYS_JTDI*%
X131325000Y-166250000D03*
%TO.P,U3,78,SPI3_SCK*%
%TO.N,Net-(U3-PC10)*%
X131325000Y-165750000D03*
%TO.P,U3,79,SPI3_MISO*%
%TO.N,Net-(U3-PC11)*%
X131325000Y-165250000D03*
%TO.P,U3,80,SPI3_MOSI*%
%TO.N,Net-(U3-PC12)*%
X131325000Y-164750000D03*
%TO.P,U3,81,PD0*%
%TO.N,/CAN1_RX*%
X131325000Y-164250000D03*
%TO.P,U3,82,PD1*%
%TO.N,/CAN1_TX*%
X131325000Y-163750000D03*
%TO.P,U3,83,PD2*%
%TO.N,/SPI3_CS*%
X131325000Y-163250000D03*
%TO.P,U3,84,PD3*%
%TO.N,/LCD_RESET*%
X131325000Y-162750000D03*
%TO.P,U3,85,PD4*%
%TO.N,/LCD_LED*%
X131325000Y-162250000D03*
%TO.P,U3,86,PD5*%
%TO.N,/LCD_DC*%
X131325000Y-161750000D03*
%TO.P,U3,87,PD6*%
%TO.N,/MCU/PD6*%
X131325000Y-161250000D03*
%TO.P,U3,88,PD7*%
%TO.N,/MCU/PD7*%
X131325000Y-160750000D03*
%TO.P,U3,89,SYS_JTDO-SWO*%
%TO.N,/MCU/SYS_JTDO-SWO*%
X131325000Y-160250000D03*
%TO.P,U3,90,PB4*%
%TO.N,/MCU/PB4*%
X131325000Y-159750000D03*
%TO.P,U3,91,PB5*%
%TO.N,/MCU/PB5*%
X131325000Y-159250000D03*
%TO.P,U3,92,USART1_TX*%
%TO.N,/MCU/USART1_TX*%
X131325000Y-158750000D03*
%TO.P,U3,93,USART1_RX*%
%TO.N,/MCU/USART1_RX*%
X131325000Y-158250000D03*
%TO.P,U3,94,BOOT0*%
%TO.N,/MCU/BOOT0*%
X131325000Y-157750000D03*
%TO.P,U3,95,PB8*%
%TO.N,/MCU/PB8*%
X131325000Y-157250000D03*
%TO.P,U3,96,PB9*%
%TO.N,/MCU/PB9*%
X131325000Y-156750000D03*
%TO.P,U3,97,PE0*%
%TO.N,/MCU/PE0*%
X131325000Y-156250000D03*
%TO.P,U3,98,PE1*%
%TO.N,/MCU/PE1*%
X131325000Y-155750000D03*
%TO.P,U3,99,VSS*%
%TO.N,GND*%
X131325000Y-155250000D03*
%TO.P,U3,100,VDD*%
%TO.N,+3.3V*%
X131325000Y-154750000D03*
%TD*%
D34*
%TO.P,R3,1*%
%TO.N,Net-(Q4-G)*%
X110000000Y-116175000D03*
%TO.P,R3,2*%
%TO.N,/LCD_ON*%
X110000000Y-117825000D03*
%TD*%
D28*
%TO.P,TP21,1,1*%
%TO.N,/MCU/PB5*%
X240050000Y-169850000D03*
%TD*%
D34*
%TO.P,R39,1*%
%TO.N,/SPI4_CS*%
X137250000Y-107425000D03*
%TO.P,R39,2*%
%TO.N,+3.3V*%
X137250000Y-109075000D03*
%TD*%
D35*
%TO.P,J2,1,VCC*%
%TO.N,+3.3V*%
X111340000Y-101880000D03*
D36*
%TO.P,J2,2,GND*%
%TO.N,Net-(J2-GND)*%
X113880000Y-101880000D03*
%TO.P,J2,3,CS*%
%TO.N,/SPI3_CS*%
X116420000Y-101880000D03*
%TO.P,J2,4,RESET*%
%TO.N,/LCD_RESET*%
X118960000Y-101880000D03*
%TO.P,J2,5,D/C*%
%TO.N,/LCD_DC*%
X121500000Y-101880000D03*
%TO.P,J2,6,SDI*%
%TO.N,/SPI3_SDO*%
X124040000Y-101880000D03*
%TO.P,J2,7,SCK*%
%TO.N,/SPI3_SCK*%
X126580000Y-101880000D03*
%TO.P,J2,8,LED*%
%TO.N,/LCD_LED*%
X129120000Y-101880000D03*
%TO.P,J2,9,SDO*%
%TO.N,/SPI3_SDI*%
X131660000Y-101880000D03*
%TO.P,J2,10,T_SCK*%
%TO.N,/SPI4_SCK*%
X134200000Y-101880000D03*
%TO.P,J2,11,T_CS*%
%TO.N,/SPI4_CS*%
X136740000Y-101880000D03*
%TO.P,J2,12,T_SDI*%
%TO.N,/SPI4_SDO*%
X139280000Y-101880000D03*
%TO.P,J2,13,T_SDO*%
%TO.N,/SPI4_SDI*%
X141820000Y-101880000D03*
%TO.P,J2,14,T_IRQ*%
%TO.N,/SPI4_IRQ*%
X144360000Y-101880000D03*
%TD*%
D29*
%TO.P,C4,1*%
%TO.N,+3.3V*%
X140750000Y-113550000D03*
%TO.P,C4,2*%
%TO.N,GND*%
X141250000Y-113550000D03*
%TD*%
D28*
%TO.P,TP12,1,1*%
%TO.N,/MCU/PC13*%
X237000000Y-163750000D03*
%TD*%
D35*
%TO.P,PS1,1,VOUT*%
%TO.N,+5V*%
X102750000Y-110750000D03*
D36*
%TO.P,PS1,2,GND*%
%TO.N,GND*%
X102750000Y-113290000D03*
%TO.P,PS1,3,VIN*%
%TO.N,Net-(D1-A)*%
X102750000Y-115830000D03*
%TO.P,PS1,4,SHDN*%
%TO.N,unconnected-(PS1-SHDN-Pad4)*%
X102750000Y-118370000D03*
%TD*%
D34*
%TO.P,R10,1*%
%TO.N,Net-(Q1-D)*%
X181721140Y-221293400D03*
%TO.P,R10,2*%
%TO.N,/SPI2_IRQ2*%
X181721140Y-222943400D03*
%TD*%
D37*
%TO.P,D4,1,K*%
%TO.N,Net-(D4-K)*%
X117050000Y-188375000D03*
%TO.P,D4,2,A*%
%TO.N,/MCU/PD12*%
X117050000Y-186800000D03*
%TD*%
D28*
%TO.P,TP32,1,1*%
%TO.N,/MCU/PE7*%
X246150000Y-157650000D03*
%TD*%
%TO.P,TP40,1,1*%
%TO.N,/MCU/PD11*%
X249200000Y-160700000D03*
%TD*%
D38*
%TO.P,U4,1,VDD*%
%TO.N,+3.3V*%
X137349100Y-105250000D03*
D39*
%TO.P,U4,2,VDD_IO*%
X134809100Y-105250000D03*
%TO.P,U4,3*%
%TO.N,unconnected-(U4-Pad3)*%
X132269100Y-105250000D03*
%TO.P,U4,4*%
%TO.N,unconnected-(U4-Pad4)*%
X129729100Y-105250000D03*
%TO.P,U4,5*%
%TO.N,unconnected-(U4-Pad5)*%
X127189100Y-105250000D03*
%TO.P,U4,6*%
%TO.N,unconnected-(U4-Pad6)*%
X124649100Y-105250000D03*
%TO.P,U4,7*%
%TO.N,unconnected-(U4-Pad7)*%
X122109100Y-105250000D03*
%TO.P,U4,8*%
%TO.N,unconnected-(U4-Pad8)*%
X119569100Y-105250000D03*
%TO.P,U4,9*%
%TO.N,unconnected-(U4-Pad9)*%
X117029100Y-105250000D03*
%TO.P,U4,10*%
%TO.N,unconnected-(U4-Pad10)*%
X114489100Y-105250000D03*
%TO.P,U4,11*%
%TO.N,unconnected-(U4-Pad11)*%
X111949100Y-105250000D03*
%TO.P,U4,12*%
%TO.N,unconnected-(U4-Pad12)*%
X109409100Y-105250000D03*
%TO.P,U4,13,GND*%
%TO.N,Net-(Q1-D)*%
X109409100Y-120490000D03*
%TO.P,U4,14,DIL_INT1*%
%TO.N,/SPI1_IRQ*%
X111949100Y-120490000D03*
%TO.P,U4,15,DIL_INT2*%
%TO.N,/SPI1_IRQ2*%
X114489100Y-120490000D03*
%TO.P,U4,16,DIL_INT3*%
%TO.N,unconnected-(U4-DIL_INT3-Pad16)*%
X117029100Y-120490000D03*
%TO.P,U4,17,DIL_INT4*%
%TO.N,unconnected-(U4-DIL_INT4-Pad17)*%
X119569100Y-120490000D03*
%TO.P,U4,18,SPI_dut_CS2*%
%TO.N,/SPI1_CS2*%
X122109100Y-120490000D03*
%TO.P,U4,19,CS*%
%TO.N,/SPI1_CS*%
X124649100Y-120490000D03*
%TO.P,U4,20,SCL*%
%TO.N,/SPI1_SCK*%
X127189100Y-120490000D03*
%TO.P,U4,21,SDA*%
%TO.N,/SPI1_SDO*%
X129729100Y-120490000D03*
%TO.P,U4,22,SDO*%
%TO.N,/SPI1_SDI*%
X132269100Y-120490000D03*
%TO.P,U4,23*%
%TO.N,unconnected-(U4-Pad23)*%
X134809100Y-120490000D03*
%TO.P,U4,24*%
%TO.N,unconnected-(U4-Pad24)*%
X137349100Y-120490000D03*
%TD*%
D40*
%TO.P,J4,1,NC*%
%TO.N,unconnected-(J4-NC-Pad1)*%
X64914000Y-163850000D03*
%TO.P,J4,2,NC*%
%TO.N,unconnected-(J4-NC-Pad2)*%
X60850000Y-163850000D03*
%TO.P,J4,3,VCC*%
%TO.N,+3.3V*%
X64914000Y-165120000D03*
%TO.P,J4,4,JTMS/SWDIO*%
%TO.N,/MCU/SYS_JTMS-SWDIO*%
X60850000Y-165120000D03*
%TO.P,J4,5,GND*%
%TO.N,GND*%
X64914000Y-166390000D03*
%TO.P,J4,6,JCLK/SWCLK*%
%TO.N,/MCU/SYS_JTCK-SWCLK*%
X60850000Y-166390000D03*
%TO.P,J4,7,GND*%
%TO.N,GND*%
X64914000Y-167660000D03*
%TO.P,J4,8,JTDO/SWO*%
%TO.N,/MCU/SYS_JTDO-SWO*%
X60850000Y-167660000D03*
%TO.P,J4,9,JRCLK/NC*%
%TO.N,unconnected-(J4-JRCLK{slash}NC-Pad9)*%
X64914000Y-168930000D03*
%TO.P,J4,10,JTDI/NC*%
%TO.N,/MCU/SYS_JTDI*%
X60850000Y-168930000D03*
%TO.P,J4,11,GNDDetect*%
%TO.N,Net-(J4-GNDDetect)*%
X64914000Y-170200000D03*
%TO.P,J4,12,~{RST}*%
%TO.N,/MCU/NRST*%
X60850000Y-170200000D03*
%TO.P,J4,13,VCP_RX*%
%TO.N,/MCU/USART2_RX*%
X64914000Y-171470000D03*
%TO.P,J4,14,VCP_TX*%
%TO.N,/MCU/USART2_TX*%
X60850000Y-171470000D03*
%TD*%
D41*
%TO.P,RN2,1,R1.1*%
%TO.N,Net-(D11-K)*%
X60550000Y-209150000D03*
D42*
%TO.P,RN2,2,R2.1*%
%TO.N,Net-(D6-K)*%
X60550000Y-208350000D03*
%TO.P,RN2,3,R3.1*%
%TO.N,Net-(D5-K)*%
X60550000Y-207550000D03*
D41*
%TO.P,RN2,4,R4.1*%
%TO.N,Net-(D4-K)*%
X60550000Y-206750000D03*
%TO.P,RN2,5,R4.2*%
%TO.N,GND*%
X58750000Y-206750000D03*
D42*
%TO.P,RN2,6,R3.2*%
X58750000Y-207550000D03*
%TO.P,RN2,7,R2.2*%
X58750000Y-208350000D03*
D41*
%TO.P,RN2,8,R1.2*%
X58750000Y-209150000D03*
%TD*%
D21*
%TO.P,C12,1*%
%TO.N,GND*%
X112975000Y-155300000D03*
%TO.P,C12,2*%
%TO.N,+3.3V*%
X112975000Y-155800000D03*
%TD*%
D28*
%TO.P,TP38,1,1*%
%TO.N,/MCU/PE12*%
X249200000Y-154600000D03*
%TD*%
D23*
%TO.P,C14,1*%
%TO.N,/MCU/RCC_OSC_OUT*%
X121375000Y-145250000D03*
%TO.P,C14,2*%
%TO.N,GND*%
X122925000Y-145250000D03*
%TD*%
D28*
%TO.P,TP35,1,1*%
%TO.N,/MCU/PE9*%
X246150000Y-166800000D03*
%TD*%
D13*
%TO.P,R33,1*%
%TO.N,GND*%
X129500000Y-204500000D03*
%TO.P,R33,2*%
%TO.N,Net-(Q5-G)*%
X131150000Y-204500000D03*
%TD*%
D20*
%TO.P,SW2,1,1*%
%TO.N,/MCU/NRST*%
X70475000Y-134650000D03*
X70475000Y-128650000D03*
%TO.P,SW2,2,2*%
%TO.N,GND*%
X74225000Y-134650000D03*
X74225000Y-128650000D03*
%TD*%
D28*
%TO.P,TP2,1,1*%
%TO.N,+3.3V*%
X226250000Y-173500000D03*
%TD*%
D43*
%TO.P,C7,1*%
%TO.N,+3.3V*%
X140000000Y-111600000D03*
%TO.P,C7,2*%
%TO.N,GND*%
X141900000Y-111600000D03*
%TD*%
D28*
%TO.P,TP10,1,1*%
%TO.N,/MCU/PC8*%
X237000000Y-157650000D03*
%TD*%
%TO.P,TP8,1,1*%
%TO.N,/MCU/PC6*%
X237000000Y-151550000D03*
%TD*%
D34*
%TO.P,R38,1*%
%TO.N,/LCD_RESET*%
X121000000Y-107425000D03*
%TO.P,R38,2*%
%TO.N,+3.3V*%
X121000000Y-109075000D03*
%TD*%
%TO.P,R37,1*%
%TO.N,/SPI3_CS*%
X115812500Y-107425000D03*
%TO.P,R37,2*%
%TO.N,+3.3V*%
X115812500Y-109075000D03*
%TD*%
D29*
%TO.P,C2,1*%
%TO.N,+3.3V*%
X125350000Y-117850000D03*
%TO.P,C2,2*%
%TO.N,Net-(Q1-D)*%
X125850000Y-117850000D03*
%TD*%
D28*
%TO.P,TP27,1,1*%
%TO.N,/MCU/PD6*%
X243100000Y-163750000D03*
%TD*%
%TO.P,TP20,1,1*%
%TO.N,/MCU/PB4*%
X240050000Y-166800000D03*
%TD*%
D30*
%TO.P,Q4,1,G*%
%TO.N,Net-(Q4-G)*%
X114062500Y-116300000D03*
%TO.P,Q4,2,D*%
%TO.N,Net-(J2-GND)*%
X114062500Y-118200000D03*
%TO.P,Q4,3,S*%
%TO.N,GND*%
X115937500Y-117250000D03*
%TD*%
D13*
%TO.P,R2,1*%
%TO.N,GND*%
X141000000Y-199500000D03*
%TO.P,R2,2*%
%TO.N,Net-(Q1-G)*%
X142650000Y-199500000D03*
%TD*%
%TO.P,R12,1*%
%TO.N,Net-(Q1-D)*%
X99850000Y-203500000D03*
%TO.P,R12,2*%
%TO.N,/SPI1_IRQ*%
X101500000Y-203500000D03*
%TD*%
D28*
%TO.P,TP18,1,1*%
%TO.N,/MCU/PA4*%
X240050000Y-160700000D03*
%TD*%
%TO.P,TP16,1,1*%
%TO.N,/MCU/PA0*%
X240050000Y-154600000D03*
%TD*%
%TO.P,TP25,1,1*%
%TO.N,/MCU/PB11*%
X243100000Y-157650000D03*
%TD*%
D44*
%TO.P,D1,1,K*%
%TO.N,Net-(D1-K)*%
X101475000Y-124150000D03*
%TO.P,D1,2,A*%
%TO.N,Net-(D1-A)*%
X103050000Y-124150000D03*
%TD*%
D28*
%TO.P,TP5,1,1*%
%TO.N,/SPI2_SCK*%
X235550000Y-174650000D03*
%TD*%
%TO.P,TP7,1,1*%
%TO.N,/GND_ISO*%
X232500000Y-167750000D03*
%TD*%
D18*
%TO.P,R35,1*%
%TO.N,Net-(J4-GNDDetect)*%
X61720000Y-132665000D03*
%TO.P,R35,2*%
%TO.N,GND*%
X61720000Y-131015000D03*
%TD*%
D29*
%TO.P,C11,1*%
%TO.N,GND*%
X120125000Y-150450000D03*
%TO.P,C11,2*%
%TO.N,+3.3V*%
X120625000Y-150450000D03*
%TD*%
D34*
%TO.P,R7,1*%
%TO.N,/SPI1_CS2*%
X122050000Y-123225000D03*
%TO.P,R7,2*%
%TO.N,+3.3V*%
X122050000Y-124875000D03*
%TD*%
D45*
%TO.P,D2,1,K*%
%TO.N,Net-(D1-A)*%
X119150000Y-242550000D03*
%TO.P,D2,2,A*%
%TO.N,/VBATT*%
X125950000Y-242550000D03*
%TD*%
D46*
%TO.P,Q1,1,G*%
%TO.N,Net-(Q1-G)*%
X137000000Y-117900000D03*
%TO.P,Q1,2,D*%
%TO.N,Net-(Q1-D)*%
X137000000Y-116000000D03*
%TO.P,Q1,3,S*%
%TO.N,GND*%
X135125000Y-116950000D03*
%TD*%
D29*
%TO.P,C15,1*%
%TO.N,GND*%
X112450000Y-166850000D03*
%TO.P,C15,2*%
%TO.N,+3.3V*%
X112950000Y-166850000D03*
%TD*%
D13*
%TO.P,R32,1*%
%TO.N,Net-(Q5-G)*%
X138500000Y-208750000D03*
%TO.P,R32,2*%
%TO.N,/MCU/BEEPER*%
X140150000Y-208750000D03*
%TD*%
D44*
%TO.P,D10,1,K*%
%TO.N,Net-(D10-K)*%
X196412500Y-112275000D03*
%TO.P,D10,2,A*%
%TO.N,Net-(D10-A)*%
X197987500Y-112275000D03*
%TD*%
D13*
%TO.P,R36,1*%
%TO.N,GND*%
X131675000Y-219500000D03*
%TO.P,R36,2*%
%TO.N,/MCU/BOOT1*%
X133325000Y-219500000D03*
%TD*%
D28*
%TO.P,TP33,1,1*%
%TO.N,/MCU/PE0*%
X246150000Y-160700000D03*
%TD*%
D47*
%TO.P,R1,1*%
%TO.N,/CAN_L*%
X154225000Y-118470000D03*
%TO.P,R1,2*%
%TO.N,/CAN_H*%
X154225000Y-116645000D03*
%TD*%
D37*
%TO.P,D5,1,K*%
%TO.N,Net-(D5-K)*%
X120618750Y-188137500D03*
%TO.P,D5,2,A*%
%TO.N,/MCU/PD13*%
X120618750Y-186562500D03*
%TD*%
D28*
%TO.P,TP24,1,1*%
%TO.N,/MCU/PB10*%
X243100000Y-154600000D03*
%TD*%
D48*
%TO.P,U5,1,SPC*%
%TO.N,/SPI2_SCK*%
X125249620Y-111548200D03*
D49*
%TO.P,U5,2,SDI*%
%TO.N,/SPI2_SDO*%
X124248860Y-111205300D03*
%TO.P,U5,3,SDO*%
%TO.N,/SPI2_SDI*%
X123705300Y-111748860D03*
D50*
%TO.P,U5,4,CS*%
%TO.N,/SPI2_CS*%
X123705300Y-112749620D03*
%TO.P,U5,5,INT2*%
%TO.N,/SPI2_IRQ2*%
X123705300Y-113750380D03*
D49*
%TO.P,U5,6,INT1*%
%TO.N,/SPI2_IRQ*%
X123705300Y-114751140D03*
%TO.P,U5,7,VDD_IO*%
%TO.N,+3.3V*%
X124248860Y-115294700D03*
D51*
%TO.P,U5,8,VDD*%
X125249620Y-115294700D03*
%TO.P,U5,9,GND*%
%TO.N,Net-(Q1-D)*%
X126250380Y-115294700D03*
D49*
%TO.P,U5,10,GND__1*%
X127251140Y-115294700D03*
%TO.P,U5,11,GND__2*%
X127794700Y-114751140D03*
D50*
%TO.P,U5,12,GND__3*%
X127794700Y-113750380D03*
%TO.P,U5,13,GND__4*%
X127794700Y-112749620D03*
D49*
%TO.P,U5,14,GND__5*%
X127794700Y-111748860D03*
%TO.P,U5,15,GND__6*%
X127251140Y-111205300D03*
D51*
%TO.P,U5,16,GND__7*%
X126250380Y-111205300D03*
%TD*%
D28*
%TO.P,TP36,1,1*%
%TO.N,/MCU/PE10*%
X246150000Y-169850000D03*
%TD*%
D34*
%TO.P,R15,1*%
%TO.N,/SPI1_CS*%
X124750000Y-123175000D03*
%TO.P,R15,2*%
%TO.N,+3.3V*%
X124750000Y-124825000D03*
%TD*%
D13*
%TO.P,R4,1*%
%TO.N,GND*%
X192975000Y-112325000D03*
%TO.P,R4,2*%
%TO.N,Net-(D1-K)*%
X194625000Y-112325000D03*
%TD*%
D34*
%TO.P,R14,1*%
%TO.N,GND*%
X109250000Y-107425000D03*
%TO.P,R14,2*%
%TO.N,Net-(Q4-G)*%
X109250000Y-109075000D03*
%TD*%
D28*
%TO.P,TP26,1,1*%
%TO.N,/MCU/PB12*%
X243100000Y-160700000D03*
%TD*%
D18*
%TO.P,R27,1*%
%TO.N,Net-(U3-PC10)*%
X128500000Y-109075000D03*
%TO.P,R27,2*%
%TO.N,/SPI3_SCK*%
X128500000Y-107425000D03*
%TD*%
D29*
%TO.P,C9,1*%
%TO.N,Net-(U3-VDDA)*%
X89275000Y-175450000D03*
%TO.P,C9,2*%
%TO.N,GND*%
X89775000Y-175450000D03*
%TD*%
D52*
%TO.P,C10,1*%
%TO.N,+3.3V*%
X123150000Y-117650000D03*
%TO.P,C10,2*%
%TO.N,Net-(Q1-D)*%
X121250000Y-117650000D03*
%TD*%
D28*
%TO.P,TP14,1,1*%
%TO.N,/MCU/PC15*%
X237000000Y-169850000D03*
%TD*%
%TO.P,TP19,1,1*%
%TO.N,/MCU/PA8*%
X240050000Y-163750000D03*
%TD*%
D34*
%TO.P,R9,1*%
%TO.N,Net-(Q1-D)*%
X178706440Y-227704920D03*
%TO.P,R9,2*%
%TO.N,/SPI2_IRQ*%
X178706440Y-229354920D03*
%TD*%
%TO.P,R34,1*%
%TO.N,Net-(J2-GND)*%
X113000000Y-107425000D03*
%TO.P,R34,2*%
%TO.N,Net-(D9-K)*%
X113000000Y-109075000D03*
%TD*%
D28*
%TO.P,TP37,1,1*%
%TO.N,/MCU/PE11*%
X249200000Y-151550000D03*
%TD*%
%TO.P,TP11,1,1*%
%TO.N,/MCU/PC9*%
X237000000Y-160700000D03*
%TD*%
D37*
%TO.P,D6,1,K*%
%TO.N,Net-(D6-K)*%
X124150000Y-188137500D03*
%TO.P,D6,2,A*%
%TO.N,/MCU/PD14*%
X124150000Y-186562500D03*
%TD*%
D28*
%TO.P,TP15,1,1*%
%TO.N,/MCU/PC0*%
X240050000Y-151550000D03*
%TD*%
D18*
%TO.P,R5,1*%
%TO.N,Net-(D10-A)*%
X89600000Y-208300000D03*
%TO.P,R5,2*%
%TO.N,/MCU/USB_OTG_FS_VBUS*%
X89600000Y-206650000D03*
%TD*%
D44*
%TO.P,D8,1,K*%
%TO.N,Net-(D8-K)*%
X101362500Y-130450000D03*
%TO.P,D8,2,A*%
%TO.N,+3.3V*%
X102937500Y-130450000D03*
%TD*%
D45*
%TO.P,D3,1,A1*%
%TO.N,Net-(D1-A)*%
X119300000Y-252400000D03*
%TO.P,D3,2,A2*%
%TO.N,GND*%
X126100000Y-252400000D03*
%TD*%
D28*
%TO.P,TP6,1,1*%
%TO.N,/+5V_ISO*%
X227250000Y-167750000D03*
%TD*%
%TO.P,TP13,1,1*%
%TO.N,/MCU/PC14*%
X237000000Y-166800000D03*
%TD*%
D37*
%TO.P,D11,1,K*%
%TO.N,Net-(D11-K)*%
X127587500Y-188100000D03*
%TO.P,D11,2,A*%
%TO.N,/MCU/PD15*%
X127587500Y-186525000D03*
%TD*%
D18*
%TO.P,R28,1*%
%TO.N,Net-(U3-PC11)*%
X131000000Y-109075000D03*
%TO.P,R28,2*%
%TO.N,/SPI3_SDI*%
X131000000Y-107425000D03*
%TD*%
D44*
%TO.P,D9,1,K*%
%TO.N,Net-(D9-K)*%
X101475000Y-127350000D03*
%TO.P,D9,2,A*%
%TO.N,+3.3V*%
X103050000Y-127350000D03*
%TD*%
D28*
%TO.P,TP29,1,1*%
%TO.N,/MCU/PD8*%
X243100000Y-169850000D03*
%TD*%
%TO.P,TP28,1,1*%
%TO.N,/MCU/PD7*%
X243100000Y-166800000D03*
%TD*%
D27*
%TO.P,C13,1*%
%TO.N,/MCU/RCC_OSC_IN*%
X126200000Y-145250000D03*
%TO.P,C13,2*%
%TO.N,GND*%
X124650000Y-145250000D03*
%TD*%
D18*
%TO.P,R30,1*%
%TO.N,Net-(Q1-D)*%
X140250000Y-121325000D03*
%TO.P,R30,2*%
%TO.N,Net-(D8-K)*%
X140250000Y-119675000D03*
%TD*%
D34*
%TO.P,R8,1*%
%TO.N,/SPI2_CS*%
X97600000Y-257100000D03*
%TO.P,R8,2*%
%TO.N,+3.3V*%
X97600000Y-258750000D03*
%TD*%
D53*
%TO.P,C17,1*%
%TO.N,GND*%
X134475000Y-155300000D03*
%TO.P,C17,2*%
%TO.N,+3.3V*%
X134475000Y-154800000D03*
%TD*%
D54*
%TO.P,U22,1,OUT*%
%TO.N,+3.3V*%
X140175000Y-115887500D03*
%TO.P,U22,2,SNS*%
X140175000Y-116537500D03*
%TO.P,U22,3,GND*%
%TO.N,GND*%
X140175000Y-117187500D03*
%TO.P,U22,4,EN*%
%TO.N,unconnected-(U22-EN-Pad4)*%
X141950000Y-117187500D03*
%TO.P,U22,5,GND*%
%TO.N,GND*%
X141950000Y-116537500D03*
%TO.P,U22,6,IN*%
%TO.N,+5V*%
X141950000Y-115887500D03*
D55*
%TO.P,U22,7,PAD*%
%TO.N,GND*%
X141062500Y-115987500D03*
D56*
X141062500Y-116537500D03*
D55*
X141062500Y-117087500D03*
%TD*%
D18*
%TO.P,R29,1*%
%TO.N,Net-(U3-PC12)*%
X123250000Y-109075000D03*
%TO.P,R29,2*%
%TO.N,/SPI3_SDO*%
X123250000Y-107425000D03*
%TD*%
%TO.P,R11,1*%
%TO.N,Net-(Q1-D)*%
X114750000Y-124825000D03*
%TO.P,R11,2*%
%TO.N,/SPI1_IRQ2*%
X114750000Y-123175000D03*
%TD*%
D27*
%TO.P,C8,1*%
%TO.N,Net-(U3-VCAP_1)*%
X94600000Y-175050000D03*
%TO.P,C8,2*%
%TO.N,GND*%
X93050000Y-175050000D03*
%TD*%
D57*
%TO.P,J3,1,Pin_1*%
%TO.N,GND*%
X150000000Y-140250000D03*
D58*
%TO.P,J3,2,Pin_2*%
X150000000Y-136750000D03*
%TO.P,J3,3,Pin_3*%
%TO.N,/VBATT*%
X150000000Y-133250000D03*
%TO.P,J3,4,Pin_4*%
%TO.N,/CAN_H*%
X150000000Y-129750000D03*
%TO.P,J3,5,Pin_5*%
%TO.N,/CAN_L*%
X150000000Y-126250000D03*
%TO.P,J3,6,Pin_6*%
%TO.N,/GND_ISO*%
X150000000Y-122750000D03*
%TD*%
D59*
%TO.P,R6,1*%
%TO.N,GND*%
X102175000Y-241600000D03*
%TO.P,R6,2*%
%TO.N,/MCU/USB_OTG_FS_VBUS*%
X100525000Y-241600000D03*
%TD*%
D60*
%TO.P,BZ1,1,+*%
%TO.N,+5V*%
X147200000Y-242850000D03*
D61*
%TO.P,BZ1,2,-*%
%TO.N,Net-(BZ1--)*%
X142200000Y-242850000D03*
%TD*%
D62*
%TO.N,+3.3V*%
X124550000Y-117650000D02*
X124750000Y-117850000D01*
X124550000Y-117650000D02*
X123150000Y-117650000D01*
X125249620Y-115294700D02*
X125249620Y-116950380D01*
X123750000Y-117650000D02*
X124550000Y-117650000D01*
X125249620Y-116950380D02*
X124550000Y-117650000D01*
X125350000Y-117850000D02*
X124750000Y-117850000D01*
%TD*%
M02*
